<svg xmlns="http://www.w3.org/2000/svg" version="1.0" viewBox="0 0 1133.858 1133.858"><path fill="#002300" fill-rule="evenodd" d="M145.639 737.409c-1.511-.473-2.492-.708-3.417-1.081-6.386-2.576-7.762-10.405-2.626-14.981.755-.674 1.621-1.245 2.499-1.754 17.324-10.058 35.965-16.246 55.847-18.471 39.267-4.395 75.333 5.216 108.929 25.331 1.175.703 2.372 1.368 3.831 2.208.738-1.879 1.363-3.396 1.932-4.933 10.208-27.515 18.422-55.619 25.281-84.15 4.349-18.089 9.302-36.038 16.101-53.391 4.745-12.112 10.249-23.895 16.763-35.18.507-.878.944-1.809 1.32-2.751 9.5-23.893 26.143-40.731 49.99-50.322 8.74-3.515 17.515-7.032 26.493-9.851 13.111-4.118 26.705-5.336 40.419-5.092 4.334.077 7.952 1.683 10.313 5.517 1.828 2.968 2.013 6.044.188 9.042-1.748 2.871-4.457 4.182-7.788 3.847-19.987-2.013-38.688 2.79-56.82 10.638-.548.238-1.017.657-2.31 1.513 4.817-.606 8.697-1.127 12.585-1.577 12.838-1.482 25.69-1.538 38.566-.476 4.317.356 8.665.312 12.992.57 5.284.316 8.817 4.172 8.628 9.26-.179 4.851-3.738 8.351-9.095 8.354-6.242.005-12.487-.349-18.726-.64-18.952-.884-37.739-.348-55.789 6.468a110.234 110.234 0 00-20.8 10.457c-7.894 5.084-13.877 11.805-18.231 20.177-10.884 20.929-18.616 42.994-24.358 65.811-.522 2.074-1.092 4.136-1.603 6.061.433.407.592.693.792.725 17.885 2.904 34.085 10.3 49.702 19.032 18.078 10.108 34.631 22.429 50.753 35.414 27.608 22.236 55.278 44.407 83.342 66.06 17.986 13.877 37.116 26.096 58.248 34.887 8.138 3.386 16.364 6.485 24.938 8.465 9.558 2.208 19.215 2.146 28.834.103 1.994-.423 3.967-.98 5.979-1.274 3.038-.442 4.841-1.989 6.21-4.839 9.046-18.843 18.284-37.596 27.453-56.381 8.106-16.61 16.202-33.226 24.314-49.833.67-1.372 1.307-2.786 2.171-4.033 2.564-3.704 7.274-4.932 11.165-3.028 3.924 1.92 5.849 6.34 4.503 10.641-.492 1.572-1.234 3.073-1.958 4.56-6.581 13.524-13.188 27.037-19.771 40.56-.583 1.197-1.062 2.444-1.588 3.669l.612.44c.993-.691 2.009-1.352 2.975-2.078 23.833-17.916 50.439-29.57 79.631-35.495 19.626-3.983 39.415-5.251 59.348-3.592 28.237 2.352 55.132 9.722 80.57 22.271 1.251.618 2.511 1.294 3.595 2.159 3.303 2.633 4.207 7.376 2.227 11.059-1.948 3.624-6.048 5.392-10.083 4.272-1.097-.304-2.169-.757-3.193-1.26-24.192-11.891-49.687-18.88-76.615-20.727-34.741-2.384-67.817 3.712-98.917 19.47-27.091 13.728-49 33.33-65.243 59.113-1.234 1.958-2.2 3.818-2.03 6.358.208 3.101-1.343 5.729-4.088 7.312-1.787 1.03-2.766 2.507-3.563 4.298-10.342 23.243-15 47.521-13.583 72.968.684 12.274 2.582 24.32 5.944 36.139.575 2.024.601 2.017 2.76 3.098-.076-1.326-.041-2.396-.21-3.432-5.354-32.75-2.347-64.739 10.612-95.271 23.198-54.65 63.861-89.541 122.138-101.458 54.804-11.208 103.996 3.135 146.475 39.142 33.37 28.287 53.615 64.679 60.335 107.839 8.54 54.841-5.332 103.79-42.496 145.354-23.736 26.547-53.543 43.187-88.409 50.691-10.756 2.315-21.619 3.619-32.612 3.71-35.984.306-68.938-9.687-98.782-29.684-28.577-19.149-49.79-44.625-63.894-75.986-2.244-4.988-4.048-10.175-6.054-15.271-.444-1.13-.879-2.264-1.411-3.635-5.713 11.299-15.467 9.016-19.308-.8-3.003.578-6.097 1.125-9.17 1.774-12.588 2.657-25.17 5.343-37.752 8.026-.995.212-2.025.37-2.954.757-4.303 1.795-7.869.517-11.294-2.282-13.332-10.893-26.727-21.709-40.099-32.552-61.611-49.958-123.223-99.915-184.835-149.875-14.066-11.405-28.127-22.815-42.197-34.215-1.134-.919-2.316-1.776-3.875-2.967-.072 2.235 1.334 2.656 2.211 3.375 15.787 12.957 29.412 27.875 40.773 44.849 16.189 24.185 26.85 50.607 31.558 79.325 3.753 22.896 3.154 45.728-2.2 68.365-.351 1.485-.725 2.983-1.29 4.395-1.715 4.277-5.727 6.398-10.174 5.493-4.098-.835-6.887-4.473-6.766-8.964.034-1.264.235-2.545.532-3.779 8.294-34.413 4.595-67.881-8.339-100.475-10.96-27.62-27.836-51.183-50.137-70.839-.855-.753-1.774-1.44-2.696-2.112-.153-.112-.476.008-1.052.039.112.681.017 1.482.37 1.938.611.792 1.493 1.375 2.27 2.035 30.737 26.063 49.977 58.964 57.271 98.503 14.316 77.604-26.111 155.064-97.837 188.221-17.97 8.308-36.85 13.23-56.604 15.027-68.126 6.193-135.47-30.431-165.935-95.354-12.677-27.015-17.908-55.488-15.645-85.183 4.73-62.075 42.065-116.343 98.244-143.407 1.451-.699 2.857-1.491 4.69-2.454zm451.843 197.628c3.198-4.601 54.794-111.021 55.217-113.747-.76 0-1.521-.086-2.257.013a85.234 85.234 0 01-22.877-.035c-11.958-1.637-23.184-5.815-34.275-10.407-21.836-9.04-41.772-21.409-60.432-35.689-25.415-19.45-50.358-39.516-75.415-59.43-15.87-12.612-31.463-25.539-48.69-36.379-14.668-9.23-30.376-16.082-46.436-22.295-3.055-1.182-6.199-2.218-9.303-1.793l-19.718 65.541c87.895 71.27 175.933 142.658 264.186 214.221zm396.692-54.179c-1.229-14.559-10.53-43.292-15.69-48.668-40.667 19.031-81.45 37.995-122.165 57.1l.275 1.068 137.58-9.5zm-149.833 27.198l-.826.611 70.648 132.032c13.95-7.309 26.124-16.039 36.972-27.096a4952289.9 4952289.9 0 00-106.794-105.547zm24.775-162.089c-10.77 46.479-21.414 92.423-32.059 138.367l.892.354 74.338-122.608c-13.671-7.668-27.78-12.779-43.171-16.113zm81.264 45.201c-6.776 5.052-102.755 94.735-104.393 97.773l131.009-61.198c-7.366-13.719-16.052-25.714-26.616-36.575zM851.912 907.5l-.739.768c34.325 33.926 68.65 67.853 103.254 102.053 10.123-10.782 18.204-22.335 24.82-35.347L851.912 907.5zm-651.61 1.925l-.706-.695c-11.05 9.752-22.063 19.549-33.08 29.339-11.249 9.996-22.504 19.982-33.748 29.984-11.108 9.882-22.204 19.776-33.526 29.863 10.765 11.698 22.503 21.254 36.255 29l64.805-117.491zm793.684 17.735c2.666-9.989 2.818-35.949.329-41.608-48.235 3.297-96.54 6.597-144.843 9.908-.368.025-.729.197-1.082.333-.09.035-.149.186-.191.295-.041.107-.042.23-.114.684l145.901 30.388zm-778.811-46.787l.942.373 67.595-122.575c-13.405-6.995-26.991-11.735-41.841-14.448l-26.696 136.65zm-14.663 14.311l-.001-.832c-46.031-7.414-92.062-14.824-138.035-22.112-2.775 9.094-3.041 37.228-.392 43.222l138.428-20.278zm632.014 13.2l-.927-.033c-2.713 11.757-5.419 23.515-8.141 35.27-2.758 11.909-5.527 23.813-8.295 35.719-2.74 11.781-5.557 23.545-8.208 35.347-2.664 11.855-5.732 23.627-8.085 35.708 13.314 4.122 26.308 6.692 40.143 7.06 0-1.679.045-2.922-.008-4.162-.149-3.436-.369-6.869-.511-10.305-.377-9.166-.687-18.334-1.097-27.498-.872-19.472-1.827-38.939-2.676-58.412-.677-15.529-1.247-31.062-1.879-46.592-.028-.705-.207-1.403-.316-2.102zm22.791-4.845l-.314.815 126.296 66.925c5.855-12.607 9.951-25.204 12.306-38.932l-138.288-28.808zm-626.679-4.017l-.256.931 119.266 60.036c6.487-12.868 10.812-26.032 13.446-40.409-43.832-7.029-87.279-14-130.73-20.938-.541-.086-1.149.244-1.726.38zm32.649 138.456c.123-.574.271-.845.21-1.056-.274-.978-.564-1.955-.924-2.904a393778.814 393778.814 0 00-47.604-125.346.432.432 0 00-.274-.235c-.11-.02-.24.064-.362.103-.57 4.08 9.108 134.469 10.309 137.898 13.316-.945 26.227-3.894 38.645-8.46zm532.997 10.827c10.204-44.034 20.25-87.392 30.295-130.75a339.55 339.55 0 00-.893-.376l-67.542 111.398c11.965 8.331 24.262 14.806 38.14 19.728zm-616.135-5.087c1.762-4.718 25.205-125.765 24.969-128.515-2.944 3.784-62.292 111.875-62.958 114.786 11.927 6.347 24.524 10.926 37.989 13.729zm167.178-78.583c-3.584-2.832-116.476-59.421-119.847-59.892l96.93 92.122c9.244-10.06 16.796-20.65 22.917-32.23zm6.441-132.19c-1.512.642-2.675 1.094-3.804 1.62-30.258 14.099-60.474 28.288-90.803 42.229-5.349 2.459-9.973 5.524-13.594 10.117-.403.509-.654 1.139-1.069 1.879 11.286-.771 116.694-16.61 119.743-18.017-1.792-12.973-5.142-25.537-10.473-37.828zm-160.25 55.218l.199-.943c-38.498-19.376-76.996-38.75-115.433-58.096-4.729 6.19-13.098 31.401-12.779 38.511l128.013 20.528zm8.06-145.962c.377 5.363.702 10.047 1.037 14.731.883 12.324 1.752 24.647 2.662 36.969 1.135 15.368 2.323 30.733 3.455 46.101.89 12.068 1.719 24.139 2.61 36.206.085 1.152.409 2.287.622 3.428 3.105-9.109 26.931-133.045 26.549-136.356-12.026-1.899-24.158-1.863-36.935-1.079zM96.162 994.391c32.47-28.86 64.557-57.377 96.636-85.902.565-.502 1.052-1.094 1.559-1.658.076-.084.106-.249.087-.364-.015-.091-.138-.164-.509-.562-39.515 18.43-79.137 36.91-119.077 55.54 5.604 12.044 12.595 22.701 21.304 32.946zm750.498-115.11l.734.751 99.462-92.384c-9.393-9.195-19.313-16.754-30.499-23.316L846.66 879.281zM72.728 956.739c5.104-1.355 117.412-54.022 119.491-56.093-14.775 2.137-29.249 4.21-43.716 6.328-14.361 2.103-28.717 4.245-43.073 6.382-14.412 2.146-28.873 3.991-43.464 6.515 2.139 13.14 5.519 25.289 10.762 36.868zm746.565-71.803l.759-.888-93.13-92.045c-8.869 9.916-16.174 20.352-22.165 32.24 38.379 20.336 76.458 40.514 114.536 60.693zm-719.039-92.792c-8.973 9.936-16.18 20.326-22.198 31.758.728.528 1.187.969 1.73 1.241 38.011 19.068 76.029 38.124 114.052 57.17.069.035.233-.071.324-.146.074-.06.104-.173.288-.503l-94.196-89.52zm660.609-28.099c-11.656 7.035-21.618 15.036-30.766 24.56 30.502 30.146 60.775 60.067 91.05 89.987.237-.183.476-.365.714-.547l-60.998-114zM237.538 893.976l-.074.626c.528.241 1.033.614 1.586.703 40.828 6.543 81.66 13.065 122.823 19.641 1.968-13.289 2.65-26.008.883-39.299l-125.218 18.329zm578.388 15.28l-.413-.763c-1.254.519-2.531.99-3.76 1.563-27.464 12.826-54.878 25.76-82.419 38.417-5.591 2.568-10.443 5.644-13.887 10.809-2.763 4.143-6.368 6.895-11.782 6.077 1.58 6.55 14.43 27.094 19.063 30.461l93.198-86.564zm5.867 2.079c-.235-.176-.469-.354-.705-.53l-95.656 88.852c4.727 7.343 21.272 22.914 27.248 25.667l69.113-113.989zM690.76 863.993c14.422 3.002 28.482 5.927 42.542 8.855 14.213 2.961 28.42 5.951 42.639 8.884 13.966 2.88 27.891 5.981 41.902 8.632l.234-.794-115.411-61.15c-5.549 11.469-9.426 23.047-11.906 35.573zM158.97 751.602c5.047 13.347 9.949 26.307 14.847 39.269 4.907 12.989 9.77 25.996 14.724 38.967 4.909 12.85 9.555 25.805 15.05 38.458.343-1.356.42-2.616.332-3.865-.748-10.422-1.527-20.842-2.295-31.262-1.274-17.283-2.555-34.565-3.82-51.849-.838-11.438-1.64-22.878-2.495-34.315-.11-1.474-.445-2.931-.71-4.613-12.401 1.679-24.046 4.512-35.633 9.21zm99.128 118.679c4.517-1.137 89.295-40.931 91.453-42.93-5.48-11.897-12.436-22.888-20.973-32.983-.781.567-1.218.831-1.594 1.164a44751.592 44751.592 0 00-46.025 40.895c-.848.755-1.653 1.613-2.276 2.555-6.806 10.298-13.572 20.622-20.585 31.299zm585.537 48.462c-.108 5.408 34.148 131.996 35.595 134.354 7.099-.588 26.04-7.302 30.46-10.911l-66.055-123.443zm-619.882-9.223l-.712.716 69.717 111.621c9.75-6.346 18.389-13.312 26.396-21.667l-95.401-90.67zm-15.58 12.6l-1.148-.011-23.823 122.044c11.459 2.242 22.52 2.711 34.115 2.086l-9.144-124.119zm622-179.129l5.31 122.965 1.029.112c9.301-40.17 18.659-80.327 27.975-120.842-11.445-2.316-22.53-2.674-34.314-2.235zM194.62 875.414l.797-.64a4326741.47 4326741.47 0 01-66.945-107.193c-9.25 6.258-17.452 13.104-25.023 21.179 30.61 29.092 60.89 57.872 91.171 86.654zm644.487 48.651c-.309-.001-.618-.001-.926-.003 0 1.489-.051 2.981.008 4.469.245 6.115.515 12.229.789 18.343.955 21.272 1.936 42.543 2.864 63.815.596 13.63 1.113 27.264 1.679 40.896.072 1.744.22 3.485.349 5.469 10.337.269 20.135-.391 30.211-2.717a3387275.46 3387275.46 0 01-34.974-130.272zm-151.244-22.151c3.728-.219 7.261-.398 10.79-.64 12.96-.892 25.915-1.876 38.883-2.655 2.923-.175 5.258-.716 7.436-2.994 3.314-3.466 8.333-3.692 11.719-.581 1.951 1.792 3.86 2.044 6.228 1.87 10.923-.805 21.854-1.517 32.779-2.292 3.597-.256 7.186-.604 10.778-.909l.079-.828-116.226-24.208c-2.16 6.084-3.57 24.975-2.466 33.237zm77.038-140.166l59.617 111.41.828-.325-33.027-122.999c-9.644 3.058-18.483 6.781-27.418 11.914zm31.893-13.179l33.426 124.457.902-.165c-1.804-43.063-3.65-86.123-5.62-129.49-10.054.695-19.357 2.261-28.708 5.198zm-508.316 275.904c-2.653-5.749-63.21-102.178-65.219-103.971.908 4.65 41.899 112.452 43.69 114.772 7.443-2.878 14.57-6.447 21.529-10.801zM196.94 868.434c.019-4.001-41.028-112.269-42.772-114.625-5.517 1.595-18.14 8.378-21.526 11.671l64.298 102.954zm90.864-108.049c-22.655 41.08-45.04 81.59-66.907 122.487 3.223-2.333 6.048-4.969 8.793-7.688 13.708-13.583 23.906-29.791 33.944-46.052 12.062-19.541 22.044-40.2 31.605-61.057.354-.773.533-1.627.866-2.671l-8.301-5.019zm536.811 136.866l-63.199 4.346c-2.317 3.535-3.89 6.434-5.927 8.957-7.924 9.822-15.999 19.52-24 29.278-.664.81-1.191 1.729-1.995 2.912 4.885-1.253 93.238-42.747 95.121-45.493zm-179.268-16.269l-1.035-.25-29.123 59.739 37.641-7.931c-4.853-17.162-7.559-34.162-7.483-51.558zm44.5 43.372c1.019 0 1.536.089 2.013-.013 11.201-2.392 22.405-4.771 33.583-7.266 1.128-.252 2.24-1.071 3.104-1.896 1.189-1.135 2.136-2.524 3.187-3.806l6.105-7.454c-4.772-.749-46.672 2.274-50.08 3.625.686 5.521 1.386 11.15 2.088 16.81zM155.894 732.381l.271.893c51.278-17.327 100.274-12.435 146.825 15.114 2.111-2.701-.212-3.343-1.534-4.191-23.365-14.991-48.698-24.11-76.557-25.938-21.647-1.422-42.37 2.093-62.21 10.835-2.301 1.014-4.532 2.188-6.795 3.287zm132.399 90.522c3.386-1.875 35.045-30.148 36.617-32.739-4.133-4.71-8.665-9.064-13.726-13.356l-22.891 46.095zm409.413 129.922c3.815-4.685 7.118-8.74 10.422-12.794l-.515-.752-13.459 2.901 3.552 10.645z" clip-rule="evenodd"/><path fill="#002300" fill-rule="evenodd" d="M538.922 976.283c17.932-.992 35.861-2.017 53.798-2.927 1.848-.095 3.868.166 5.571.852 3.673 1.482 5.54 5.393 4.908 9.419-.619 3.936-3.859 6.966-8.187 7.3-7.238.557-14.486.985-21.734 1.393-20.346 1.141-40.696 2.236-61.042 3.364-8.774.485-17.547 1.007-26.32 1.509-.763.043-1.528.091-2.291.073-5.347-.125-9.222-3.705-9.345-8.615-.117-4.686 3.49-8.559 8.57-9.031 3.55-.33 7.115-.5 10.676-.704 15.132-.869 30.265-1.725 45.398-2.585l-.002-.048z" clip-rule="evenodd"/><path fill="#16a34a" fill-rule="evenodd" d="M847.925 631.823c-.338 20.998-5.862 40.305-19.064 56.947-10.772 13.578-24.596 22.392-41.793 25.56-15.126 2.786-29.442.093-43.001-6.798-2.645-1.344-4.389-1.282-6.845.363-21.396 14.331-42.892 28.516-64.364 42.732-5.302 3.511-7.299 2.962-9.066-3.141-5.831-20.133-16.4-37.814-28.185-54.848-15.815-22.857-34.056-43.586-55.104-61.794-5.019-4.341-10.299-8.35-15.739-12.148-1.605-1.122-3.013-2.318-2.948-4.575.063-2.202 1.476-3.403 3-4.613 8.79-6.975 17.57-13.963 26.353-20.946 3.792-3.017 7.606-6.006 11.366-9.063 1.819-1.479 3.559-1.693 5.972-1.188 5.601 1.175 11.329 1.747 17.01 2.525 17.172 2.354 34.348 4.683 51.52 7.037 2.068.283 4.053-.065 6.026-.591 6.885-1.832 12.936-5.405 18.708-9.387 12.91-8.908 25.614-18.102 37.438-28.451 3.943-3.453 7.655-7.136 10.993-11.164 1.928-2.327 4.083-2.995 6.726-1.643 2.504 1.281 5.089 1.23 7.803 1.139 15.158-.51 28.982 3.814 41.49 12.205 19.867 13.326 31.899 32.198 38.179 54.997 2.415 8.778 3.469 17.75 3.525 26.845z" clip-rule="evenodd"/><path fill="#FF7C2B" fill-rule="evenodd" d="M705.115 382.931c1.259-1.191 2.452-2.323 3.647-3.451 24.847-23.462 52.835-41.976 85.077-53.689 6.21-2.257 12.639-3.926 18.997-5.757 2.275-.655 4.76-1.685 6.703.76 1.86 2.34.653 4.549-.4 6.774-4.691 9.904-9.358 19.818-14.026 29.734-.648 1.376-1.244 2.776-1.978 4.422 1.156 1.05 2.292 2.041 3.383 3.078 7.109 6.76 14.441 13.303 21.249 20.354 7.668 7.94 13.335 17.301 18.114 27.274 6.952 14.506 13.049 29.351 18.05 44.615 6.641 20.273 17.146 38.262 30.58 54.748 7.48 9.181 14.41 18.819 21.405 28.385 5.754 7.869 9.418 16.782 12.463 26.286-.632-.198-1.03-.209-1.263-.413-5.158-4.504-11.293-7.4-17.379-10.295-6.802-3.237-14.098-4.198-21.607-3.751-8.918.531-17.25 3.219-25.297 6.872-4.752 2.158-9.452 4.46-14.04 6.949-17.512 9.503-35.942 16.972-54.513 23.991-17.653 6.672-36.041 10.884-54.696 13.91-16.424 2.665-32.916 3.683-49.521 2.934-13.763-.62-27.514-1.68-40.845-5.322-9.996-2.732-19.375-7.078-27.711-13.375-1.505-1.136-2.842-2.589-3.955-4.115-.747-1.024-.962-2.437-1.637-4.277 1.775 0 2.87-.044 3.961.006 17.451.809 34.848 2.271 52.006 5.628 5.041.987 9.455.377 14.015-1.73 8.958-4.139 17.283-9.314 25.189-15.141 34.339-25.31 64.148-55.146 88.957-89.878 4.134-5.788 7.743-11.996 11.151-18.251 6.983-12.813 4.577-26.543-4.304-36.582-6.232-7.046-14.024-11.786-22.724-15.057-14.193-5.336-28.868-6.973-43.967-5.67-14.137 1.219-27.561 4.771-40.242 11.156-2.448 1.233-4.406 2.89-6.096 5.054-9.968 12.762-20.063 25.423-29.976 38.227-1.702 2.198-3.772 3.318-6.284 3.897-3.271.756-5.226-1.296-4.357-4.58.29-1.094.856-2.123 1.344-3.158 8.456-17.98 19.207-34.497 31.714-49.908 1.162-1.432 1.83-3.264 2.745-4.899.618-1.106 1.207-2.235 1.912-3.285 2.625-3.912 5.322-7.775 7.933-11.697 1.423-2.139 2.225-2.445 4.75-1.464.45.177.878.411 1.473.691z" clip-rule="evenodd"/><path fill="#c54d00" fill-rule="evenodd" d="M830.375 575.372c15.283-6.655 28.803-16.058 44.602-20.666 8.736-2.549 17.482-2.923 26.447-1.456 5.462.893 10.677 2.333 15.618 4.783 1.101.547 2.353.883 2.592 2.499.087.588.958 1.111 1.55 1.563 1.011.772 2.022 1.577 3.14 2.171 4.352 2.318 4.958 6.036 4.081 10.391-.899 4.462-2.668 8.578-5.647 11.973-2.757 3.143-5.609 6.38-8.988 8.771-19.747 13.975-41.631 18.383-65.333 13.769-4.439-.865-4.507-1.447-5.444-6.006-1.816-8.823-5.382-16.966-10.334-24.495-.629-.956-1.302-1.882-2.284-3.297z" clip-rule="evenodd"/><path fill="#c54d00" fill-rule="evenodd" d="M783.395 256.898c-.201 6.547-.784 12.998-2.642 19.286-1.212 4.104-2.249 4.503-5.922 2.606-.957-.495-2.2-.951-3.19-.769a88.504 88.504 0 00-9.604 2.32c-3.104.943-5.26-.491-4.618-3.72 1.151-5.798-.271-11.167-2.301-16.413-6.436-16.63-17.01-30.354-30.147-42.212-4.94-4.459-10.35-8.231-16.452-11.002-3.798-1.725-4.166-3.579-1.393-6.777 9.936-11.463 25.042-15.449 39.53-9.281 8.552 3.64 15.264 9.607 20.771 16.975 8.271 11.066 12.945 23.612 14.886 37.208.558 3.899.732 7.851 1.082 11.779z" clip-rule="evenodd"/><path fill="#c54d00" fill-rule="evenodd" d="M695.293 416.324c.867-1.93 1.894-3.806 2.578-5.8 6.092-17.771 18.415-30.282 34.077-39.728 6.41-3.867 13.387-6.807 20.179-10.014 1.566-.739 3.416-.988 5.167-1.195 1.53-.18 2.71.638 3.243 2.146.542 1.536-.027 2.843-1.261 3.69-1.14.782-2.49 1.255-3.743 1.875-6.958 3.444-14.082 6.598-20.834 10.409-9.823 5.542-17.534 13.494-23.964 22.708-.27.387-.428.849-.896 1.799 1.167-.391 1.863-.569 2.512-.851 12.949-5.593 26.518-7.056 40.444-6.014 14.909 1.116 29.05 5.069 42.596 11.396 11.386 5.317 21.16 12.683 29.251 22.243 4.836 5.715 8.4 12.15 9.86 19.608 2.121 10.844-.802 20.216-8.401 28.104-7.246 7.52-16.474 11.39-26.434 13.728-2.555.599-4.157-.125-4.925-1.844-.855-1.915.081-3.243 1.283-4.775 7.319-9.333 14.427-18.829 18.235-30.273 2.051-6.162 1.925-12.31-.783-18.276-4.187-9.226-10.433-16.521-19.683-21.072-8.392-4.129-17.118-7.279-26.248-9.254-18.736-4.057-37.001-2.184-54.785 4.73-4.624 1.798-9.103 3.967-13.652 5.958-1.034.452-2.083.868-3.126 1.301-.229-.202-.46-.401-.69-.599z" clip-rule="evenodd"/><path fill="#c54d00" fill-rule="evenodd" d="M783.48 525.002c-3.403-.383-8.817-.942-14.212-1.642-1.088-.142-2.295-.605-3.097-1.314-.64-.568-1.23-1.919-.974-2.592.332-.872 1.432-1.658 2.378-2.023.725-.279 1.721.176 2.6.264 3.654.37 7.337 1.192 10.96.985 6.838-.392 13.642-1.378 20.458-2.128.504-.056.995-.214 1.496-.297 1.659-.272 3.084.058 3.758 1.777.588 1.5-.169 3.04-2.161 3.894-1.613.692-3.36 1.231-5.097 1.449-4.662.585-9.351.962-16.109 1.627z" clip-rule="evenodd"/><path fill="#c54d00" fill-rule="evenodd" d="M793.364 377.526c-.546 3.895-.936 7.819-1.713 11.668-.308 1.519-1.296 3.016-2.312 4.244-.937 1.134-2.428 1.456-3.8.534-1.366-.917-1.546-2.229-.914-3.696 2.164-5.028 2.444-10.361 2.438-15.717-.004-3.132-.656-6.06-3.326-8.174-1.348-1.066-1.834-2.462-.789-4.018.917-1.362 2.633-1.495 4.409-.287 3.804 2.586 5.065 6.549 5.581 10.827.181 1.505.029 3.049.029 4.576l.397.043z" clip-rule="evenodd"/><path fill="#EFECE2" fill-rule="evenodd" d="M650.637 756.328c1.133 1.697 1.801 2.756 2.527 3.774 5.106 7.162 10.061 14.44 15.413 21.415 2.356 3.07 2.609 5.62.815 8.985-5.517 10.346-10.824 20.803-16.177 31.236-6.747 13.151-13.457 26.322-20.188 39.481-.343.67-.738 1.314-1.354 2.404l-20.79-11.633c-.315 1.976-.667 3.29-.714 4.615-.379 10.44-.473 20.898-1.104 31.324-.631 10.414-1.589 20.818-2.762 31.186a531.895 531.895 0 01-4.107 29.1c-.955 5.629-2.515 11.176-4.11 16.67-.772 2.658-2.044 5.235-3.47 7.622-1.513 2.53-3.709 4.118-7.035 3.3-1.006-.248-2.268.031-3.28.415-9.484 3.592-19.316 5.578-29.406 6.087-8.897.449-17.816.759-26.722.674-7.499-.072-14.992-.894-22.302-2.701-2.924-.723-5.732-.793-8.655-.208-4.4.88-4.464.79-6.062-3.667-1.35-.308-2.83-.625-4.299-.989-1.11-.275-2.238-.526-3.301-.937-4.017-1.555-4.281-3.254-.89-6.208-.688-2.142-4.354-3.362-2.286-6.475 1.576-2.373 2.695-5.491 7.27-3.503-.774-1.677-1.29-2.622-1.651-3.622-.445-1.236-.701-2.597.592-3.466 1.32-.888 2.387-.101 3.35.864 1.438 1.439 2.864 2.895 4.379 4.249 1.55 1.387 3.255 1.606 5.309.873 9.907-3.539 20.214-5.005 30.663-5.688 1.204-.079 2.389-.441 3.949-.744-.384-1.628-.602-2.849-.96-4.026-11.325-37.158-22.668-74.311-33.999-111.467-11.257-36.912-22.475-73.836-33.804-110.726-1.075-3.5-2.717-6.842-4.288-10.166-1.386-2.934-.529-4.975 1.755-7.042 13.137-11.894 26.187-23.885 39.276-35.832 19.68-17.964 39.375-35.911 59.049-53.882 3.897-3.56 4.797-3.742 9.458-1.463 6.593 3.224 12.266 7.761 17.716 12.582 11.78 10.423 22.276 22.061 32.054 34.353 15.517 19.51 29.452 40.052 40.141 62.646 2.391 5.053 4.333 10.334 6.219 15.605 1.507 4.212.841 5.158-2.95 7.225-4.338 2.363-8.537 4.976-13.269 7.76zm-46.623 98.359l-.7.143c.108.535.218 1.069.327 1.603l.449-.069-.076-1.677z" clip-rule="evenodd"/><path fill="#EFECE2" fill-rule="evenodd" d="M448.267 510.787l-8.575.862-.191-.547c3.445-1.325 6.884-2.667 10.338-3.972 3.677-1.388 4.899-3.029 4.549-6.859-.403-4.416-2.98-9.536-8.606-11.026-1.393-.369-2.932-.187-4.387-.257.865-3.59 2.219-4.783 5.762-4.979 9.913-.549 19.851-.824 29.733-1.712 12.836-1.153 25.682-1.343 38.549-1.486 14.146-.159 28.288-.572 42.433-.874 9.811-.209 19.621-.408 29.431-.631 13.123-.299 26.244-.672 39.369-.9 4.126-.071 7.654-1.036 10.644-4.157 3.959-4.131 8.312-7.884 12.335-11.957 2.466-2.498 4.984-4.763 8.55-5.417 6.192-1.136 10.143-4.995 13.644-10.036 7.412-10.675 15.244-21.061 22.993-31.5.867-1.166 2.167-2.237 3.499-2.795 9.907-4.139 20.167-6.916 30.861-8.276a135.94 135.94 0 0129.336-.553c14.187 1.272 27.862 4.618 40.331 11.883 5.231 3.048 9.873 6.811 13.543 11.646 3.894 5.13 6.11 10.877 5.636 17.426-.089 1.228-.488 2.487-.994 3.621-.975 2.188-2.273 4.235-3.185 6.446-5.882 14.267-14.181 27.074-23.691 39.124-11.535 14.618-23.54 28.825-36.911 41.841-11.447 11.142-23.854 21.084-36.583 30.709-11.038 8.349-22.574 15.72-35.213 21.376-2.213.99-4.16 1.131-6.58.589-5.072-1.136-10.268-1.737-15.424-2.479-8.179-1.179-16.366-2.295-24.551-3.438-8.309-1.16-16.619-2.311-24.928-3.479-8.308-1.168-16.612-2.367-24.922-3.524-8.185-1.142-16.376-2.235-24.563-3.374-8.057-1.121-16.109-2.276-24.164-3.41-8.183-1.154-16.366-2.304-24.55-3.449-2.769-.387-5.555-.677-8.31-1.144-5.153-.873-10.161-.481-14.989 1.555-3.755 1.584-7.412 3.414-11.216 4.865-7.558 2.882-15.461 3.271-23.351 2.16-5.9-.83-10.544-4.284-14.421-8.736-6.247-7.171-9.71-15.543-10.206-24.999-.164-3.121.54-6.314 1.07-9.437.464-2.733 2.078-4.499 4.506-6.163 4.386-3.008 8.258-6.769 12.313-10.253.336-.284.425-.856 1.086-2.284zm107.932-24.774l-.117.431h9.43v-.431h-9.313z" clip-rule="evenodd"/><path fill="#EFECE2" fill-rule="evenodd" d="M701.359 276.11c2.055-.615 4.119-1.198 6.161-1.851 3.442-1.099 4.556-.232 4.747 3.429.061 1.192.452 2.52 1.116 3.498 2.497 3.679 5.774 6.435 10.161 7.646 11.29 3.116 21.655 1.224 31.032-5.82 4.57-3.431 9.961-5.136 15.343-6.199 4.779-.945 8.983 1.648 11.924 5.482 3.576 4.662 4.939 9.849 3.26 15.801-2.604 9.236-8.273 15.338-17.432 18.12-1.708.519-2.584 1.183-3.303 3.045-2.067 5.354-1.732 11.024-2.804 16.49-.416 2.117-.606 4.28-.875 6.423-.229 1.83-1.166 3.114-2.946 3.608-13.08 3.633-22.96 12.375-33.084 20.715a499.643 499.643 0 00-12.802 10.908c-1.801 1.588-3.41 3.403-5.031 5.184-1.087 1.194-2.319 1.646-3.732.849-1.421-.802-1.744-2.139-1.16-3.636 3.072-7.878 2.533-16.274 3.466-24.454.271-2.364.853-5.343-.251-7.029-1.075-1.641-4.129-1.984-6.312-2.9-10.986-4.61-19.21-12.35-25.211-22.511-3.125-5.292-5.511-10.923-6.47-17.049-.311-1.986-1.344-3.039-3.13-3.908-2.483-1.207-5.068-2.507-7.057-4.36-3.156-2.94-2.455-5.898 1.416-7.877.678-.347 1.409-.59 2.099-.917 6.976-3.303 11.471-8.389 13.149-16.224 2.036-9.502 6.08-18.368 10.392-27.035 1.323-2.66 3.639-4.865 5.7-7.092.508-.549 2.135-.812 2.655-.42.754.567 1.461 1.943 1.299 2.809-.242 1.292-1.137 2.532-1.964 3.637-4.569 6.096-5.725 12.903-4.341 20.251 1.336 7.117 6.273 11.029 13.985 11.387z" clip-rule="evenodd"/><path fill="#EFECE2" fill-rule="evenodd" d="M688.319 889.226c.598-5.563 1.158-11.13 1.811-16.686.325-2.761.92-3.119 3.822-2.55 5.989 1.174 11.973 2.377 17.958 3.571 7.605 1.518 15.204 3.08 22.822 4.528 2.273.432 4.017 1.426 5.277 3.379 1.035 1.605 2.027 3.292 3.339 4.653 2.819 2.924 1.979 6.048.87 9.251-.476 1.369-1.499 1.881-2.94 1.972-7.619.481-15.24.967-22.85 1.579-6.209.498-12.418 1.063-18.596 1.844-1.778.225-3.248.118-4.691-.855-.211-.142-.444-.25-.663-.38-6.512-3.903-6.027-1.961-6.159-10.306z" clip-rule="evenodd"/><path fill="#EFECE2" fill-rule="evenodd" d="M691.904 929.944c-.613-3.352-1.242-6.57-1.781-9.801-.798-4.793 1.692-8.622 3.945-12.436.439-.743 1.908-1.146 2.941-1.23 10.63-.873 21.271-1.62 31.903-2.464 3.758-.299 7.501-.769 11.998-1.239-1.611 2.732-2.761 4.971-4.182 7.021-2.171 3.132-4.635 6.064-6.775 9.216-1.637 2.41-3.945 3.506-6.601 4.12a9797.521 9797.521 0 01-29.686 6.803c-.353.08-.74.01-1.762.01z" clip-rule="evenodd"/><path fill="#EFECE2" fill-rule="evenodd" d="M691.949 862.999c2.188-11.629 6.061-22.155 10.945-33.324l29.853 41.722-.466.604-40.332-9.002z" clip-rule="evenodd"/><path fill="#EFECE2" fill-rule="evenodd" d="M668.728 884.348c-4.582-1.792-4.66-1.794-4.584-6.08.357-19.946 4.23-39.179 12.078-57.54 2.143-5.014 4.762-9.824 7.192-14.712.207-.417.64-.722 1.386-1.535 1.585 2.255 3.277 4.161 4.322 6.373.458.969-.119 2.709-.71 3.848-6.855 13.176-12.063 26.987-15.217 41.471-1.89 8.68-2.83 17.567-4.196 26.361-.077.495-.148.991-.271 1.814z" clip-rule="evenodd"/><path fill="#EFECE2" fill-rule="evenodd" d="M604.014 854.687l.075 1.677c-.15.022-.299.046-.449.069l-.327-1.603.701-.143z" clip-rule="evenodd"/><path fill="#EFECE2" fill-rule="evenodd" d="M556.199 486.013h9.313v.431h-9.43l.117-.431z" clip-rule="evenodd"/><path fill="#002300" fill-rule="evenodd" d="M834.972 215.97c2.016-4.207 3.848-7.93 5.586-11.695 1.067-2.311 1.744-4.832 3.019-7.012 7.113-12.148 14.957-23.769 26.003-32.781 11.676-9.526 23.926-18.262 37.155-25.514 4.338-2.377 8.991-4.191 13.544-6.161 1.147-.496 2.455-.771 3.706-.837 1.367-.073 2.68.628 2.785 2.066.071.979-.443 2.206-1.103 2.974-.609.709-1.738 1.002-2.673 1.396-19.504 8.184-36.539 20.26-52.407 33.973-9.242 7.985-15.69 18.375-21.969 28.76-.701 1.162-1.126 2.49-1.68 3.742l.629.508 2.556-2.839c30.591-34 67.465-58.416 110.989-72.63 9.729-3.177 19.74-5.093 29.989-5.52 6.923-.288 13.765.284 20.328 2.726 10.96 4.076 16.67 12.286 16.705 23.939.006 1.897.001 3.794.001 5.943 2.472.318 4.879.482 7.223.958 7.418 1.503 14.47 4.106 21.097 7.735 12.175 6.67 16.674 18.344 12.187 31.914-3.074 9.296-8.708 16.947-16.141 23.29-1.422 1.213-2.824 2.45-4.563 3.96 1.414.721 2.373 1.278 3.384 1.715 9.88 4.271 17.582 10.988 23.583 19.958 5.597 8.363 6.802 17.381 5.535 27.044-2.711 20.688-18.478 32.798-35.926 36.227-8.316 1.634-16.725 1.762-25.147 1.311-26.809-1.439-53.187-5.605-79.19-12.315-20.906-5.393-41.291-12.153-60.665-21.776-.428-.212-.887-.361-1.594-.134.861.566 1.678 1.219 2.592 1.681 5.685 2.874 11.399 5.685 17.082 8.562 1.242.627 2.618 1.232 3.506 2.228.624.697.971 2.231.623 3.04-.346.803-1.676 1.518-2.646 1.624-1.056.117-2.237-.4-3.287-.831-12.196-4.995-23.766-11.158-34.37-19.008-2.647-1.96-4.913-4.436-7.351-6.679-1.585-1.458-3.165-2.924-4.706-4.35-2.3.538-3.81 1.287-4.474 3.719-7.022 25.721-24.366 41.405-48.994 49.804-7.393 2.52-15.065 3.788-22.9 3.927-4.211.075-5.836-.805-5.828-3.174.008-2.279 1.582-3.267 5.846-3.381 11.14-.294 21.718-2.907 31.624-7.947 15.894-8.086 27.733-20.044 32.927-37.391 6.336-21.163 1.013-39.848-13.924-55.756-11.228-11.958-25.42-18.517-41.529-20.994-10.848-1.668-21.602-1.033-32.234 1.714-1.094.282-2.26.551-3.363.459-1.52-.125-2.825-1.144-2.768-2.657.039-1.052.915-2.262 1.755-3.034.683-.627 1.854-.756 2.832-1.024 30.681-8.418 65.819 1.625 85.067 26.791.377.492.83.928 1.574 1.752zm20.202 42.068c3.84 1.772 7.551 3.428 11.211 5.187 9.531 4.579 18.872 9.603 28.592 13.733 26.52 11.268 54.259 18.452 82.639 23.018 12.814 2.062 25.79 3.228 38.73 4.369 9.4.83 18.865.876 28.177-1.224 14.181-3.199 26.743-12.907 29.227-29.134 1.136-7.42 1.105-14.71-2.857-21.536-6.246-10.754-15.309-17.886-27.062-21.781-2.104-.698-3.814-.563-5.786.515-14.992 8.198-31.135 10.975-48.031 9.638-5.591-.442-11.147-1.491-16.311-3.813-2.172-.978-4.363-2.232-6.067-3.861-3.701-3.539-3.072-8.672 1.31-11.338 1.697-1.032 3.721-1.786 5.684-2.075 5.666-.836 11.366-1.773 17.073-1.93 8.519-.234 17.089-.265 25.57.438 6.432.534 12.779 2.247 19.121 3.636 2.281.499 4.169.52 6-1.148 3.387-3.089 7.064-5.879 10.297-9.116 4.851-4.856 8.174-10.746 10.169-17.311 2.552-8.398.398-16.031-6.421-20.771-8.082-5.617-17.228-8.723-27.041-9.74-2.891-.3-4.927.59-6.494 3.431-3.321 6.021-8.296 10.321-15.137 12.007-1.823.449-3.795.667-5.659.514-4.139-.341-6.198-3.974-4.408-7.737.693-1.456 1.734-2.896 2.97-3.913 2.25-1.85 4.613-3.682 7.205-4.967 3.404-1.688 7.052-2.907 10.642-4.193 1.433-.514 2.451-1.115 2.723-2.767 1.821-11.066-1.768-19.623-13.307-23.306-6.418-2.047-13.001-2.37-19.668-1.798-9.832.843-19.378 3.042-28.711 6.161-26.268 8.776-49.975 22.298-71.877 39.095-14.532 11.144-27.762 23.635-38.842 38.289-1.291 1.707-2.445 3.516-3.743 5.395.757.507 1.247.916 1.8 1.195 4.44 2.244 7.795 5.686 10.709 9.624 3.777 5.105 4.843 10.595 2.298 16.56-1.492 3.488-3.075 6.94-4.725 10.654zm116.381-29.941c1.441.996 2.358 1.868 3.448 2.33 2.098.888 4.247 1.741 6.456 2.266 15.995 3.805 31.54 1.972 46.717-3.968.607-.237 1.111-.738 1.814-1.219-11.434-4.798-49.561-4.608-58.435.591zm34.861-55.621c3.13-.494 5.835-1.718 8.174-4.965-3.635 1.015-6.282 2.34-8.174 4.965z" clip-rule="evenodd"/><path fill="#002300" fill-rule="evenodd" d="M703.095 274.352c-.382-3.642-.878-7.278-1.113-10.929-.23-3.586.146-7.129 1.627-10.482 2.817-6.383 9.388-7.491 14.201-2.38 5.777 6.133 5.624 16.526-.396 22.97-1.292 1.383-2.774 2.586-4.146 3.853 4.38 8.375 12.546 12.021 21.964 9.31 4.488-1.293 8.783-3.378 13.004-5.438 3.183-1.553 5.391-4.223 6.45-7.712.219-.725.351-1.719.869-2.058.976-.638 2.268-1.314 3.307-1.16.822.123 1.911 1.385 2.076 2.288.237 1.297-.05 2.795-.479 4.087-1.202 3.622-3.5 6.582-6.625 8.671-6.634 4.435-13.823 7.582-21.852 8.536-7.776.925-14.317-1.56-19.729-7.11-1.858-1.906-3.561-3.963-5.524-6.162-8.647 2.09-16.551 1.021-22.673-6.444-5.738-6.998-6.528-14.972-4.603-23.784-1.468-.13-2.566-.231-3.666-.324-4.009-.337-7.76-1.42-11.059-3.813-6.947-5.038-8.633-13.268-4.216-20.631.519-.865 1.1-1.694 1.771-2.719-1.162-.883-2.277-1.697-3.356-2.555-6.87-5.462-7.561-13.975-1.631-20.442 3.527-3.848 7.957-5.77 13.143-6.215 9.213-.79 18.012.916 26.591 4.131 1.142.429 2.302.807 3.941 1.378-.323-1.866-.568-3.21-.786-4.559-.437-2.695-.322-5.351.835-7.865.686-1.49 1.775-2.636 3.583-2.158 1.817.479 2.426 2.071 1.956 3.626-1.766 5.854 1.376 10.641 3.218 15.695.312.855 1.368 1.427 2.048 2.162 2.846 3.075 5.797 6.064 8.449 9.298.885 1.08 1.385 2.816 1.318 4.217-.046.956-1.225 2.267-2.194 2.633-.695.263-2.406-.52-2.769-1.269-3.811-7.885-10.714-12.128-18.237-15.499-8.827-3.953-18.037-6.247-27.854-5.201-3.758.401-6.863 1.883-9.126 4.916-2.429 3.253-2.067 6.905 1.029 9.533 1.345 1.14 2.99 1.922 4.47 2.909 1.795 1.197 3.569.757 5.47.215 7.874-2.248 15.834-2.687 23.755-.365 2.409.707 4.825 1.775 6.889 3.188 4.139 2.833 3.509 7.55-1.138 9.521-1.146.484-2.446.693-3.697.824-8.54.896-16.748-.605-24.761-3.508-1.945-.703-3.915-2.279-5.961-.132-2.254 2.367-3.502 5.179-2.557 8.349.513 1.72 1.716 3.454 3.07 4.666 3.362 3.008 7.546 3.587 11.843 2.817 1.073-.193 2.213-1.214 2.897-2.161 3.023-4.188 7.239-5.875 12.178-6.119 2.443-.121 4.029.866 4.55 2.653.608 2.086-.524 3.494-2.104 4.479-2.588 1.614-5.211 3.218-7.97 4.501-1.962.913-3.094 2.241-3.325 4.259-.388 3.404-1.08 6.865-.808 10.234.778 9.6 8.997 15.54 17.853 13.275zm7.982-20.319c-3.298 3.757-3.769 12.149-.923 17.013 3.977-2.293 5.476-5.95 5.359-10.208-.08-2.984-1.227-5.685-4.436-6.805zm-27.623-31.667c3.879 2.5 8.258 2.873 11.663 1.189-4.467-.454-8.065-.822-11.663-1.189z" clip-rule="evenodd"/><path fill="#002300" fill-rule="evenodd" d="M433.872 541.779c2.083-2.198 3.781-4.055 5.549-5.839a266.177 266.177 0 016.298-6.139c.736-.695 1.545-1.35 2.422-1.847 1.862-1.058 3.5-.807 4.408.591 1.062 1.636.336 2.88-.947 3.983-6.023 5.179-11.177 11.149-15.958 17.465-.529.699-1.153 1.404-1.888 1.851-1.729 1.053-4.066.153-4.036-1.814.036-2.346-1.363-3.864-2.059-5.774-1.812-4.966-2.476-10.138-.337-15.298 2.251-5.431 5.566-9.981 10.509-13.286 4.131-2.761 8.279-5.507 12.297-8.427 7.455-5.419 15.821-7.769 24.939-8.402 20.153-1.4 40.256.319 60.382.521 16.054.161 32.112.006 48.167-.083 6.884-.04 13.766-.244 20.646-.428 3.056-.082 6.107-.341 9.163-.443 3.404-.113 6.516-1.14 9.381-2.909 7.35-4.537 13.649-10.27 18.764-17.208 4.989-6.769 9.733-13.718 14.601-20.577.437-.616.894-1.441 1.516-1.651 1.002-.338 2.368-.65 3.172-.217.804.433 1.581 1.83 1.515 2.744-.093 1.305-.761 2.697-1.536 3.806-5.187 7.413-10.235 14.941-15.79 22.073-4.709 6.047-10.489 11.113-16.877 15.42-4.876 3.288-10.186 5.072-16.126 5.179-20.391.365-40.778 1.067-61.17 1.182-12.352.069-24.707-.882-37.064-1.061-13.635-.199-27.277-.19-40.911.048-5.087.089-9.744 1.943-14.435 4.294-6.241 3.128-11.191 7.907-17.047 11.455-3.111 1.885-5.185 4.831-6.947 7.998-2.185 3.93-2.47 7.941-.601 12.793z" clip-rule="evenodd"/><path fill="#002300" fill-rule="evenodd" d="M602.204 850.456c-.386-14.661-.757-29.321-1.162-43.98-.216-7.775-.392-15.554-.79-23.32-.136-2.643.726-4.276 2.962-5.629 19.307-11.679 38.569-23.431 57.851-35.15a11.65 11.65 0 012.051-1.009c1.532-.561 2.762-.009 3.653 1.262.947 1.352.722 2.761-.389 3.824-.999.954-2.225 1.693-3.416 2.418-17.421 10.607-34.821 21.252-52.318 31.735-2.734 1.639-3.766 3.406-3.654 6.666.738 21.665 1.216 43.337 1.832 65.007.618 21.668 1.301 43.333 1.944 65.001.038 1.273.109 2.572-.094 3.816-.271 1.673-1.337 2.808-3.111 2.827-1.766.019-2.81-1.081-3.2-2.74-.172-.735-.168-1.519-.189-2.281-.276-9.816-.538-19.63-.814-29.446-.366-13-.74-26.001-1.111-39.002l-.045.001z" clip-rule="evenodd"/><path fill="#002300" fill-rule="evenodd" d="M717.913 673.048c-1.817.596-3.265 1-4.659 1.541-9.742 3.771-18.278 9.542-26.187 16.232-8.07 6.826-15.928 13.905-23.887 20.865-.569.498-1.182 1.284-1.803 1.313-1.157.054-2.569-.024-3.448-.648-1.188-.843-.915-2.282-.049-3.413.617-.806 1.285-1.598 2.043-2.268 9.926-8.763 19.628-17.806 29.892-26.156 8.343-6.788 17.904-11.691 28.419-14.428 1.621-.422 2.64-1.189 3.437-2.662 3.802-7.032 8.979-12.967 14.954-18.222 3.157-2.776 6.296-5.585 9.602-8.177 6.994-5.483 11.924-12.481 15.552-20.496.418-.925.831-1.869 1.388-2.711.856-1.296 2.119-1.865 3.639-1.346 1.562.535 2.11 1.83 1.889 3.349a12.108 12.108 0 01-.966 3.274c-3.636 7.955-8.196 15.248-15.029 20.923-3.725 3.092-7.509 6.136-11.006 9.473-3.583 3.42-6.881 7.143-10.231 10.799-.812.887-1.339 2.034-2.241 3.441 1.313.268 2.137.438 2.961.602.374.075.759.106 1.127.202 5.664 1.471 9.645 6.497 9.2 11.607-.465 5.362-5.68 9.957-11.604 10.224-7.422.337-11.975-3.67-12.688-11.162-.047-.496-.138-.986-.305-2.156zm12.714 6.729c.335-.064 1.262-.081 2.049-.421 1.702-.732 3.063-1.941 3.192-3.904.136-2.048-1.212-3.521-2.943-3.965-2.009-.517-4.202-.425-6.309-.368-.527.014-1.274.813-1.506 1.412-1.517 3.909.834 7.279 5.517 7.246z" clip-rule="evenodd"/><path fill="#002300" fill-rule="evenodd" d="M720.836 352.003c-18.301-.753-33.686-8.085-46.646-20.837-.625-.614-1.446-1.396-1.494-2.144-.073-1.144.165-2.518.79-3.441.779-1.153 2.247-1.232 3.44-.445 1.051.692 1.979 1.589 2.898 2.464 9.587 9.125 20.821 15.065 33.909 17.224 6.737 1.112 13.467.945 19.999-1.442.833-.304 1.786-.836 2.541-.658 1.124.263 2.461.821 3.089 1.697.885 1.232.443 2.767-.792 3.742-.779.616-1.743 1.056-2.688 1.392-4.853 1.722-9.85 2.597-15.046 2.448z" clip-rule="evenodd"/><path fill="#002300" fill-rule="evenodd" d="M796.446 275.48c-1.46-.12-2.112-.093-2.722-.24-1.574-.377-2.915-1.098-2.986-2.962-.072-1.858 1.047-2.752 2.75-3.067 12.881-2.387 24.558-8.176 36.596-12.945 1.182-.468 2.342-1.008 3.556-1.367 1.466-.435 2.909-.224 3.583 1.308.72 1.64.025 2.967-1.462 3.879-.433.266-.88.519-1.347.713-10.211 4.244-20.399 8.545-30.657 12.67-2.568 1.031-5.365 1.489-7.311 2.011z" clip-rule="evenodd"/><path fill="#002300" fill-rule="evenodd" d="M751.383 302.757c.931-1.73 1.514-3.312 2.504-4.573 5.324-6.78 12.632-9.956 20.939-11.198.618-.092 1.277-.054 1.897.046 1.839.3 2.886 1.44 2.799 3.011-.094 1.711-1.255 2.285-2.73 2.677-3.291.875-6.663 1.585-9.796 2.868-3.694 1.511-6.712 4.071-8.769 7.614-.38.654-.74 1.534-1.337 1.8-1.066.474-2.493 1.036-3.417.67-.901-.357-1.363-1.827-2.09-2.915z" clip-rule="evenodd"/><path fill="#002300" fill-rule="evenodd" d="M453.167 539.98c.729.655 1.88 1.291 2.409 2.265.666 1.228.134 2.539-1.142 3.249-5.2 2.897-9.177 7.178-13.148 11.475-1.617 1.75-3.303 2.17-4.63 1.207-1.323-.962-1.675-3.077-.316-4.809 4.04-5.144 9.073-9.221 14.53-12.78.499-.326 1.206-.331 2.297-.607z" clip-rule="evenodd"/><path fill="#002300" fill-rule="evenodd" d="M442.953 566.812c.731-1.33 1.103-2.469 1.841-3.269 3.28-3.548 6.65-7.015 10.029-10.47.514-.525 1.207-.953 1.897-1.213 1.279-.483 2.531-.361 3.434.82 1.053 1.376.599 2.637-.451 3.764-1.3 1.396-2.674 2.724-3.958 4.133-2.484 2.727-4.912 5.503-7.394 8.232-.919 1.009-2.201 1.712-3.382.9-.897-.615-1.346-1.885-2.016-2.897z" clip-rule="evenodd"/><path fill="#002300" fill-rule="evenodd" d="M777.074 198.935c3.035.321 5.814.589 8.584.925.742.09 1.488.324 2.18.615 1.587.664 2.471 1.836 2.015 3.606-.421 1.63-1.755 2.088-3.255 2.031-1.137-.042-2.264-.331-3.401-.399-3.538-.211-7.079-.445-10.621-.515-1.675-.034-3.075-.292-3.604-2.078-.434-1.46.621-2.984 2.7-3.493 1.824-.446 3.745-.494 5.402-.692z" clip-rule="evenodd"/><path fill="#002300" fill-rule="evenodd" d="M816.572 258.001c-2.21-.517-3.699-1.532-3.908-3.027-.206-1.479.789-2.63 3.032-3.282 4.266-1.24 8.549-2.418 12.829-3.609.487-.136.995-.249 1.498-.271 1.386-.059 2.541.36 2.943 1.843.375 1.384-.009 2.787-1.295 3.253-4.993 1.811-10.059 3.413-15.099 5.093z" clip-rule="evenodd"/><path fill="#002300" fill-rule="evenodd" d="M803.017 206.355a32.437 32.437 0 0112.097 5.371c1.156.829 1.386 2.137.792 3.424-.645 1.396-1.951 1.582-3.252 1.27-1.095-.263-2.132-.779-3.182-1.216-2.572-1.069-5.094-2.275-7.718-3.192-1.671-.584-2.719-1.419-2.472-3.249.259-1.916 1.745-2.287 3.735-2.408z" clip-rule="evenodd"/><path fill="#002300" fill-rule="evenodd" d="M798.001 258.949c1.523 0 3.065-.147 4.566.037 1.901.232 2.93 1.452 2.788 3.007-.149 1.646-1.189 2.55-2.751 2.629-2.916.147-5.844.272-8.756.156-2.159-.086-3.339-1.306-3.373-2.916-.036-1.716 1.328-2.84 3.713-2.965 1.268-.066 2.541-.012 3.813-.012v.064z" clip-rule="evenodd"/><path fill="#002300" fill-rule="evenodd" d="M923.569 279.529c-5.813-1.363-11.639-2.673-17.437-4.1-10.511-2.586-20.791-5.873-30.688-10.3-1.552-.695-2.69-1.597-2.176-3.451.479-1.731 1.843-2.368 3.541-2.216a6.71 6.71 0 012.184.602c10.577 4.92 21.953 7.231 33.141 10.142 3.688.959 7.45 1.636 11.174 2.462.992.221 1.994.447 2.946.796 1.575.578 2.642 1.625 2.314 3.454-.333 1.859-1.72 2.356-3.403 2.345-.509-.004-1.019-.001-1.527-.001l-.069.267z" clip-rule="evenodd"/><path fill="#002300" fill-rule="evenodd" d="M883.285 198.654c-.257.47-.565 1.501-1.239 2.16-1.168 1.144-2.549 2.073-3.863 3.064-4.653 3.514-9.365 6.954-13.955 10.547-2.572 2.014-3.951 2.462-5.286 1.182-1.447-1.388-1.035-3.146 1.325-5.516 5.321-5.343 11.479-9.614 17.773-13.686 2.561-1.656 5.076-.71 5.245 2.249z" clip-rule="evenodd"/><path fill="#002300" fill-rule="evenodd" d="M943.358 207.517c1.019 0 2.042-.065 3.055.015 1.553.123 2.698.868 2.875 2.524.203 1.893-1.018 2.77-2.628 3.196-.73.193-1.512.207-2.273.27-5.457.454-10.913.909-16.371 1.345-2.252.18-3.538-.593-3.81-2.226-.262-1.579.73-3.057 2.822-3.468 2.615-.513 5.296-.699 7.953-.978 2.787-.292 5.58-.527 8.369-.787l.008.109z" clip-rule="evenodd"/><path fill="#002300" fill-rule="evenodd" d="M891.109 191.415c-.657-.568-1.711-1.063-2.003-1.846-.301-.805-.084-2 .325-2.815.361-.721 1.271-1.191 1.986-1.706a3301.31 3301.31 0 0112.067-8.619c.514-.366 1.021-.781 1.595-1.016 1.262-.516 2.689-.6 3.378.692.455.853.498 2.198.167 3.125-.358 1.002-1.215 1.988-2.11 2.61-4.265 2.965-8.606 5.822-12.952 8.668-.608.399-1.394.526-2.453.907z" clip-rule="evenodd"/><path fill="#002300" fill-rule="evenodd" d="M878.666 238.979c-1.578.483-2.726-.181-3.131-1.764-.369-1.44.365-2.503 1.592-3.134.894-.459 1.879-.863 2.863-.996 3.78-.514 7.573-.95 11.371-1.318.996-.097 2.041.067 3.037.255 1.531.289 2.565 1.201 2.574 2.84.008 1.513-1.064 2.209-2.378 2.6-.244.072-.491.154-.742.176-5.062.452-10.125.897-15.186 1.341z" clip-rule="evenodd"/><path fill="#002300" fill-rule="evenodd" d="M1031.582 182.794c-2.197-.002-3.442-.809-3.66-2.414-.216-1.599.706-2.995 2.894-3.374 4.737-.825 9.51-1.506 14.295-1.962 2.306-.22 3.46.888 3.575 2.536.117 1.673-.831 2.661-3.144 3.039-4.625.758-9.262 1.448-13.96 2.175z" clip-rule="evenodd"/><path fill="#002300" fill-rule="evenodd" d="M889.005 215.954c2.369-.047 3.773.42 4.17 2.241.363 1.67-.668 2.647-2.057 3.21a521.237 521.237 0 01-11.308 4.432c-1.513.571-2.78.046-3.526-1.376-.699-1.332-.225-2.624.891-3.369 3.819-2.55 7.965-4.381 11.83-5.138z" clip-rule="evenodd"/><path fill="#002300" fill-rule="evenodd" d="M975.746 141.661c.535.055 1.054.04 1.533.17 1.304.356 2.308 1.081 2.438 2.541.134 1.5-.775 2.333-2.06 2.81-1.996.74-4.027 1.388-6.007 2.167-1.557.612-2.8.192-3.595-1.13-.714-1.189-.499-2.495.573-3.443 2.035-1.8 4.402-2.899 7.118-3.115z" clip-rule="evenodd"/><path fill="#002300" fill-rule="evenodd" d="M980.478 281.025c-1.497.028-2.676-1.063-2.718-2.515-.049-1.682 1.414-3.119 3.111-3.055 1.452.054 2.622 1.282 2.563 2.687-.062 1.474-1.478 2.856-2.956 2.883z" clip-rule="evenodd"/><path fill="#002300" fill-rule="evenodd" d="M948.208 154.875c.091 1.394-1.075 2.664-2.525 2.75-1.525.09-2.695-.947-2.768-2.453-.072-1.479 1.019-2.708 2.468-2.78 1.406-.069 2.734 1.099 2.825 2.483z" clip-rule="evenodd"/><path fill="#FFF" d="M605.039 512.627c1.652-.075 3.31-.271 4.954-.198 1.693.075 2.929 1.001 3.152 2.772.225 1.779-.804 2.973-2.374 3.482-1.437.466-2.977.693-4.489.836-17.121 1.632-34.246 3.222-51.368 4.84-1.646.156-3.278.55-4.925.607-2.139.074-3.411-.944-3.628-2.603-.216-1.644.774-3.091 2.855-3.425a344.833 344.833 0 0115.521-2.135c11.647-1.332 23.305-2.573 34.962-3.824 1.771-.188 3.559-.239 5.34-.352z"/><path fill="#FFF" d="M660.093 479.741c-2.65.062-4.129-1.911-3.392-3.947.422-1.165 1.148-2.28 1.954-3.234 3.522-4.176 7.119-8.29 10.699-12.417 3.83-4.417 7.655-8.84 11.519-13.227 1.088-1.235 2.215-2.472 3.494-3.494 1.176-.941 2.617-1.042 3.868-.011 1.261 1.038 1.401 2.484.69 3.803-.837 1.552-1.841 3.06-3.003 4.385-4.189 4.776-8.484 9.459-12.723 14.192-3.56 3.973-7.071 7.991-10.664 11.934-.812.892-1.875 1.556-2.442 2.016z"/><path fill="#FFF" d="M423.476 520.91c-.605.524-1.388 1.758-2.405 1.997-11.038 2.597-19.697 9.208-28.072 16.336-.484.411-.953.853-1.483 1.197-1.199.779-2.62.881-3.495-.18-.713-.863-1.292-2.317-1.085-3.338.256-1.262 1.176-2.58 2.171-3.47 7.872-7.057 16.913-12.224 26.771-15.93 1.565-.589 3.511-.462 5.231-.254 1.523.182 2.329 1.425 2.367 3.642z"/><path fill="#FFF" d="M749.031 220.702c.131 3.071-1.991 4.681-4.066 3.768-1.015-.446-1.93-1.222-2.745-2.001-6.724-6.422-13.567-12.69-21.558-17.558-.639-.389-1.223-.929-1.7-1.507-.99-1.2-1.214-2.547-.192-3.833.985-1.242 2.275-1.597 3.729-.82 1.008.54 1.984 1.141 2.959 1.738 7.522 4.605 14.286 10.188 20.647 16.259 1.328 1.268 2.226 2.988 2.926 3.954z"/><path fill="#FFF" d="M488.921 757.385c-.027-2.25.888-3.577 2.546-3.818 1.673-.243 2.838.642 3.491 2.772a5562.954 5562.954 0 017.452 24.49c.33 1.091.623 2.22.724 3.349.15 1.689-.487 3.037-2.268 3.497-1.719.443-2.983-.29-3.834-1.771a8.26 8.26 0 01-.766-1.745 3467.268 3467.268 0 01-6.717-23.128c-.347-1.219-.438-2.51-.628-3.646z"/><path fill="#FFF" d="M605.274 630.513c.17 3.168-2.188 4.817-4.388 3.737-.873-.428-1.625-1.218-2.266-1.983-5.244-6.267-11.528-11.077-19.26-13.872-1.527-.552-2.307-1.572-2.143-3.173.186-1.804 1.441-2.703 3.083-2.834.959-.075 2.023.231 2.933.619 7.222 3.077 13.682 7.317 19.037 13.087 1.347 1.449 2.259 3.302 3.004 4.419z"/><path fill="#FFF" d="M480.843 717.664c.334-7.572 3.183-13.444 8.605-18.041 1.907-1.617 3.764-1.733 5.131-.439 1.348 1.276 1.218 3.152-.432 5.052-.831.956-1.756 1.83-2.662 2.717-2.891 2.827-3.826 6.483-4.371 10.299-.125.876-.053 1.792-.256 2.644-.358 1.504-1.323 2.475-2.947 2.458-1.619-.017-2.575-.99-2.899-2.509-.181-.857-.14-1.763-.169-2.181z"/><path fill="#FFF" d="M732.518 392.84c-2.385-.103-3.747-2.155-2.755-4.155.646-1.302 1.737-2.622 2.973-3.353 5.037-2.975 10.181-5.771 15.341-8.529 1.437-.769 2.999-.725 4.109.77.941 1.268.687 3.063-.935 4.373-1.667 1.346-3.558 2.432-5.412 3.529a755.487 755.487 0 01-11.518 6.646c-.641.363-1.381.554-1.803.719z"/><path fill="#FFF" d="M493.996 519.775c-.354.463-.871 1.523-1.713 2.134-1.002.728-2.263 1.131-3.45 1.569-2.983 1.101-5.998 2.117-8.981 3.217-2.312.852-3.796.546-4.643-1.056-.823-1.56-.336-3.446 1.836-4.376a129.809 129.809 0 0113.243-4.817c2.124-.647 3.694.793 3.708 3.329z"/><path fill="#FFF" d="M511.886 961.343c.658-.038 1.513-.323 2.156-.071.976.383 2.252.965 2.571 1.786.326.834-.056 2.285-.65 3.07-1.51 1.999-5.657 2.436-7.729 1.042-1.323-.889-1.725-2.168-1.35-3.665.384-1.533 1.409-2.385 3.012-2.4.631-.006 1.261.146 1.99.238z"/><path fill="#FFF" d="M642.042 496.137c2.623-.111 4.012 1.631 3.49 3.611-.58 2.202-2.028 3.907-4.186 4.514-.987.278-2.531-.176-3.355-.861-1.225-1.017-1.009-2.605.075-3.722 1.373-1.413 2.942-2.634 3.976-3.542z"/><path fill="#FFF" d="M665.469 289.13c1.709-.071 2.918 1.006 2.995 2.67.098 2.11-2.506 5.501-4.288 5.584-1.705.08-3.219-1.551-3.227-3.473-.008-2.261 2.286-4.687 4.52-4.781z"/><path fill="#FFF" d="M756.166 233.694c1.717.062 3.223 2.012 3.122 4.043-.089 1.789-1.485 3.198-3.107 3.135-1.798-.07-3.203-1.912-3.077-4.032.11-1.849 1.431-3.205 3.062-3.146z"/><path fill="#FFF" d="M628.184 511.661c-.028 1.766-1.927 3.317-3.957 3.231-1.771-.074-3.213-1.464-3.189-3.074.026-1.814 1.822-3.254 3.961-3.177 1.868.067 3.212 1.343 3.185 3.02z"/><path fill="#FFF" d="M526.049 676.555c-2.107-.074-3.535-1.386-3.462-3.18.066-1.632 1.541-2.933 3.323-2.931 2.05.001 3.84 1.7 3.673 3.486-.152 1.628-1.586 2.695-3.534 2.625z"/><path fill="#FFF" d="M377.581 552.774c1.543-.01 2.955 1.502 3.035 3.25.088 1.934-1.287 3.515-3.079 3.544-1.739.026-2.996-1.284-3-3.126-.004-1.962 1.403-3.658 3.044-3.668z"/><path fill="#FFF" d="M635.972 676.302c-1.683.001-3.363-1.771-3.314-3.497.043-1.536 1.415-2.902 2.926-2.912 1.73-.013 3.338 1.69 3.29 3.484-.041 1.547-1.407 2.923-2.902 2.925z"/><path fill="#FFF" d="M623.33 652.456c-.014 1.7-1.214 2.885-2.893 2.855-1.661-.029-3.157-1.489-3.233-3.157-.079-1.719 1.436-3.208 3.138-3.086 1.628.118 3.002 1.675 2.988 3.388z"/><path fill="#FFF" d="M508.577 686.313c1.61.046 2.902 1.305 2.91 2.835.009 1.655-1.462 2.96-3.255 2.887-1.712-.069-2.923-1.235-2.908-2.803.015-1.663 1.471-2.97 3.253-2.919z"/></svg>