<svg xmlns="http://www.w3.org/2000/svg" version="1.0" viewBox="0 0 1133.859 1133.858"><path fill="#4d88ff" d="M246.336,189.804v13.115h-13.112c-1.683,0-3.047,1.364-3.047,3.05c0,1.682,1.365,3.047,3.047,3.047h13.112 v13.117c0,1.682,1.37,3.047,3.052,3.047c1.684,0,3.05-1.365,3.05-3.047v-13.117h13.114c1.683,0,3.05-1.365,3.05-3.047 c0-1.686-1.367-3.05-3.05-3.05h-13.114v-13.115c0-1.685-1.366-3.05-3.05-3.05C247.706,186.754,246.336,188.12,246.336,189.804z"/><path fill="#4d88ff" d="M340.971,386.643v13.112h-13.118c-1.677,0-3.046,1.37-3.046,3.048c0,1.687,1.369,3.051,3.046,3.051h13.118 v13.117c0,1.682,1.366,3.047,3.052,3.047c1.682,0,3.047-1.365,3.047-3.047v-13.117h13.117c1.682,0,3.048-1.364,3.048-3.051 c0-1.678-1.366-3.048-3.048-3.048h-13.117v-13.112c0-1.683-1.365-3.048-3.047-3.048 C342.336,383.595,340.971,384.96,340.971,386.643z"/><path fill="#4d88ff" d="M561.34,412.824v13.112h-13.118c-1.677,0-3.046,1.37-3.046,3.048c0,1.687,1.369,3.051,3.046,3.051h13.118 v13.117c0,1.682,1.366,3.047,3.052,3.047c1.682,0,3.047-1.365,3.047-3.047v-13.117h13.117c1.682,0,3.048-1.364,3.048-3.051 c0-1.678-1.366-3.048-3.048-3.048h-13.117v-13.112c0-1.683-1.365-3.048-3.047-3.048C562.706,409.776,561.34,411.141,561.34,412.824 z"/><path fill="#4d88ff" d="M341.825,241.497v13.115h-13.113c-1.682,0-3.051,1.367-3.051,3.049c0,1.684,1.369,3.049,3.051,3.049h13.113 v13.115c0,1.682,1.368,3.05,3.052,3.05c1.682,0,3.046-1.368,3.046-3.05v-13.115h13.118c1.682,0,3.047-1.365,3.047-3.049 c0-1.682-1.366-3.049-3.047-3.049h-13.118v-13.115c0-1.682-1.365-3.047-3.046-3.047 C343.193,238.45,341.825,239.815,341.825,241.497z"/><path fill="#4d88ff" d="M621.91,380.575v13.115h-13.113c-1.682,0-3.051,1.367-3.051,3.049c0,1.684,1.37,3.049,3.051,3.049h13.113 v13.115c0,1.682,1.368,3.05,3.052,3.05c1.682,0,3.046-1.368,3.046-3.05v-13.115h13.118c1.682,0,3.047-1.365,3.047-3.049 c0-1.682-1.366-3.049-3.047-3.049h-13.118v-13.115c0-1.682-1.365-3.047-3.046-3.047C623.277,377.528,621.91,378.893,621.91,380.575 z"/><path fill="#4d88ff" d="M264.081,445.151v-13.112h13.118c1.677,0,3.046-1.37,3.046-3.048c0-1.687-1.369-3.051-3.046-3.051h-13.118 v-13.117c0-1.682-1.366-3.047-3.052-3.047c-1.682,0-3.047,1.365-3.047,3.047v13.117h-13.117c-1.682,0-3.048,1.364-3.048,3.051 c0,1.678,1.366,3.048,3.048,3.048h13.117v13.112c0,1.683,1.365,3.048,3.047,3.048C262.715,448.199,264.081,446.833,264.081,445.151 z"/><path fill="#4d88ff" d="M298.713,298.287h-7.041v-7.039c0-0.903-0.732-1.636-1.637-1.636c-0.903,0-1.636,0.733-1.636,1.636v7.039 h-7.041c-0.903,0-1.636,0.735-1.636,1.638c0,0.904,0.732,1.637,1.636,1.637h7.041v7.04c0,0.903,0.733,1.637,1.636,1.637 c0.905,0,1.637-0.734,1.637-1.637v-7.04h7.041c0.904,0,1.637-0.733,1.637-1.637C300.35,299.022,299.617,298.287,298.713,298.287z"/><path fill="#4d88ff" d="M721.722,453.143h-7.041v-7.039c0-0.903-0.732-1.636-1.637-1.636c-0.903,0-1.636,0.733-1.636,1.636v7.039 h-7.041c-0.903,0-1.636,0.735-1.636,1.638c0,0.904,0.732,1.637,1.636,1.637h7.041v7.04c0,0.903,0.733,1.637,1.636,1.637 c0.905,0,1.637-0.734,1.637-1.637v-7.04h7.041c0.904,0,1.637-0.733,1.637-1.637C723.359,453.878,722.626,453.143,721.722,453.143z"/><path fill="#4d88ff" d="M193.046,349.088h-7.039v-7.042c0-0.9-0.736-1.635-1.637-1.635c-0.905,0-1.637,0.735-1.637,1.635v7.042 h-7.042c-0.903,0-1.636,0.733-1.636,1.639c0,0.903,0.733,1.635,1.636,1.635h7.042v7.042c0,0.903,0.732,1.636,1.637,1.636 c0.901,0,1.637-0.733,1.637-1.636v-7.042h7.039c0.903,0,1.636-0.732,1.636-1.635C194.683,349.822,193.95,349.088,193.046,349.088z"/><path fill="#4d88ff" d="M270.964,349.547h-7.041v-7.04c0-0.903-0.733-1.638-1.637-1.638s-1.636,0.735-1.636,1.638v7.04h-7.041 c-0.903,0-1.637,0.734-1.637,1.638c0,0.903,0.734,1.635,1.637,1.635h7.041v7.042c0,0.902,0.733,1.636,1.636,1.636 s1.637-0.733,1.637-1.636v-7.042h7.041c0.902,0,1.635-0.732,1.635-1.635C272.599,350.282,271.866,349.547,270.964,349.547z"/><path fill="#4d88ff" d="M161.639,307.813h7.039v7.042c0,0.9,0.735,1.635,1.636,1.635c0.905,0,1.638-0.734,1.638-1.635v-7.042h7.042 c0.903,0,1.636-0.733,1.636-1.638c0-0.903-0.733-1.636-1.636-1.636h-7.042v-7.042c0-0.903-0.732-1.636-1.638-1.636 c-0.9,0-1.636,0.733-1.636,1.636v7.042h-7.039c-0.903,0-1.636,0.733-1.636,1.636C160.002,307.08,160.735,307.813,161.639,307.813z"/><path fill="#16a34a" d="M495.835,987.794c-0.468,8.379-1.387,16.171-2.726,23.211c-0.017,0.051-0.017,0.118-0.034,0.168 c-2.157,11.354-5.384,20.786-9.666,27.826c-4.398,7.257-9.899,11.958-16.421,13.512c-4.549,1.087-9.331,0.586-14.248-1.338 c-23.462-9.165-50.001-50.703-68.044-106.808c0-0.017,0-0.017,0-0.017c-3.345-10.368-6.404-21.254-9.081-32.525 c-11.521-48.396-13.846-93.463-8.093-124.601c4.331-23.495,13.261-39.064,26.255-42.158c8.662-2.074,18.21,1.638,27.893,9.967 c0,0.016,0.017,0.016,0.017,0.033c0.017,0.016,0.033,0.034,0.05,0.05c0.351,0.3,0.686,0.603,1.021,0.887 c21.321,19.097,43.195,60.403,57.709,111.825c0,0.017,0.017,0.049,0.017,0.067c1.656,5.818,3.21,11.789,4.649,17.859 C494.113,923.462,497.507,959.148,495.835,987.794z"/><path fill="#16a34a" d="M898.667,813.326c0,0.018,0,0.018,0,0.018c-2.173,30.618-14.23,70.736-31.739,117.828 c-28.847,77.576-72.71,134.768-103.999,138.63c-3.997,0.501-7.793,0.117-11.321-1.188c-8.713-3.243-14.9-11.84-18.579-24.465 c-0.485-1.638-0.92-3.361-1.321-5.151c-1.439-6.438-2.308-13.729-2.643-21.74c-0.368-9.348,0.017-19.665,1.137-30.736 c0.017-0.118,0.017-0.233,0.034-0.351c2.959-28.613,10.902-62.225,23.83-96.957c4.765-12.794,9.932-25.052,15.384-36.591 c0,0,0,0,0.017-0.017c17.893-37.91,38.88-68.228,58.545-85.72c0.619-0.552,1.271-1.104,1.906-1.656 c1.104-0.936,2.191-1.822,3.277-2.675c4.767-3.73,9.416-6.656,13.897-8.696c5.936-2.726,11.588-3.896,16.806-3.36 c1.505,0.15,2.993,0.451,4.431,0.903c0.352,0.116,0.719,0.233,1.07,0.368c5.435,2.023,10.05,4.732,13.897,8.093 c0.284,0.268,0.568,0.52,0.853,0.769c4.564,4.231,8.009,9.449,10.417,15.586c2.375,6.036,3.763,12.977,4.248,20.753 c0,0.016,0,0.016,0,0.016C899.153,802.089,899.102,807.524,898.667,813.326z"/><path fill="#002300" d="M836.226,742.673c-2.977,8.948-5.084,16.875-6.305,22.559c-0.636,0.552-1.287,1.104-1.906,1.656 c-19.665,17.492-40.653,47.81-58.545,85.72c-0.017,0.017-0.017,0.017-0.017,0.017c-8.797,6.857-86.207,10.703-158.682,12.826 c0.652-19.732,2.76-53.445,5.301-85.318c28.98-4.347,77.125-11.588,103.347-15.736c-0.151,7.442-0.886,14.081-2.392,19.298 c-7.826,26.823,47.793-45.553,92.543-48.579c4.75-0.319,9.398,0.134,13.813,1.589c1.889,0.619,3.678,1.287,5.334,2.007 C831.525,739.915,834.018,741.236,836.226,742.673z"/><path fill="#002300" d="M620.804,729.262c-1.605,14.198-3.244,32.224-4.733,50.87c-2.541,31.873-4.648,65.586-5.301,85.318 c-23.579,0.704-46.639,1.205-66.657,1.573c-15.953-78.948,43.111-129.968,62.877-144.552c7.525,9.098,12.024,14.7,12.024,14.7 S619.7,734.228,620.804,729.262z"/><path fill="#002300" d="M730.203,986.523c-1.12,11.071-1.505,21.388-1.137,30.736l-235.991-6.086 c0.017-0.051,0.017-0.118,0.034-0.168c1.338-7.04,2.258-14.832,2.726-23.211c31.74,1.339,202.327,7.994,234.402-1.622 C730.22,986.29,730.22,986.406,730.203,986.523z"/><path fill="#002300" d="M501.839,1113.9h-21.355l-27.743-62.727c4.917,1.924,9.699,2.425,14.248,1.338 c6.522-1.555,12.023-6.255,16.421-13.512L501.839,1113.9z"/><polygon fill="#EFECE2" points="451.985 1051.533 451.969 1051.499 453.479 1050.78"/><path fill="#002300" d="M762.93,1069.802l-32.727,44.098h-31.739l34.565-69.75c3.679,12.625,9.866,21.222,18.579,24.465 C755.137,1069.919,758.933,1070.303,762.93,1069.802z"/><path fill="#16a34a" d="M769.452,852.625c-5.452,11.539-10.619,23.797-15.384,36.591c-12.928,34.732-20.871,68.344-23.83,96.957 c-32.075,9.616-202.663,2.961-234.402,1.622c1.672-28.646-1.722-64.332-10.702-102.041c-1.439-6.07-2.994-12.041-4.649-17.859 c0-0.018-0.017-0.051-0.017-0.067c13.779-0.117,38.797-0.351,63.646-0.803c20.018-0.368,43.078-0.869,66.657-1.573 C683.245,863.328,760.655,859.482,769.452,852.625z"/><path fill="#FF7C2B" d="M606.991,722.472c-13.998,10.32-47.676,38.898-60.485,82.712c-5.301,18.077-7.058,38.763-2.392,61.84 c-24.85,0.452-49.867,0.686-63.646,0.803c-14.515-51.422-36.389-92.728-57.709-111.825c-0.335-0.284-0.669-0.586-1.021-0.887 c-0.017-0.016-0.033-0.034-0.05-0.05c0-0.017-0.017-0.017-0.017-0.033c-9.683-8.329-19.231-12.041-27.893-9.967 c-12.994,3.093-21.924,18.663-26.255,42.158c-5.134,2.659-10.92,5.435-16.974,8.193c-16.104,7.342-34.031,14.565-45.853,19.182 c-11.372-20.97-24.282-49.616-36.59-89.032c-3.061-9.8-5.451-19.499-7.257-29.098c0-0.016-0.017-0.016-0.017-0.032 c-0.268-1.472-0.536-2.961-0.786-4.433c-10.77-62.96,3.294-119.299,18.462-146.155c5.417-9.583,10.954-15.419,15.569-16.473 c2.642-0.601,7.007-0.518,12.709,0.134c37.108,4.282,130.671,33.062,170.487,58.781C513.243,611.534,579.8,689.68,606.991,722.472z"/><path fill="#c54d00" d="M544.113,867.023c-24.85,0.452-49.867,0.686-63.646,0.803c-14.515-51.422-36.389-92.728-57.709-111.825 c-0.335-0.284-0.669-0.586-1.021-0.887c-0.017-0.016-0.033-0.034-0.05-0.05c0-0.017-0.017-0.017-0.017-0.033 c-9.683-8.329-19.231-12.041-27.893-9.967c-12.994,3.093-21.924,18.663-26.255,42.158c-5.134,2.659-10.92,5.435-16.974,8.193 c12.174-45.318-20.769-160.804-5.853-168.514c16.571-8.546,64.048,97.777,76.974,108.111 c12.927,10.336,63.999,86.073,92.092,86.073c13.478,0,24.715-7.793,32.743-15.903C541.204,823.26,539.448,843.946,544.113,867.023z"/><path fill="#002300" d="M384.696,944.349c0,0,0,0,0,0.017c-0.301,0.485-5.719,9.181-20.201,23.596 c-14.899,14.85-25.903,0-25.903-16.071c0-16.088,4.95-71.741,0-83.997c-2.977-7.393-16.706-21.589-33.896-53.296 c16.271-6.338,44.047-17.625,62.827-27.375c-5.752,31.138-3.428,76.204,8.093,124.601 C378.292,923.095,381.352,933.981,384.696,944.349z"/><path fill="#002300" d="M421.643,756.69c-0.518,0-1.024-0.242-1.345-0.702c-0.539-0.773-1.732-3.589-5.282-12.101 c-11.37-27.26-41.573-99.671-59.832-108.315c-0.835-0.395-1.191-1.392-0.796-2.227c0.396-0.835,1.393-1.191,2.227-0.796 c19.42,9.193,48.9,79.87,61.488,110.05c2.418,5.797,4.506,10.803,4.946,11.487c0.493,0.766,0.295,1.807-0.462,2.315 C422.296,756.597,421.967,756.69,421.643,756.69z"/><path fill="#002300" d="M258.958,692.657c-23.479,13.679-67.275,37.977-82.375,37.927c-21.021-0.067-139.752-44.466-122.427-87.191 c17.308-42.728,92.744-21.707,103.881-19.231c4.03,0.901,37.375-24.901,83.58-55.136 C241.717,609.561,244.911,662.254,258.958,692.657z"/><path fill="#FF7C2B" d="M260.045,692.003c-0.351,0.217-0.72,0.435-1.087,0.653c-2.291-4.968-4.298-10.537-6.038-16.54 c-8.962-30.752-11.221-73.178-11.304-107.092c5.937-3.878,12.091-7.826,18.412-11.806c6.004-3.779,12.174-7.576,18.479-11.371 C263.34,572.704,249.276,629.043,260.045,692.003z"/><path fill="#FF7C2B" d="M621.857,720.333v0.033c-0.351,2.744-0.685,5.686-1.037,8.83c-0.016,0.016-0.016,0.033-0.016,0.067 c-1.104,4.966-1.789,7.909-1.789,7.909s-4.499-5.602-12.024-14.7c-20.769-25.049-64.532-76.589-100.068-109.884 c-10.987-10.268-21.171-18.813-29.65-24.297c-15.251-9.851-38.395-20.15-63.228-29.366c-39.984-14.815-84.366-26.772-107.26-29.415 c7.776-4.298,15.686-8.479,23.646-12.491c65.87-33.212,136.624-54.767,185.002-27.659c15.251,11.338,37.108,55.753,57.76,104.717 c10.953,25.92,21.572,53.111,30.703,77.342C610.955,690.148,617.124,707.104,621.857,720.333z"/><path fill="#002300" d="M897.464,650.347c-1.856-2.09-3.663-4.414-5.402-6.955c0,0,0.97,3.712,2.409,10.083 c-1.974,2.074-4.684,4.883-8.345,8.712c-3.729,3.896-8.495,8.862-14.515,15.151c-5.97,6.237-11.354,13.796-16.138,21.906 c-4.983-15.134,0.619-33.545,2.525-31.055c2.425,3.127,18.195,10.537,23.178-10.317c-12.024-10.15-25.151-18.83-38.998-26.253 c-14.984-3.345-43.529-9.299-60.068-16.323c-7.224-3.061-12.157-6.338-12.642-9.683c-0.017-0.1-0.034-0.201-0.051-0.316v-0.017 c-0.135-0.421-0.135-0.421-0.083-0.938c-1.037-14.431,12.893-47.976,82.426-40.786c19.966,2.074,32.542,9.514,40.318,19.164 c12.007-30.018,40.836-83.08,87.125-32.759C1031.98,607.321,947.481,707.222,897.464,650.347z"/><path fill="#EFECE2" d="M881.176,657.873c-4.983,20.854-20.753,13.445-23.178,10.317c-1.906-2.49-7.508,15.921-2.525,31.055 c-2.057,3.513-4.013,7.142-5.853,10.803c-5.536,11.054-10.018,22.492-13.395,32.625c-2.208-1.437-4.7-2.758-7.509-3.962 c-1.656-0.72-3.445-1.388-5.334-2.007c-4.415-1.455-9.064-1.908-13.813-1.589c-52.977-11.138-67.71-25.368-70.084-36.072 c15.92,1.389,34.214,3.83,39.983,1.79c10.486-3.712,20.418-22.259,11.757-24.733c-8.662-2.476-13.981-25.971-13.981-25.971 s-14.463-6.188-7.774-12.357c4.28-3.963,9.464-15.034,12.642-22.476c16.539,7.024,45.084,12.978,60.068,16.323 C856.025,639.043,869.151,647.723,881.176,657.873z"/><path fill="#EFECE2" d="M719.417,764.396c-26.222,4.148-74.366,11.389-103.347,15.736c1.489-18.646,3.127-36.672,4.733-50.87 c0-0.034,0-0.051,0.016-0.067c0.469-2.074,1.021-4.516,1.623-7.241c6.086-27.325,18.227-83.329,19.147-99.031 c0.502-8.412,0.602-20.369,1.004-32.475c0.619-18.194,1.956-36.773,6.405-44.199c3.696-6.137,8.294-11.672,12.157-14.632 c3.896-2.976,7.023-3.327,7.643,1.037c1.12,7.894-3.93,13.729-7.643,27.458v19.432c1.79,5.067,4.649,9.015,6.639,11.339 c1.304,1.521,2.224,2.358,2.224,2.358s14.85,2.474,18.563,0c0.3-0.201,0.602-0.603,0.903-1.171 c2.207-4.047,4.682-16.489,6.522-23.278c1.137-4.197,2.023-6.238,2.458-2.76c0.936,7.425,3.243,16.939,2.257,26.973 c-0.318,3.345-1.02,6.74-2.257,10.135c-4.934,13.595-9.883,27.207-9.883,39.566c0,8.962,11.02,39.331,18.529,52.575 c2.608,4.633,4.799,7.174,5.936,5.936C716.24,719.429,719.818,744.664,719.417,764.396z"/><path fill="#002300" d="M809.569,735.115c-44.75,3.026-100.369,75.402-92.543,48.579c1.505-5.217,2.241-11.856,2.392-19.298 c0.401-19.732-3.177-44.967-6.372-63.179c0.101-0.083,0.184-0.217,0.268-0.384c1.672-3.345,13.126-2.926,26.171-1.79 C741.859,709.747,756.592,723.978,809.569,735.115z"/><path fill="#002300" d="M779.468,700.833c-5.769,2.04-24.063-0.401-39.983-1.79c-13.044-1.136-24.499-1.555-26.171,1.79 c-0.084,0.167-0.167,0.301-0.268,0.384c-1.137,1.238-3.328-1.303-5.936-5.936c1.02-2.441,2.157-5.033,3.377-7.743v-0.016 c11.422-25.234,31.021-60.319,58.931-82.225c0.017,0.116,0.034,0.217,0.051,0.316c0.484,3.345,5.417,6.622,12.642,9.683 c-3.177,7.442-8.361,18.513-12.642,22.476c-6.689,6.17,7.774,12.357,7.774,12.357s5.319,23.495,13.981,25.971 C799.886,678.575,789.954,697.122,779.468,700.833z"/><path fill="#16a34a" d="M769.418,605.281v0.017c-27.91,21.906-47.509,56.991-58.931,82.225v0.016 c-1.22,2.709-2.357,5.301-3.377,7.743c-7.509-13.245-18.529-43.613-18.529-52.575c0-12.359,4.95-25.971,9.883-39.566 c1.237-3.396,1.939-6.791,2.257-10.135c22.476,2.09,45.737,5.67,68.614,11.338C769.351,604.662,769.385,604.979,769.418,605.281z"/><path fill="#002300" d="M898.667,813.326c0.435-5.802,0.485-11.237,0.15-16.337c0,0,0,0,0-0.016 c-0.485-7.777-1.873-14.717-4.248-20.753c-2.408-6.137-5.853-11.354-10.417-15.586c-0.285-0.25-0.569-0.501-0.853-0.769 c-3.847-3.361-8.462-6.07-13.897-8.093c-0.351-0.134-0.718-0.252-1.07-0.368c-1.438-0.452-2.926-0.753-4.431-0.903 c-5.218-0.536-10.87,0.635-16.806,3.36c-4.482,2.04-9.13,4.966-13.897,8.696c-1.086,0.853-2.174,1.739-3.277,2.675 c1.221-5.685,3.328-13.611,6.305-22.559c3.377-10.133,7.859-21.571,13.395-32.625c1.839-3.661,3.796-7.29,5.853-10.803 c4.784-8.11,10.168-15.669,16.138-21.906c6.02-6.289,10.786-11.255,14.515-15.151c4.398,3.947,8.629,8.093,12.66,12.475 c5.752,6.188,11.137,12.826,16.104,19.917C914.889,694.579,921.979,760.183,898.667,813.326z"/><path fill="#16a34a" d="M642.594,590.448c-0.402,12.106-0.501,24.063-1.004,32.475c-0.92,15.702-13.061,71.707-19.147,99.031 c-0.185-0.536-0.385-1.037-0.586-1.589v-0.033c-10.886-30.369-29.248-80.319-48.663-126.256 C590.971,592.254,615.084,590.515,642.594,590.448z"/><path fill="#002300" d="M1133.79,1105.238c0,4.782-3.876,8.657-8.657,8.657H869.135c-4.781,0-8.657-3.875-8.657-8.657l0,0 c0-4.782,3.876-8.657,8.657-8.657h139.747h116.25C1129.914,1096.581,1133.79,1100.457,1133.79,1105.238L1133.79,1105.238z"/><path fill="#002300" d="M1008.885,1098.249c-0.321,0-0.645-0.092-0.932-0.285c-0.766-0.515-0.969-1.555-0.453-2.32 c0.323-0.482,32.718-49.172,61.678-138.823c26.728-82.737,55.911-218.277,43.16-394.128 c-9.67-133.361-52.52-233.223-127.358-296.812c-57.259-48.652-114.306-59.327-130.426-61.439c-0.916-0.12-1.561-0.96-1.441-1.875 c0.12-0.915,0.955-1.565,1.875-1.441c16.351,2.144,74.201,12.964,132.157,62.208c33.529,28.489,61.116,64.979,81.995,108.453 c25.562,53.228,41.219,117.376,46.534,190.666c12.795,176.466-16.518,312.501-43.361,395.547 c-29.107,90.047-61.712,139.029-62.038,139.513C1009.952,1097.99,1009.423,1098.249,1008.885,1098.249z"/><path fill="#002300" d="M873.115,225.993l-8.98,14.85l-43.93-26.555l8.98-14.85c2.959-4.899,9.314-6.472,14.214-3.511l11.355,6.855 h0.016l14.85,8.997C874.503,214.74,876.076,221.11,873.115,225.993z"/><path fill="#4d88ff" d="M883.366,264.556l-28.06,167.26c-2.96,4.899-9.331,6.472-14.214,3.511L658.697,325.042 c-4.899-2.96-6.472-9.331-3.512-14.214l132.644-104.031c2.961-4.901,9.331-6.456,14.214-3.497l18.162,10.987l43.93,26.555 l15.72,9.5C884.754,253.301,886.327,259.656,883.366,264.556z"/><path fill="#16a34a" d="M696.006,517.369v51.422c-1.84,6.789-4.315,19.231-6.522,23.278c-0.301,0.568-0.603,0.97-0.903,1.171 c-3.713,2.474-18.563,0-18.563,0s-0.92-0.836-2.224-2.358c-1.99-2.324-4.85-6.271-6.639-11.339v-19.432 c3.712-13.729,8.763-19.564,7.643-27.458c-0.619-4.364-3.746-4.013-7.643-1.037v-14.247c0-6.405,5.201-11.606,11.623-11.606h11.605 C690.805,505.763,696.006,510.964,696.006,517.369z"/><path fill="#c54d00" d="M278.507,545.848c-15.167,26.856-29.231,83.195-18.462,146.155c-0.351,0.217-0.72,0.435-1.087,0.653 c-2.291-4.968-4.298-10.537-6.038-16.54c-5.969-58.964-1.705-95.67,7.107-118.898C266.032,553.44,272.202,549.644,278.507,545.848z"/><path fill="#c54d00" d="M330.432,517.018c18.612,7.006,49.198,22.809,83.613,41.906c-39.984-14.815-84.366-26.772-107.26-29.415 C314.562,525.211,322.471,521.031,330.432,517.018z"/><path fill="#c54d00" d="M621.857,720.333v0.033c-0.351,2.744-0.685,5.686-1.037,8.83c-0.016,0.016-0.016,0.033-0.016,0.067 c-1.104,4.966-1.789,7.909-1.789,7.909s-4.499-5.602-12.024-14.7c-20.769-25.049-64.532-76.589-100.068-109.884 c41.689,24.783,78.664,47.509,96.974,58.831C610.955,690.148,617.124,707.104,621.857,720.333z"/><path fill="#002300" d="M860.072,665.633c-0.876,0-1.613-0.683-1.667-1.569c-0.182-2.942,0.698-5.325,2.616-7.082 c4.663-4.273,13.898-2.944,14.29-2.886c0.913,0.136,1.541,0.987,1.405,1.9c-0.136,0.913-0.986,1.542-1.9,1.408 c-2.23-0.332-8.651-0.606-11.54,2.047c-1.15,1.056-1.651,2.497-1.534,4.407c0.057,0.922-0.644,1.715-1.566,1.772 C860.141,665.632,860.107,665.633,860.072,665.633z"/><path fill="#002300" d="M815.046,684.533c-13.441,0-27.521-3.652-33.627-17.164c-0.38-0.841-0.006-1.832,0.835-2.212 c0.839-0.381,1.833-0.008,2.212,0.835c11.785,26.071,59.737,10.487,60.221,10.325c0.875-0.291,1.823,0.184,2.115,1.06 c0.291,0.877-0.184,1.823-1.06,2.115C844.632,679.861,830.247,684.533,815.046,684.533z"/><path fill="#002300" d="M730.24,987.845c-0.067,0-0.134-0.004-0.202-0.012c-0.917-0.109-1.571-0.942-1.461-1.859 c0.115-0.966,11.997-97.223,48.096-151.485c0.512-0.769,1.552-0.977,2.318-0.466c0.769,0.511,0.978,1.55,0.466,2.318 c-35.655,53.596-47.445,149.074-47.56,150.032C731.796,987.221,731.074,987.845,730.24,987.845z"/><path fill="#002300" d="M495.836,989.466c-0.13,0-0.264-0.015-0.396-0.047c-0.897-0.217-1.448-1.122-1.23-2.019 c12.16-50.113-28.585-158.292-28.998-159.38c-0.328-0.863,0.105-1.829,0.969-2.157c0.862-0.326,1.829,0.106,2.156,0.968 c1.702,4.478,41.527,110.236,29.122,161.357C497.274,988.954,496.59,989.466,495.836,989.466z"/><path fill="#002300" d="M416.423,877.806c-19.825,0-38.805-20.705-45.13-49.232c-3.355-15.13-2.599-30.246,2.128-42.561 c4.818-12.554,13.184-20.733,23.555-23.032c1.918-0.425,3.892-0.641,5.869-0.641c19.826,0,38.807,20.705,45.131,49.231 c3.355,15.13,2.599,30.246-2.128,42.561c-4.818,12.553-13.184,20.732-23.555,23.031C420.375,877.59,418.4,877.806,416.423,877.806z M402.845,765.685c-1.733,0-3.464,0.188-5.145,0.561c-9.239,2.049-16.753,9.494-21.156,20.966 c-4.495,11.709-5.2,26.141-1.986,40.638c5.892,26.572,23.89,46.611,41.865,46.611c1.734,0,3.465-0.189,5.147-0.562 c9.239-2.049,16.753-9.494,21.155-20.965c4.495-11.709,5.2-26.142,1.986-40.639C438.819,785.722,420.82,765.685,402.845,765.685z"/><path fill="#002300" d="M840.291,882.326c-3.096,0-6.118-0.503-8.984-1.496c-10.039-3.474-17.41-12.56-20.755-25.583 c-3.282-12.777-2.297-27.879,2.773-42.525c8.949-25.854,28.382-43.909,47.257-43.909c3.096,0,6.118,0.503,8.984,1.496 c20.464,7.084,28.531,37.638,17.982,68.108C878.598,864.27,859.165,882.326,840.291,882.326z M860.581,772.157 c-17.195,0-35.741,17.521-44.097,41.659c-4.857,14.033-5.813,28.451-2.693,40.599c3.057,11.901,9.667,20.16,18.61,23.256 c2.513,0.869,5.168,1.311,7.89,1.311c17.195,0,35.74-17.521,44.096-41.659c9.945-28.728,2.805-57.373-15.916-63.854 C865.958,772.599,863.303,772.157,860.581,772.157z"/><path fill="#002300" d="M552.282,900.46c-0.455,0-0.908-0.185-1.239-0.548c-0.621-0.684-0.57-1.741,0.113-2.362 c0.809-0.735,0.875-0.795,30.52-0.894c48.182-0.162,161.018-0.54,170.459-10.459c0.636-0.67,1.697-0.695,2.364-0.058 c0.668,0.636,0.695,1.695,0.058,2.364c-9.163,9.626-88.5,11.215-172.871,11.498c-14.508,0.048-27.072,0.09-28.821,0.354 C552.678,900.425,552.48,900.46,552.282,900.46z"/><path fill="#002300" d="M685.78,914.001c-31.134,0-63.399-1.272-69.779-1.538c-0.923-0.038-1.64-0.817-1.601-1.74 c0.038-0.922,0.773-1.646,1.74-1.601c32.994,1.369,120.615,3.524,129.73-2.881c0.756-0.529,1.798-0.35,2.33,0.407 c0.531,0.755,0.349,1.798-0.408,2.33C742.182,912.921,714.46,914.001,685.78,914.001z"/><path fill="#002300" d="M755.429,1050.528c-0.729,0-1.454-0.021-2.178-0.062c-3.743-0.215-6.893-1.964-9.361-5.2 c-15.583-20.427,0.608-97.424,1.305-100.692c0.193-0.903,1.081-1.479,1.984-1.287c0.903,0.193,1.479,1.081,1.287,1.984 c-0.167,0.786-16.575,78.754-1.916,97.967c1.875,2.458,4.13,3.73,6.892,3.888c30.404,1.798,66.061-35.916,95.47-100.73 c0.382-0.842,1.374-1.216,2.214-0.832c0.841,0.381,1.213,1.373,0.832,2.214C822.639,1012.395,786.731,1050.526,755.429,1050.528z"/><path fill="#002300" d="M459.755,1042.991c-0.752,0-1.519-0.035-2.299-0.104c-26.274-2.331-61.59-90.354-63.082-94.1 c-0.341-0.858,0.078-1.831,0.936-2.172c0.856-0.344,1.831,0.078,2.172,0.936c0.357,0.898,36.028,89.854,60.269,92.005 c6.318,0.563,11.373-1.431,15.435-6.093c15.941-18.286,11.295-69.708,2.474-108.185c-0.207-0.901,0.356-1.797,1.256-2.004 c0.898-0.208,1.798,0.356,2.003,1.256c8.998,39.244,13.556,91.896-3.211,111.131 C471.462,1040.532,466.104,1042.991,459.755,1042.991z"/><path fill="#FFF" d="M218.736,668.354c-0.923,0-1.672-0.749-1.672-1.672v-22.538c0-0.641,0.366-1.225,0.942-1.505 c0.577-0.277,1.263-0.205,1.765,0.192l19.191,15.134l-6.953-31.185c-0.201-0.901,0.367-1.796,1.268-1.997 c0.9-0.194,1.796,0.367,1.997,1.268l7.975,35.772c0.154,0.691-0.144,1.403-0.742,1.78c-0.599,0.375-1.37,0.334-1.925-0.103 l-20.173-15.909v19.09C220.408,667.604,219.659,668.354,218.736,668.354z"/><path fill="#FFF" d="M180.232,717.027c-0.107,0-0.215-0.01-0.324-0.031c-69.301-13.613-117.199-65.669-117.675-66.193 c-0.621-0.684-0.57-1.741,0.115-2.361s1.742-0.569,2.362,0.113c0.468,0.516,47.658,51.765,115.843,65.159 c0.907,0.178,1.497,1.058,1.318,1.964C181.715,716.474,181.015,717.027,180.232,717.027z"/><path fill="#FFF" d="M355.901,859.872c-0.618,0-1.211-0.343-1.502-0.934l-11.204-22.786c-0.12-0.244-0.179-0.515-0.17-0.787 c0.271-9.464-0.458-18.453-1.615-20.522c-0.686,0.275-1.508,0.085-1.973-0.525c-0.559-0.735-0.446-1.765,0.289-2.323 c0.98-0.746,2.095-0.887,3.062-0.389c3.595,1.847,3.806,15.288,3.59,23.44l11.021,22.415c0.408,0.829,0.066,1.832-0.762,2.239 C356.4,859.817,356.148,859.872,355.901,859.872z"/><path fill="#FFF" d="M348.317,966.695c-0.797,0-1.502-0.571-1.645-1.383c-0.16-0.908,0.447-1.776,1.357-1.937 c6.637-1.17,21.851-7.371,26.515-19.072c0.341-0.857,1.315-1.28,2.172-0.934c0.858,0.341,1.276,1.313,0.934,2.172 c-4.999,12.544-20.467,19.616-29.042,21.128C348.511,966.687,348.413,966.695,348.317,966.695z"/><path fill="#FFF" d="M518.197,822.597c-0.856,0-1.704-0.053-2.546-0.159c-12.343-1.553-21.933-14.506-36.448-34.112 c-5.221-7.051-13.12-18.975-23.119-34.071c-33.818-51.053-90.417-136.5-115.577-140.012c-3.485-0.486-6.398-1.198-8.834-2.058 c-2.181,3.887-4.34,8.573-5.727,14.604c-4.118,17.907,12.968,122.097,18.583,156.334c1.21,7.38,1.749,10.674,1.829,11.452 c0.096,0.918-0.572,1.741-1.491,1.836c-0.928,0.101-1.74-0.572-1.836-1.49c-0.074-0.713-0.799-5.135-1.803-11.257 c-9.791-59.703-22.366-141-18.543-157.625c1.428-6.209,3.67-11.144,5.883-15.146c-6.534-3.189-8.466-7.557-8.988-10.423 c-0.896-4.915,1.57-10.18,5.86-12.519c3.374-1.837,7.066-1.362,9.879,1.275c6.675,6.255,3.469,11.385-0.591,17.88 c-0.426,0.68-0.866,1.384-1.313,2.117c2.217,0.739,4.745,1.315,7.553,1.707c26.653,3.719,81.565,86.619,117.903,141.477 c9.973,15.055,17.85,26.947,22.938,33.82c14.083,19.022,23.333,31.518,34.257,32.892c6.693,0.84,14.406-2.512,24.288-10.554 c0.716-0.584,1.77-0.476,2.353,0.241c0.583,0.717,0.475,1.77-0.241,2.353C532.853,818.984,525.237,822.597,518.197,822.597z M329.608,590.195c-1.05,0-1.956,0.362-2.565,0.694c-2.561,1.396-4.893,5.018-4.171,8.982c0.604,3.315,3.188,6.086,7.396,8.094 c0.564-0.933,1.111-1.809,1.625-2.631c4.413-7.059,5.597-9.492,1.142-13.667C331.848,590.556,330.655,590.195,329.608,590.195z"/><path fill="#FFF" d="M610.606,867.125c-1.971,0-3.685-0.851-4.969-2.469c-10.074-12.699,6.854-77.596,8.818-84.955 c0.238-0.892,1.149-1.425,2.047-1.185c0.893,0.238,1.422,1.154,1.185,2.047c-5.214,19.544-17.074,72.378-9.429,82.015 c0.674,0.85,1.419,1.221,2.46,1.201c0.946-0.061,1.694,0.696,1.724,1.619c0.028,0.923-0.697,1.695-1.619,1.724 C610.75,867.125,610.678,867.125,610.606,867.125z"/><path fill="#FFF" d="M690.436,821.553c-1.842,0-2.818-0.792-3.325-1.52c-1.157-1.661-0.772-4.226,1.176-7.842 c2.908-5.395,13.015-14.806,26.444-25.296c2.231-11.434,3.007-22.46,3.018-22.613c0.063-0.921,0.871-1.617,1.782-1.554 c0.921,0.063,1.618,0.86,1.555,1.782c-0.038,0.563-0.653,9.299-2.381,19.323c29.069-22.104,70.779-47.611,90.634-50.374 c0.904-0.128,1.76,0.51,1.886,1.426c0.127,0.915-0.51,1.76-1.426,1.886c-19.819,2.759-63.395,29.92-92.034,52.059 c-0.842,4.101-1.875,8.227-3.135,11.941c-3.426,10.103-16.451,19.755-23.135,20.703 C691.113,821.528,690.761,821.553,690.436,821.553z M689.855,818.122c0.009,0,0.559,0.312,2.376-0.236 c5.792-1.743,16.415-9.887,19.23-18.189c0.809-2.383,1.523-4.965,2.151-7.611c-11.474,9.145-19.919,17.125-22.381,21.693 C689.424,817.133,689.848,818.108,689.855,818.122L689.855,818.122z"/><path fill="#EFECE2" d="M746.833,703.287c-0.13,0-0.262-0.015-0.394-0.047c-20.114-4.852-32.702-0.493-32.828-0.449 c-0.866,0.313-1.825-0.141-2.138-1.008c-0.311-0.868,0.137-1.824,1.004-2.138c0.544-0.198,13.578-4.761,34.746,0.344 c0.898,0.216,1.45,1.12,1.233,2.018C748.272,702.772,747.587,703.287,746.833,703.287z"/><path fill="#EFECE2" d="M836.226,744.346c-0.178,0-0.359-0.029-0.538-0.089c-0.875-0.297-1.343-1.247-1.046-2.122 c8.187-24.142,34.46-64.033,35.574-65.719c0.51-0.771,1.546-0.982,2.317-0.474c0.771,0.51,0.982,1.548,0.474,2.317 c-0.271,0.41-27.15,41.218-35.197,64.95C837.573,743.907,836.923,744.346,836.226,744.346z"/><path fill="#FFF" d="M778.064,601.511c-0.221,0-0.444-0.044-0.659-0.136c-0.849-0.365-1.241-1.348-0.877-2.196 c0.171-0.397,17.838-39.603,83.868-25.82c0.904,0.188,1.483,1.075,1.295,1.979c-0.189,0.904-1.071,1.483-1.979,1.295 c-63.37-13.231-79.95,23.493-80.109,23.865C779.33,601.131,778.713,601.511,778.064,601.511z"/><path fill="#FFF" d="M793.841,596.013c-0.232,0-0.467-0.048-0.691-0.15c-0.841-0.382-1.212-1.374-0.83-2.214 c0.536-1.177,5.166-7.162,43.81-9.368c0.932-0.049,1.712,0.653,1.766,1.574c0.052,0.923-0.653,1.712-1.575,1.766 c-35.68,2.036-40.682,7.145-41.038,7.571C794.977,595.711,794.42,596.013,793.841,596.013z"/><path fill="#FFF" d="M973.947,601.511c-0.16,0-0.321-0.023-0.481-0.071c-0.885-0.266-1.388-1.198-1.122-2.082 c4.546-15.154,3.753-27.435-2.355-36.501c-9.096-13.497-27.071-15.327-27.251-15.344c-0.919-0.085-1.595-0.901-1.509-1.821 c0.086-0.919,0.891-1.605,1.821-1.509c0.801,0.075,19.742,2.008,29.713,16.804c6.697,9.938,7.634,23.17,2.786,39.33 C975.331,601.043,974.666,601.511,973.947,601.511z"/><path fill="#FFF" d="M950.344,645.815c-0.332,0-0.668-0.099-0.96-0.305c-0.755-0.531-0.938-1.574-0.406-2.33 c14.33-20.384,16.876-40.515,7.568-59.835c-6.968-14.463-18.266-22.997-18.378-23.081c-0.741-0.553-0.894-1.601-0.341-2.34 c0.551-0.74,1.6-0.893,2.34-0.341c0.48,0.358,47.523,36.348,11.548,87.521C951.388,645.568,950.869,645.815,950.344,645.815z"/><path fill="#002300" d="M616.072,684.46c-0.56,0-1.106-0.281-1.423-0.791c-11.227-18.118-4.93-79.698-4.656-82.311 c0.096-0.919,0.922-1.588,1.837-1.489c0.918,0.096,1.585,0.918,1.489,1.837c-0.066,0.628-6.456,63.049,4.172,80.2 c0.487,0.786,0.244,1.816-0.541,2.302C616.678,684.379,616.373,684.46,616.072,684.46z"/><path fill="#002300" d="M713.045,668.354c-0.212,0-0.429-0.041-0.638-0.127c-0.853-0.353-1.26-1.33-0.907-2.185 c8.84-21.41,11.142-53.381,10.335-60.559c-0.103-0.917,0.557-1.746,1.475-1.849c0.91-0.104,1.746,0.556,1.849,1.475 c0.754,6.705-1.068,39.204-10.567,62.209C714.326,667.964,713.702,668.354,713.045,668.354z"/><path fill="#002300" d="M793.842,658.537c-7.623,0-13.373-13.81-13.373-32.123s5.75-32.123,13.373-32.123 s13.372,13.81,13.372,32.123S801.465,658.537,793.842,658.537z M793.842,597.636c-4.743,0-10.028,11.819-10.028,28.778 s5.285,28.778,10.028,28.778c4.743,0,10.027-11.818,10.027-28.778S798.585,597.636,793.842,597.636z"/></svg>