<svg xmlns="http://www.w3.org/2000/svg" version="1.0" viewBox="0 0 1133.858 1133.858"><path fill="#4d88ff" d="M309.87,38.53h-13.932V24.598c0-1.789-1.449-3.237-3.236-3.237c-1.791,0-3.242,1.449-3.242,3.237V38.53 h-13.932c-1.787,0-3.238,1.45-3.238,3.237c0,1.788,1.451,3.239,3.238,3.239h13.932v13.932c0,1.787,1.451,3.239,3.242,3.239 c1.787,0,3.236-1.452,3.236-3.239V45.006h13.932c1.787,0,3.238-1.452,3.238-3.239C313.108,39.98,311.657,38.53,309.87,38.53z"/><path fill="#4d88ff" d="M256.771,100.904h-10.134V90.769c0-1.299-1.054-2.354-2.354-2.354s-2.355,1.055-2.355,2.354v10.135h-10.135 c-1.301,0-2.354,1.055-2.354,2.356c0,1.301,1.054,2.355,2.354,2.355h10.135v10.135c0,1.299,1.055,2.355,2.355,2.355 s2.354-1.056,2.354-2.355v-10.135h10.134c1.304,0,2.358-1.055,2.358-2.355C259.129,101.958,258.074,100.904,256.771,100.904z"/><path fill="#4d88ff" d="M392.651,107.063h-10.134V96.929c0-1.301-1.055-2.355-2.353-2.355c-1.301,0-2.355,1.055-2.355,2.355v10.134 h-10.137c-1.297,0-2.355,1.054-2.355,2.355s1.059,2.355,2.355,2.355h10.137v10.134c0,1.301,1.055,2.357,2.355,2.357 c1.298,0,2.353-1.056,2.353-2.357v-10.134h10.134c1.303,0,2.361-1.054,2.361-2.355S393.954,107.063,392.651,107.063z"/><path fill="#4d88ff" d="M83.496,902.935h-5.045v-5.044c0-0.646-0.525-1.172-1.172-1.172s-1.172,0.525-1.172,1.172v5.044h-5.045 c-0.646,0-1.174,0.527-1.174,1.174c0,0.648,0.527,1.173,1.174,1.173h5.045v5.044c0,0.647,0.525,1.173,1.172,1.173 s1.172-0.525,1.172-1.173v-5.044h5.045c0.648,0,1.174-0.524,1.174-1.173C84.67,903.462,84.145,902.935,83.496,902.935z"/><path fill="#4d88ff" d="M56.092,883.978h-5.043v-5.044c0-0.646-0.527-1.172-1.174-1.172s-1.172,0.525-1.172,1.172v5.044h-5.045 c-0.646,0-1.172,0.527-1.172,1.174c0,0.648,0.525,1.174,1.172,1.174h5.045v5.043c0,0.648,0.525,1.173,1.172,1.173 s1.174-0.524,1.174-1.173v-5.043h5.043c0.648,0,1.174-0.525,1.174-1.174C57.266,884.505,56.74,883.978,56.092,883.978z"/><path fill="#4d88ff" d="M172.894,478.125h-10.137v-10.134c0-1.299-1.055-2.355-2.352-2.355c-1.305,0-2.358,1.056-2.358,2.355 v10.134h-10.134c-1.301,0-2.355,1.058-2.355,2.358c0,1.301,1.055,2.355,2.355,2.355h10.134v10.134c0,1.301,1.054,2.356,2.358,2.356 c1.297,0,2.352-1.056,2.352-2.356v-10.134h10.137c1.299,0,2.355-1.055,2.355-2.355 C175.249,479.182,174.192,478.125,172.894,478.125z"/><path fill="#4d88ff" d="M285.048,478.787h-10.133v-10.134c0-1.299-1.059-2.357-2.359-2.357s-2.354,1.058-2.354,2.357v10.134 h-10.134c-1.301,0-2.358,1.056-2.358,2.356s1.058,2.355,2.358,2.355h10.134v10.134c0,1.301,1.054,2.356,2.354,2.356 s2.359-1.056,2.359-2.356v-10.134h10.133c1.299,0,2.355-1.055,2.355-2.355S286.347,478.787,285.048,478.787z"/><path fill="#4d88ff" d="M207.835,511.942h-8.341v-8.34c0-1.07-0.869-1.938-1.938-1.938c-1.072,0-1.938,0.868-1.938,1.938v8.34 h-8.341c-1.071,0-1.94,0.869-1.94,1.94c0,1.07,0.869,1.938,1.94,1.938h8.341v8.342c0,1.069,0.865,1.938,1.938,1.938 c1.069,0,1.938-0.869,1.938-1.938v-8.342h8.341c1.071,0,1.938-0.868,1.938-1.938C209.772,512.812,208.906,511.942,207.835,511.942z"/><path fill="#4d88ff" d="M83.669,205.139h-8.34V196.8c0-1.071-0.869-1.94-1.938-1.94c-1.071,0-1.94,0.869-1.94,1.94v8.339h-8.341 c-1.069,0-1.938,0.869-1.938,1.939s0.869,1.939,1.938,1.939h8.341v8.342c0,1.068,0.869,1.937,1.94,1.937 c1.069,0,1.938-0.869,1.938-1.937v-8.342h8.34c1.069,0,1.938-0.869,1.938-1.939S84.738,205.139,83.669,205.139z"/><path fill="#4d88ff" d="M214.84,797.707h-5.623v-5.623c0-0.722-0.586-1.308-1.307-1.308c-0.723,0-1.309,0.586-1.309,1.308v5.623 h-5.623c-0.721,0-1.307,0.586-1.307,1.308c0,0.721,0.586,1.307,1.307,1.307h5.623v5.623c0,0.722,0.586,1.308,1.309,1.308 c0.721,0,1.307-0.586,1.307-1.308v-5.623h5.623c0.721,0,1.307-0.586,1.307-1.307C216.146,798.293,215.561,797.707,214.84,797.707z"/><path fill="#4d88ff" d="M223.409,301.941h-15.068v-15.064c0-1.933-1.566-3.502-3.499-3.502c-1.935,0-3.503,1.57-3.503,3.502v15.064 h-15.064c-1.932,0-3.502,1.568-3.502,3.501c0,1.934,1.57,3.502,3.502,3.502h15.064v15.067c0,1.931,1.568,3.5,3.503,3.5 c1.933,0,3.499-1.569,3.499-3.5v-15.067h15.068c1.932,0,3.499-1.569,3.499-3.502C226.908,303.509,225.341,301.941,223.409,301.941z"/><path fill="#4d88ff" d="M974.988,492.34h-13.933v-13.932c0-1.79-1.451-3.239-3.238-3.239s-3.238,1.449-3.238,3.239v13.932h-13.932 c-1.788,0-3.239,1.449-3.239,3.239c0,1.786,1.451,3.237,3.239,3.237h13.932v13.93c0,1.789,1.451,3.24,3.238,3.24 s3.238-1.452,3.238-3.24v-13.93h13.933c1.787,0,3.239-1.452,3.239-3.237C978.228,493.789,976.775,492.34,974.988,492.34z"/><path fill="#4d88ff" d="M921.89,554.712h-10.135v-10.134c0-1.301-1.055-2.355-2.355-2.355s-2.354,1.054-2.354,2.355v10.134h-10.137 c-1.298,0-2.355,1.058-2.355,2.358c0,1.301,1.058,2.355,2.355,2.355h10.137v10.134c0,1.301,1.054,2.356,2.354,2.356 s2.355-1.056,2.355-2.356v-10.134h10.135c1.301,0,2.357-1.055,2.357-2.355C924.247,555.77,923.19,554.712,921.89,554.712z"/><path fill="#4d88ff" d="M977.358,541.238h-10.135v-10.135c0-1.301-1.055-2.354-2.355-2.354s-2.354,1.053-2.354,2.354v10.135H952.38 c-1.301,0-2.357,1.055-2.357,2.355s1.057,2.355,2.357,2.355h10.135v10.134c0,1.301,1.053,2.355,2.354,2.355 s2.355-1.055,2.355-2.355v-10.134h10.135c1.301,0,2.357-1.054,2.357-2.355S978.659,541.238,977.358,541.238z"/><path fill="#4d88ff" d="M1099.024,891.011h-8.453v-8.451c0-1.085-0.88-1.964-1.963-1.964c-1.082,0-1.963,0.878-1.963,1.964v8.451 h-8.453c-1.084,0-1.967,0.883-1.967,1.966c0,1.085,0.883,1.966,1.967,1.966h8.453v8.451c0,1.084,0.881,1.965,1.963,1.965 c1.083,0,1.963-0.88,1.963-1.965v-8.451h8.453c1.088,0,1.967-0.88,1.967-1.966C1100.991,891.895,1100.112,891.011,1099.024,891.011 z"/><path fill="#4d88ff" d="M1053.111,859.248h-8.452v-8.451c0-1.084-0.881-1.963-1.968-1.963c-1.083,0-1.963,0.879-1.963,1.963v8.451 h-8.452c-1.084,0-1.965,0.884-1.965,1.967c0,1.084,0.881,1.967,1.965,1.967h8.452v8.449c0,1.087,0.88,1.966,1.963,1.966 c1.087,0,1.968-0.879,1.968-1.966v-8.449h8.452c1.083,0,1.962-0.882,1.962-1.967 C1055.073,860.131,1054.194,859.248,1053.111,859.248z"/><path fill="#4d88ff" d="M791.04,220.833h-10.133V210.7c0-1.298-1.059-2.355-2.355-2.355c-1.305,0-2.358,1.057-2.358,2.355v10.134 H766.06c-1.301,0-2.355,1.058-2.355,2.358s1.055,2.355,2.355,2.355h10.134v10.134c0,1.301,1.054,2.357,2.358,2.357 c1.297,0,2.355-1.056,2.355-2.357v-10.134h10.133c1.301,0,2.355-1.054,2.355-2.355S792.341,220.833,791.04,220.833z"/><path fill="#4d88ff" d="M903.194,221.497h-10.133v-10.135c0-1.299-1.059-2.356-2.355-2.356c-1.305,0-2.358,1.057-2.358,2.356 v10.135h-10.134c-1.301,0-2.355,1.054-2.355,2.355s1.055,2.355,2.355,2.355h10.134v10.135c0,1.299,1.054,2.355,2.358,2.355 c1.297,0,2.355-1.056,2.355-2.355v-10.135h10.133c1.299,0,2.355-1.055,2.355-2.355S904.493,221.497,903.194,221.497z"/><path fill="#4d88ff" d="M825.981,254.652h-8.338v-8.341c0-1.069-0.872-1.938-1.941-1.938c-1.068,0-1.938,0.869-1.938,1.938v8.341 h-8.342c-1.07,0-1.939,0.869-1.939,1.939s0.869,1.939,1.939,1.939h8.342v8.34c0,1.069,0.869,1.938,1.938,1.938 c1.069,0,1.941-0.869,1.941-1.938v-8.34h8.338c1.071,0,1.94-0.869,1.94-1.939S827.053,254.652,825.981,254.652z"/><path fill="#4d88ff" d="M999.792,600.993h-9.422v-9.422c0-1.208-0.982-2.188-2.189-2.188c-1.211,0-2.188,0.981-2.188,2.188v9.422 h-9.423c-1.209,0-2.191,0.982-2.191,2.191c0,1.209,0.982,2.191,2.191,2.191h9.423v9.423c0,1.206,0.978,2.188,2.188,2.188 c1.207,0,2.189-0.982,2.189-2.188v-9.423h9.422c1.207,0,2.189-0.982,2.189-2.191 C1001.981,601.975,1000.999,600.993,999.792,600.993z"/><path fill="#4d88ff" d="M865.069,413.664h-8.34v-8.342c0-1.07-0.869-1.939-1.938-1.939c-1.072,0-1.939,0.869-1.939,1.939v8.342 h-8.342c-1.069,0-1.938,0.868-1.938,1.938c0,1.069,0.869,1.938,1.938,1.938h8.342v8.34c0,1.071,0.867,1.94,1.939,1.94 c1.068,0,1.938-0.869,1.938-1.94v-8.34h8.34c1.07,0,1.939-0.869,1.939-1.938C867.009,414.531,866.14,413.664,865.069,413.664z"/><path fill="#4d88ff" d="M841.556,44.65h-15.068V29.585c0-1.932-1.566-3.502-3.499-3.502c-1.935,0-3.503,1.57-3.503,3.502V44.65 h-15.064c-1.932,0-3.502,1.569-3.502,3.501c0,1.934,1.57,3.502,3.502,3.502h15.064v15.067c0,1.931,1.568,3.5,3.503,3.5 c1.933,0,3.499-1.569,3.499-3.5V51.653h15.068c1.932,0,3.499-1.569,3.499-3.502C845.055,46.219,843.487,44.65,841.556,44.65z"/><path fill="#EFECE2" d="M148.422,850.08c-0.289,0-0.58-0.083-0.836-0.258c-7.805-5.288-13.014-7.977-13.066-8.004 c-0.734-0.376-1.025-1.277-0.648-2.013c0.377-0.734,1.279-1.025,2.014-0.648c0.217,0.111,5.408,2.788,13.379,8.189 c0.684,0.463,0.861,1.394,0.398,2.077C149.373,849.851,148.902,850.08,148.422,850.08z"/><path fill="#EFECE2" d="M184.322,1086.631c-0.721,0-1.355-0.522-1.473-1.258l-1.045-6.483c-0.131-0.814,0.424-1.582,1.238-1.713 c0.82-0.134,1.584,0.423,1.715,1.238l1.043,6.483c0.131,0.814-0.422,1.582-1.238,1.714 C184.482,1086.625,184.402,1086.631,184.322,1086.631z"/><path fill="#EFECE2" d="M182.213,1073.521c-0.721,0-1.355-0.522-1.475-1.257l-2.529-15.707c-0.131-0.815,0.424-1.583,1.238-1.715 c0.816-0.13,1.584,0.424,1.715,1.239l2.529,15.706c0.131,0.815-0.424,1.583-1.238,1.715 C182.371,1073.515,182.291,1073.521,182.213,1073.521z"/><polygon fill="#FF7C2B" points="166.469 1002.773 307.805 1002.773 292.75 1089.074 180.301 1089.074"/><path fill="#16a34a" d="M376.87,913.308c-13.519,26.044-28.786,44.752-44.212,58.16c-49.486,42.979-100.609,31.307-100.609,31.307 s13.938-69.658,82.693-87.566C331.85,910.743,352.346,909.487,376.87,913.308z"/><path fill="#002300" d="M332.658,971.468c-49.486,42.979-100.609,31.307-100.609,31.307s13.938-69.658,82.693-87.566 c-20.059,45.577,10.135,22.124,14.406,28.893C333.596,951.147,337.094,955.403,332.658,971.468z"/><path fill="#002300" d="M232.572,1003.312l-1.039-1.076c0.066-0.064,6.773-6.517,17.762-15.844 c26.85-22.793,79.104-62.689,127.406-73.813l0.336,1.457c-47.994,11.053-100.029,50.791-126.775,73.496 C239.314,996.825,232.639,1003.248,232.572,1003.312z"/><rect width="44.491" height="1.496" x="266.562" y="979.239" fill="#002300" transform="matrix(0.9361 0.3517 -0.3517 0.9361 363.1133 -38.965)"/><rect width="48.138" height="1.495" x="272.322" y="974.121" fill="#002300" transform="matrix(0.9594 0.2822 -0.2822 0.9594 287.1621 -44.0188)"/><rect width="1.495" height="37.842" x="300.497" y="916.063" fill="#002300" transform="matrix(0.9381 0.3463 -0.3463 0.9381 342.3726 -46.4698)"/><path fill="#002300" d="M315.996,940.119l-0.754-1.292l0.377,0.646l-0.381-0.644c1.352-0.884,6.957-14.169,11.596-26.502 l1.402,0.527C326.615,917.159,318.412,938.711,315.996,940.119z"/><rect width="29.894" height="1.495" x="329.278" y="936.929" fill="#002300" transform="matrix(0.8965 0.443 -0.443 0.8965 451.0119 -55.4625)"/><rect width="1.495" height="33.742" x="256.598" y="949.034" fill="#002300" transform="matrix(0.9901 0.1404 -0.1404 0.9901 138.1776 -26.5657)"/><rect width="48.304" height="1.495" x="283.894" y="965.372" fill="#002300" transform="matrix(0.9631 0.2693 -0.2693 0.9631 271.5467 -47.2645)"/><path fill="#16a34a" d="M304.527,933.355c-22.791,59.019-71.551,72.679-71.551,72.679s-11.598-37.469,4.074-76.305 c10.432-25.843,32.924-52.29,78.924-68.718C316.535,890.555,311.885,914.317,304.527,933.355z"/><path fill="#002300" d="M304.527,933.355c-22.791,59.019-71.551,72.679-71.551,72.679s-11.598-37.469,4.074-76.305 c-0.598,14.887,10.85,15.025,15.246,21.418C257.965,959.389,263.551,933.524,304.527,933.355z"/><path fill="#002300" d="M233.688,1006.26l-1.428-0.45c0.027-0.087,2.789-8.795,7.898-21.991 c12.482-32.24,38.865-91.138,75.318-123.364l0.99,1.12c-36.215,32.017-62.48,90.671-74.914,122.784 C236.463,997.507,233.713,1006.174,233.688,1006.26z"/><rect width="1.496" height="43.67" x="270.505" y="937.953" fill="#002300" transform="matrix(0.1371 0.9906 -0.9906 0.1371 1184.7793 559.4875)"/><rect width="1.494" height="47.252" x="274.65" y="928.194" fill="#002300" transform="matrix(0.2104 0.9776 -0.9776 0.2104 1147.9576 482.3052)"/><rect width="37.144" height="1.496" x="242.323" y="914.395" fill="#002300" transform="matrix(0.143 0.9897 -0.9897 0.143 1129.3363 526.0886)"/><path fill="#002300" d="M276.037,912.668l-1.279-0.776l0.639,0.389l-0.641-0.385c0.748-1.405-0.639-15.484-2.416-28.283 l1.482-0.206C274.693,889.691,277.43,910.376,276.037,912.668z"/><rect width="1.495" height="29.344" x="298.485" y="882.656" fill="#002300" transform="matrix(0.0379 0.9993 -0.9993 0.0379 1184.5812 564.3185)"/><rect width="33.122" height="1.496" x="220.957" y="961.634" fill="#002300" transform="matrix(0.3489 0.9372 -0.9372 0.3489 1056.5807 404.0549)"/><rect width="1.495" height="47.415" x="280.603" y="915.105" fill="#002300" transform="matrix(0.2247 0.9744 -0.9744 0.2247 1132.9519 453.7328)"/><path fill="#16a34a" d="M121.916,866.864c-0.148-12.175,0.883-25.365,3.342-39.65c112.699,60.769,111.322,147.013,108.189,172.278 c-0.568,4.637-1.203,7.216-1.203,7.216s-67.701-14.663-97.041-77.84v-0.007C127.324,911.905,122.215,891.458,121.916,866.864"/><path fill="#002300" d="M233.447,999.492c-0.568,4.637-1.203,7.216-1.203,7.216s-67.701-14.663-97.041-77.84v-0.007 c0,0,67.139,23.845,80.188,35.511C223.197,971.349,229.582,987.573,233.447,999.492z"/><path fill="#002300" d="M232.246,1007.457c-0.41,0-0.443,0-5.836-6.108c-3.059-3.463-7.934-9.089-13.805-16.231 c-27.441-33.389-75.373-98.279-88.08-157.745l1.463-0.313c12.639,59.156,60.418,123.825,87.773,157.108 c11.357,13.821,18.955,21.95,19.027,22.026l-0.543,0.512V1007.457z"/><rect width="1.492" height="54.613" x="204.637" y="909.296" fill="#002300" transform="matrix(0.9304 0.3664 -0.3664 0.9304 357.4759 -10.115)"/><rect width="1.496" height="59.093" x="198.503" y="897.647" fill="#002300" transform="matrix(0.9546 0.2978 -0.2978 0.9546 285.1136 -17.2726)"/><rect width="46.454" height="1.497" x="127.162" y="919.713" fill="#002300" transform="matrix(0.9323 0.3616 -0.3616 0.9323 343.017 7.9044)"/><path fill="#002300" d="M155.525,903.271c-0.957-1.708-17.4-8.912-32.385-14.821l0.549-1.393 c5.244,2.069,31.49,12.537,33.141,15.482L155.525,903.271z"/><rect width="1.494" height="36.697" x="153.784" y="849.409" fill="#002300" transform="matrix(0.8891 0.4576 -0.4576 0.8891 414.2554 25.483)"/><rect width="41.42" height="1.495" x="166.775" y="974.197" fill="#002300" transform="matrix(0.9877 0.1565 -0.1565 0.9877 154.8453 -17.3267)"/><rect width="1.493" height="59.296" x="187.991" y="883.071" fill="#002300" transform="matrix(0.9587 0.2845 -0.2845 0.9587 267.4359 -15.9813)"/><polygon fill="#c54d00" points="277.264 1002.773 307.477 1002.773 292.422 1089.074 270.141 1089.074"/><path fill="#16a34a" d="M232.246,1006.709c0,0,15.736-78.657,104.848-64.772C295.938,1021.255,232.246,1006.709,232.246,1006.709z"/><path fill="#002300" d="M232.766,1007.247l-1.037-1.076c0.047-0.047,4.906-4.723,12.869-11.48 c19.453-16.513,57.318-45.42,92.328-53.482l0.336,1.457c-34.701,7.992-72.346,36.741-91.697,53.166 C237.643,1002.556,232.813,1007.201,232.766,1007.247z"/><rect width="32.212" height="1.496" x="257.232" y="989.464" fill="#002300" transform="matrix(0.9361 0.3517 -0.3517 0.9361 365.7218 -32.871)"/><rect width="34.852" height="1.494" x="261.403" y="985.76" fill="#002300" transform="matrix(0.9594 0.2822 -0.2822 0.9594 289.7442 -38.5895)"/><rect width="1.495" height="27.398" x="281.594" y="943.93" fill="#002300" transform="matrix(0.9379 0.3468 -0.3468 0.9379 349.6547 -38.4831)"/><path fill="#002300" d="M293.125,961.526l-0.752-1.293l-0.02,0.013c1.008-0.779,5.023-10.319,8.324-19.093l1.398,0.527 C299.957,947.313,294.844,960.525,293.125,961.526z"/><rect width="21.644" height="1.495" x="302.639" y="958.832" fill="#002300" transform="matrix(0.8965 0.443 -0.443 0.8965 457.5139 -39.5698)"/><rect width="1.497" height="24.43" x="249.811" y="967.802" fill="#002300" transform="matrix(0.9901 0.1402 -0.1402 0.9901 139.9077 -25.4529)"/><rect width="34.97" height="1.495" x="269.781" y="979.424" fill="#002300" transform="matrix(0.9631 0.2693 -0.2693 0.9631 274.5636 -41.1494)"/><path fill="#16a34a" d="M155.422,972.974c-3.482-6.139-6.551-13.297-9.037-21.641c74.541,2.557,86.432,55.773,86.432,55.773 S182.043,1019.903,155.422,972.974"/><path fill="#002300" d="M232.553,1007.807c-0.053-0.02-5.322-2.005-13.275-5.582c-19.434-8.74-54.824-26.913-73.479-50.427 l1.17-0.93c18.459,23.266,53.611,41.308,72.922,49.992c7.91,3.558,13.137,5.527,13.189,5.546L232.553,1007.807z"/><rect width="26.886" height="1.494" x="192.198" y="981.313" fill="#002300" transform="matrix(0.0848 0.9964 -0.9964 0.0848 1166.7102 693.8337)"/><rect width="29.09" height="1.495" x="186.333" y="978.503" fill="#002300" transform="matrix(0.1576 0.9875 -0.9875 0.1576 1136.2397 626.5725)"/><rect width="1.496" height="22.866" x="177.106" y="975.531" fill="#002300" transform="matrix(0.0901 0.9959 -0.9959 0.0901 1144.7888 720.9413)"/><path fill="#002300" d="M158.871,979.182l-0.127-1.489c5.02-0.426,16.846-1.311,18.248-0.355l-0.844,1.236l0.033,0.019 C175.168,978.127,166.584,978.527,158.871,979.182z"/><rect width="1.496" height="18.064" x="167.411" y="953.781" fill="#002300" transform="matrix(0.9999 0.0144 -0.0144 0.9999 13.8422 -2.3152)"/><rect width="1.495" height="20.391" x="205.382" y="992.688" fill="#002300" transform="matrix(0.2991 0.9542 -0.9542 0.2991 1101.4343 506.1993)"/><rect width="29.189" height="1.497" x="178.483" y="974.417" fill="#002300" transform="matrix(0.1709 0.9853 -0.9853 0.1709 1120.9009 618.2773)"/><path fill="#c54d00" d="M188.07,1019.263c-0.367,0-0.688-0.271-0.74-0.647c-0.055-0.409,0.232-0.785,0.641-0.841l93.455-12.645 c0.41-0.053,0.785,0.232,0.842,0.641c0.055,0.409-0.23,0.786-0.641,0.842l-93.455,12.645 C188.137,1019.261,188.104,1019.263,188.07,1019.263z"/><path fill="#c54d00" d="M197.094,1031.874c-0.369,0-0.689-0.272-0.74-0.647c-0.055-0.409,0.23-0.786,0.641-0.842l86.27-11.673 c0.406-0.056,0.787,0.231,0.842,0.641c0.057,0.409-0.23,0.786-0.639,0.842l-86.271,11.673 C197.16,1031.872,197.127,1031.874,197.094,1031.874z"/><path fill="#c54d00" d="M202.729,1044.94c-0.369,0-0.689-0.272-0.74-0.647c-0.055-0.409,0.232-0.786,0.641-0.842l82.473-11.159 c0.408-0.056,0.787,0.232,0.842,0.642s-0.23,0.786-0.641,0.841l-82.473,11.159C202.797,1044.938,202.762,1044.94,202.729,1044.94z"/><path fill="#c54d00" d="M209.521,1057.853c-0.369,0-0.689-0.273-0.74-0.648c-0.057-0.408,0.232-0.785,0.641-0.841l77.518-10.489 c0.41-0.049,0.785,0.231,0.84,0.642c0.057,0.409-0.23,0.785-0.639,0.841l-77.52,10.489 C209.588,1057.85,209.555,1057.853,209.521,1057.853z"/><path fill="#c54d00" d="M213.238,1071.18c-0.369,0-0.689-0.272-0.74-0.647c-0.057-0.409,0.232-0.786,0.641-0.842l75.639-10.234 c0.408-0.051,0.785,0.231,0.842,0.642c0.055,0.409-0.232,0.785-0.641,0.841l-75.641,10.234 C213.305,1071.178,213.271,1071.18,213.238,1071.18z"/><path fill="#c54d00" d="M223.186,1083.663c-0.367,0-0.689-0.271-0.74-0.647c-0.055-0.409,0.232-0.785,0.643-0.841l67.527-9.137 c0.412-0.053,0.785,0.232,0.842,0.642c0.055,0.408-0.232,0.785-0.641,0.841l-67.529,9.137 C223.254,1083.661,223.221,1083.663,223.186,1083.663z"/><path fill="#FFF" d="M215.861,928.689c-0.578,0-1.127-0.337-1.373-0.9c-1.547-3.567-3.264-7.146-5.104-10.637 c-0.385-0.73-0.105-1.635,0.625-2.021c0.73-0.385,1.635-0.105,2.02,0.626c1.877,3.557,3.627,7.204,5.203,10.841 c0.33,0.758-0.02,1.639-0.777,1.967C216.262,928.649,216.061,928.689,215.861,928.689z"/><path fill="#FFF" d="M205.463,908.747c-0.502,0-0.994-0.254-1.277-0.714c-2.273-3.705-4.744-7.399-7.344-10.979 c-0.486-0.669-0.338-1.604,0.33-2.089s1.604-0.337,2.09,0.33c2.645,3.644,5.16,7.402,7.475,11.174 c0.432,0.703,0.211,1.625-0.492,2.057C206,908.676,205.729,908.747,205.463,908.747z"/><path fill="#FFF" d="M192.564,890.502c-0.438,0-0.871-0.19-1.166-0.558c-9.246-11.476-20.109-22.144-32.293-31.705 c-0.65-0.51-0.764-1.451-0.254-2.1c0.512-0.65,1.451-0.763,2.1-0.254c12.361,9.703,23.389,20.53,32.775,32.183 c0.52,0.644,0.418,1.584-0.225,2.103C193.225,890.394,192.893,890.502,192.564,890.502z"/><path fill="#FFF" d="M214.869,982.354c-0.357,0-0.717-0.127-1.002-0.386c-4.445-4.015-10.951-8.312-19.332-12.771 c-0.73-0.387-1.008-1.293-0.619-2.022c0.387-0.729,1.293-1.005,2.023-0.617c8.598,4.573,15.305,9.013,19.932,13.192 c0.613,0.553,0.662,1.498,0.107,2.111C215.684,982.188,215.277,982.354,214.869,982.354z"/><path fill="#FFF" d="M187.904,967.493c-0.18,0-0.361-0.033-0.537-0.101c-5.98-2.301-12.574-4.556-19.598-6.702 c-0.791-0.241-1.234-1.078-0.994-1.867c0.242-0.79,1.076-1.236,1.869-0.994c7.09,2.168,13.75,4.446,19.797,6.772 c0.77,0.297,1.154,1.162,0.859,1.933C189.07,967.128,188.504,967.493,187.904,967.493z"/><path fill="#FFF" d="M161.881,958.89c-0.135,0-0.273-0.019-0.41-0.058c-4.438-1.264-7.271-1.971-7.299-1.978 c-0.803-0.199-1.291-1.011-1.092-1.813c0.199-0.801,1.01-1.293,1.813-1.09c0.029,0.007,2.906,0.725,7.398,2.003 c0.793,0.227,1.254,1.054,1.027,1.849C163.133,958.46,162.533,958.89,161.881,958.89z"/><path fill="#FFF" d="M309.635,885.005c-0.068,0-0.137-0.004-0.203-0.014c-0.818-0.111-1.393-0.864-1.281-1.683 c0.396-2.933,0.76-5.743,0.846-7.904c0.033-0.826,0.713-1.474,1.553-1.436c0.826,0.032,1.469,0.728,1.436,1.552 c-0.09,2.294-0.463,5.184-0.871,8.189C311.012,884.461,310.369,885.005,309.635,885.005z"/><path fill="#FFF" d="M285.471,882.085c-0.459,0-0.91-0.208-1.205-0.605c-0.49-0.662-0.352-1.6,0.313-2.091 c4.096-3.036,8.053-5.614,11.762-7.663c2.256-1.247,4.135-2.172,5.74-2.826c0.764-0.314,1.639,0.053,1.951,0.82 c0.311,0.764-0.057,1.637-0.822,1.948c-1.496,0.61-3.27,1.485-5.422,2.675c-3.592,1.985-7.438,4.492-11.428,7.448 C286.092,881.989,285.779,882.085,285.471,882.085z"/><path fill="#FFF" d="M266.686,898.823c-0.289,0-0.58-0.083-0.838-0.258c-0.684-0.463-0.863-1.393-0.398-2.076 c0.902-1.333,5.131-5.572,10.383-10.096c0.627-0.539,1.572-0.469,2.109,0.158c0.539,0.625,0.469,1.569-0.156,2.108 c-5.846,5.032-9.373,8.788-9.861,9.507C267.635,898.593,267.164,898.823,266.686,898.823z"/><path fill="#FFF" d="M334.307,919.499c-0.736,0-1.377-0.544-1.48-1.293c-0.111-0.818,0.461-1.572,1.279-1.685 c1.9-0.261,3.787-0.499,5.604-0.708c0.82-0.093,1.563,0.495,1.656,1.314c0.096,0.82-0.494,1.563-1.314,1.657 c-1.795,0.207-3.658,0.442-5.539,0.699C334.441,919.494,334.373,919.499,334.307,919.499z"/><path fill="#FFF" d="M307.842,946.538c-0.709,0-1.34-0.508-1.471-1.23c-0.146-0.813,0.395-1.59,1.209-1.736 c2.035-0.366,4.092-0.688,6.119-0.953c0.82-0.098,1.568,0.469,1.678,1.288c0.107,0.819-0.471,1.569-1.289,1.678 c-1.979,0.259-3.99,0.573-5.98,0.931C308.02,946.531,307.93,946.538,307.842,946.538z"/><path fill="#FFF" d="M290.258,951.02c-0.625,0-1.209-0.396-1.418-1.022c-0.262-0.784,0.162-1.631,0.945-1.893 c0.719-0.239,1.449-0.476,2.189-0.707c0.789-0.244,1.627,0.194,1.873,0.983c0.246,0.788-0.195,1.627-0.984,1.872 c-0.721,0.225-1.43,0.456-2.131,0.689C290.576,950.994,290.416,951.02,290.258,951.02z"/><path fill="#FFF" d="M261.986,964.853c-0.475,0-0.941-0.227-1.232-0.646c-0.469-0.681-0.299-1.611,0.383-2.08 c0.563-0.389,1.184-0.809,1.865-1.253c0.691-0.452,1.617-0.256,2.068,0.436c0.451,0.692,0.256,1.618-0.436,2.069 c-0.658,0.43-1.258,0.835-1.801,1.21C262.574,964.767,262.277,964.853,261.986,964.853z"/><path fill="#FFF" d="M258.24,967.614c-0.447,0-0.893-0.202-1.188-0.586c-0.502-0.654-0.379-1.594,0.277-2.096l0.17-0.134 c0.518-0.406,1.727-1.356,3.635-2.673c0.68-0.469,1.611-0.299,2.082,0.381c0.469,0.681,0.297,1.611-0.383,2.081 c-1.832,1.264-2.992,2.175-3.488,2.563l-0.195,0.152C258.879,967.513,258.559,967.614,258.24,967.614z"/><path fill="#FFF" d="M178.316,1049.318c-0.721,0-1.357-0.522-1.475-1.258l-3.844-23.87c-0.131-0.815,0.424-1.583,1.238-1.715 c0.816-0.133,1.584,0.424,1.715,1.24l3.844,23.87c0.131,0.815-0.424,1.582-1.238,1.714 C178.475,1049.313,178.395,1049.318,178.316,1049.318z"/><path fill="#FFF" d="M173.496,1019.383c-0.721,0-1.355-0.522-1.473-1.258l-1.457-9.042c-0.131-0.814,0.424-1.582,1.24-1.714 c0.816-0.129,1.582,0.424,1.713,1.239l1.455,9.042c0.131,0.814-0.422,1.582-1.238,1.714 C173.656,1019.377,173.576,1019.383,173.496,1019.383z"/><path fill="#002300" d="M137.488,934.646c-0.334,0-0.664-0.148-0.885-0.433c-2.705-3.473-5.111-8.408-7.15-14.67 c-0.191-0.59,0.131-1.223,0.719-1.414c0.588-0.194,1.223,0.13,1.414,0.719c1.959,6.015,4.242,10.721,6.787,13.986 c0.381,0.488,0.293,1.193-0.195,1.574C137.973,934.569,137.73,934.646,137.488,934.646z"/><path fill="#002300" d="M127.381,908.347c-0.518,0-0.984-0.361-1.096-0.889c-1.852-8.76-3.27-19.218-4.217-31.083 c-0.051-0.617,0.41-1.158,1.029-1.207c0.611-0.039,1.156,0.411,1.207,1.029c0.939,11.769,2.344,22.13,4.176,30.796 c0.127,0.605-0.26,1.201-0.865,1.33C127.535,908.339,127.459,908.347,127.381,908.347z"/><path fill="#002300" d="M122.326,863.51c-0.598,0-1.094-0.47-1.119-1.071c-0.623-13.781-0.428-24.053-0.428-24.154 c0.014-0.611,0.514-1.1,1.123-1.1c0,0,0.014,0,0.021,0c0.619,0.013,1.111,0.524,1.1,1.144c-0.002,0.102-0.195,10.306,0.424,24.01 c0.027,0.618-0.451,1.143-1.07,1.17C122.359,863.509,122.342,863.51,122.326,863.51z"/><path fill="#002300" d="M187.865,1003.901c-0.15,0-0.301-0.029-0.445-0.094c-3.475-1.505-6.871-3.383-10.094-5.581 c-0.512-0.349-0.643-1.047-0.295-1.56c0.35-0.51,1.047-0.644,1.561-0.294c3.105,2.118,6.375,3.928,9.719,5.378 c0.568,0.246,0.83,0.906,0.584,1.475C188.711,1003.648,188.299,1003.901,187.865,1003.901z"/><path fill="#002300" d="M166.783,988.825c-0.297,0-0.594-0.117-0.814-0.351c-13.053-13.793-18.387-29.419-18.607-30.077 c-0.197-0.588,0.119-1.223,0.707-1.42c0.586-0.195,1.223,0.119,1.42,0.706c0.053,0.157,5.41,15.83,18.109,29.249 c0.426,0.449,0.406,1.159-0.043,1.586C167.338,988.724,167.061,988.825,166.783,988.825z"/><path fill="#002300" d="M285.713,876.322c-0.393,0-0.773-0.207-0.979-0.575c-0.303-0.54-0.109-1.224,0.432-1.525 c11.252-6.277,18.826-9.701,18.9-9.736c0.566-0.253,1.23-0.001,1.484,0.563c0.254,0.565,0.002,1.229-0.563,1.484 c-0.074,0.032-7.57,3.422-18.729,9.648C286.086,876.277,285.898,876.322,285.713,876.322z"/><path fill="#002300" d="M257.85,897.49c-0.275,0-0.553-0.101-0.77-0.306c-0.449-0.424-0.473-1.134-0.047-1.585 c2.883-3.063,5.988-5.986,9.225-8.687c0.477-0.398,1.184-0.333,1.58,0.143c0.396,0.475,0.334,1.183-0.143,1.579 c-3.168,2.644-6.207,5.505-9.029,8.503C258.445,897.372,258.146,897.49,257.85,897.49z"/><path fill="#002300" d="M246.725,911.568c-0.213,0-0.426-0.06-0.615-0.185c-0.52-0.34-0.662-1.035-0.322-1.553 c2.064-3.141,4.336-6.213,6.748-9.133c0.395-0.479,1.1-0.546,1.578-0.15c0.479,0.395,0.545,1.103,0.15,1.579 c-2.361,2.858-4.582,5.864-6.602,8.937C247.447,911.392,247.09,911.568,246.725,911.568z"/><path fill="#002300" d="M237.051,930.851c-0.105,0-0.213-0.016-0.32-0.048c-0.594-0.177-0.93-0.802-0.754-1.395 c0.053-0.176,1.322-4.372,4.611-10.717c0.285-0.549,0.963-0.763,1.512-0.479c0.549,0.285,0.764,0.963,0.48,1.513 c-3.184,6.138-4.441,10.284-4.453,10.325C237.98,930.536,237.535,930.851,237.051,930.851z"/><path fill="#002300" d="M292.869,944.801c-0.492,0-0.943-0.327-1.08-0.824c-0.164-0.597,0.188-1.215,0.783-1.379 c5.797-1.597,11.918-2.693,18.195-3.261c0.615-0.049,1.162,0.398,1.219,1.017c0.055,0.617-0.4,1.161-1.018,1.218 c-6.145,0.555-12.135,1.628-17.801,3.189C293.068,944.787,292.969,944.801,292.869,944.801z"/><path fill="#002300" d="M261.48,960.56c-0.33,0-0.658-0.145-0.879-0.424c-0.385-0.485-0.305-1.191,0.182-1.576 c5.18-4.11,10.902-7.648,17.004-10.516c0.563-0.264,1.23-0.022,1.492,0.538c0.264,0.562,0.023,1.229-0.537,1.492 c-5.947,2.794-11.52,6.239-16.564,10.242C261.971,960.48,261.725,960.56,261.48,960.56z"/><path fill="#002300" d="M245.428,978.014c-0.188,0-0.377-0.047-0.551-0.146c-0.539-0.305-0.729-0.989-0.424-1.528 c0.119-0.21,2.988-5.215,9.359-11.576c0.439-0.438,1.148-0.438,1.586,0.001c0.439,0.438,0.438,1.148,0,1.586 c-6.158,6.147-8.965,11.047-8.992,11.095C246.199,977.81,245.818,978.014,245.428,978.014z"/><path fill="#16a34a" d="M653.726,443.211c-3.232,3.48-38.535,42.825-9.175,85.37c0,0.017,0.034,0.017,0.034,0.052 c20.06,14.047,33.156,37.375,33.156,63.745c0,35.938-24.366,66.191-57.487,75.14c-8.948,3.482-20.867,17.298-28.286,26.81 c-3.867,4.924-6.521,8.704-6.928,9.32c-0.051,0.068-0.068,0.084-0.068,0.084c-8.877,9.32-21.381,15.106-35.248,15.106 c-16.545,0-31.172-8.265-39.965-20.905c-16.646-21.097-28.599-29.149-34.596-32.155c-2.566-1.265-4.045-1.635-4.377-1.705 c-0.053-0.032-0.072-0.032-0.072-0.032c-27.881-11.817-47.447-39.472-47.447-71.663c0-23.942,10.795-45.355,27.794-59.613v-0.036 c17.315-27.511,16.438-50.402,10.302-67.21c-2.811-7.681-6.715-14.1-10.479-19.091c-6.115-8.122-11.866-12.5-11.866-12.5 c-9.899-13.043-15.751-29.306-15.751-46.938c0-24.471,11.267-46.29,28.936-60.531c0,0,0-0.035,0.02-0.035 c31.256-43.669,2.584-74.855,0.156-77.388c-0.121-0.125-0.176-0.156-0.176-0.156c-17.669-14.259-28.936-36.078-28.936-60.55 c0-34.384,22.327-63.622,53.25-73.835c0,0,0.037,0,0.055-0.021c0.053,0,0.087-0.051,0.174-0.069c0.018,0,0.018-0.035,0.037-0.035 c1.898-0.916,13.695-7.26,24.662-28.831c2.973-24.032,23.455-42.632,48.279-42.632c18.526,0,34.631,10.335,42.857,25.561 c0,0,0,0.02,0.018,0.089c0.125,0.826,1.249,7.752,5.363,16.49c4.186,8.913,11.428,19.691,23.859,27.794c0,0,0,0,0.014,0 c0.826,0.546,1.672,1.073,2.535,1.583c19.705,6.523,35.932,20.692,45.127,39.01c3.975,7.894,6.628,16.562,7.7,25.705 c0.37,3.021,0.544,6.081,0.544,9.192c0,21.994-9.104,41.843-23.787,55.996c0,0-0.069,0.07-0.208,0.21 c-3.185,3.287-39.153,41.928-4.96,81.888l0.018,0.035c17.67,14.242,28.938,36.061,28.938,60.531 c0,21.975-9.104,41.824-23.787,55.975C653.954,442.964,653.885,443.053,653.726,443.211z"/><path fill="#002300" d="M653.726,443.211c-3.232,3.48-38.535,42.825-9.175,85.37c0,0.017,0.034,0.017,0.034,0.052 c20.06,14.047,33.156,37.375,33.156,63.745c0,35.938-24.366,66.191-57.487,75.14c-8.948,3.482-20.867,17.298-28.286,26.81 c-3.867,4.924-6.521,8.704-6.928,9.32c-0.051,0.068-0.068,0.084-0.068,0.084c-8.877,9.32-21.381,15.106-35.248,15.106 c-16.545,0-31.172-8.265-39.965-20.905c-16.646-21.097-28.599-29.149-34.596-32.155c-2.566-1.265-4.045-1.635-4.377-1.705 c-0.053-0.032-0.072-0.032-0.072-0.032c-27.881-11.817-47.447-39.472-47.447-71.663c0-23.942,10.795-45.355,27.794-59.613v-0.036 c17.315-27.511,16.438-50.402,10.302-67.21c15.137-25.437,29.5-50.422,38.008-65.961c21.537-39.292,15.384-124.205,30.274-193.383 c8.74-40.558,55.22-73.242,92.177-93.335c0,0,0,0,0.014,0c0.826,0.546,1.672,1.073,2.535,1.583 c19.705,6.523,35.932,20.692,45.127,39.01c1.828,7.842,4.324,16.42,7.7,25.705c0.37,3.021,0.544,6.081,0.544,9.192 c0,21.994-9.104,41.843-23.787,55.996c0,0-0.069,0.07-0.208,0.21c-3.185,3.287-39.153,41.928-4.96,81.888l0.018,0.035 c17.67,14.242,28.938,36.061,28.938,60.531c0,21.975-9.104,41.824-23.787,55.975C653.954,442.964,653.885,443.053,653.726,443.211z"/><path fill="#002300" d="M555.694,887.556c-0.076-1.801-7.727-182.353-7.727-398.853V42.898h3.518v445.804 c0,216.42,7.645,396.905,7.723,398.701L555.694,887.556z"/><rect width="3.514" height="127.548" x="585.288" y="102.366" fill="#002300" transform="matrix(0.8109 0.5852 -0.5852 0.8109 208.2579 -312.1325)"/><rect width="3.518" height="153.315" x="599.483" y="111.298" fill="#002300" transform="matrix(0.7495 0.662 -0.662 0.7495 275.0604 -350.9553)"/><rect width="135.684" height="3.518" x="431.529" y="288.245" fill="#002300" transform="matrix(0.7537 0.6572 -0.6572 0.7537 313.5986 -256.7701)"/><polygon fill="#002300" points="548.918 355.61 461.296 310.335 462.905 307.209 550.532 352.486"/><rect width="3.518" height="155.778" x="604.102" y="316.203" fill="#002300" transform="matrix(0.6934 0.7206 -0.7206 0.6934 469.7459 -315.7312)"/><rect width="3.515" height="98.207" x="589.686" y="465.502" fill="#002300" transform="matrix(0.5273 0.8497 -0.8497 0.5273 716.837 -259.281)"/><rect width="3.516" height="98.474" x="592.019" y="488.857" fill="#002300" transform="matrix(0.4772 0.8788 -0.8788 0.4772 783.2684 -240.4999)"/><rect width="3.516" height="145.103" x="612.368" y="554.69" fill="#002300" transform="matrix(0.4805 0.877 -0.877 0.4805 869.121 -212.7354)"/><rect width="132.846" height="3.516" x="423.246" y="588.199" fill="#002300" transform="matrix(0.9042 0.4272 -0.4272 0.9042 298.9382 -152.6373)"/><rect width="134.933" height="3.516" x="419.026" y="614.133" fill="#002300" transform="matrix(0.9373 0.3486 -0.3486 0.9373 245.214 -130.9565)"/><rect width="96.914" height="3.513" x="456.198" y="477.178" fill="#002300" transform="matrix(0.9301 0.3673 -0.3673 0.9301 211.1772 -151.8792)"/><rect width="143.536" height="3.514" x="415.279" y="425.857" fill="#002300" transform="matrix(0.8842 0.4671 -0.4671 0.8842 256.1431 -177.9863)"/><rect width="91.495" height="3.516" x="467.508" y="140.24" fill="#002300" transform="matrix(0.7972 0.6037 -0.6037 0.7972 189.8317 -281.076)"/><path fill="#16a34a" d="M726.651,398.346c-0.142,2.057-0.422,4.114-0.825,6.188c-2.815,14.644-11.411,26.688-22.979,34.229 c0,0-0.068,0.035-0.176,0.125c-2.532,1.776-31.416,22.906-13.764,53.864l0.018,0.036c9.93,11.729,14.644,27.689,11.516,43.986 c-2.813,14.627-11.412,26.67-22.979,34.211c0,0-0.073,0.055-0.192,0.139c-2.604,1.9-31.119,23.579-17.02,55.644 c0,0.017,0.018,0.017,0.018,0.052c11.551,11.904,17.301,29.114,13.926,46.658c-4.592,23.928-24.685,40.943-47.872,42.668 c-6.399,1.178-16.104,8.846-22.258,14.24c-3.198,2.778-5.449,4.957-5.803,5.31c-0.034,0.035-0.052,0.052-0.052,0.052 c-7.104,5.065-16.156,7.315-25.384,5.539c-11.026-2.11-19.69-9.476-23.929-19.021c-8.385-16.157-15.314-23.049-18.933-25.824 c-1.529-1.162-2.479-1.602-2.69-1.69c-0.035-0.035-0.035-0.035-0.035-0.035c-17.053-11.427-26.549-32.332-22.435-53.761 c3.06-15.929,12.993-28.816,26.125-36.128v-0.019c15.05-16.103,17.388-31.448,15.452-43.421c-0.895-5.468-2.67-10.25-4.533-14.048 c-3.042-6.188-6.295-9.842-6.295-9.842c-2.057-4.15-3.569-8.6-4.482-13.203c-1.248-6.434-1.335-13.222-0.018-20.043 c3.129-16.298,13.414-29.38,27.004-36.604c0,0,0-0.018,0.018-0.018c26.389-25.067,11.286-49.489,9.985-51.493 c-0.052-0.087-0.087-0.123-0.087-0.123c-9.934-11.743-14.645-27.708-11.535-44.005c4.395-22.888,22.996-39.483,44.883-42.333 c0,0,0.033,0,0.055-0.016c0.035,0.016,0.053-0.017,0.121-0.017l0.018-0.018c1.391-0.371,10.059-3.077,20.114-16.035 c5.046-15.626,21.062-25.386,37.568-22.202c12.341,2.355,21.747,11.302,25.265,22.483c0,0,0,0.019,0,0.055 c-0.021,0.579-0.159,5.326,1.475,11.673c1.634,6.469,5.081,14.556,12.324,21.552c0.492,0.459,0.984,0.916,1.494,1.373 c6.539,3.656,12.147,8.632,16.545,14.52c3.848,5.133,6.75,10.972,8.508,17.211C726.44,386.023,727.089,392.123,726.651,398.346z"/><path fill="#002300" d="M726.651,398.346c-0.142,2.057-0.422,4.114-0.825,6.188c-2.815,14.644-11.411,26.688-22.979,34.229 c0,0-0.068,0.035-0.176,0.125c-2.532,1.776-31.416,22.906-13.764,53.864l0.018,0.036c9.93,11.729,14.644,27.689,11.516,43.986 c-2.813,14.627-11.412,26.67-22.979,34.211c0,0-0.073,0.055-0.192,0.139c-2.604,1.9-31.119,23.579-17.02,55.644 c0,0.017,0.018,0.017,0.018,0.052c11.551,11.904,17.301,29.114,13.926,46.658c-4.592,23.928-24.685,40.943-47.872,42.668 c-6.399,1.178-16.104,8.846-22.258,14.24c-3.198,2.778-5.449,4.957-5.803,5.31c-0.034,0.035-0.052,0.052-0.052,0.052 c-7.104,5.065-16.156,7.315-25.384,5.539c-11.026-2.11-19.69-9.476-23.929-19.021c-8.385-16.157-15.314-23.049-18.933-25.824 c-1.529-1.162-2.479-1.602-2.69-1.69c-0.035-0.035-0.035-0.035-0.035-0.035c-17.053-11.427-26.549-32.332-22.435-53.761 c3.06-15.929,12.993-28.816,26.125-36.128v-0.019c15.05-16.103,17.388-31.448,15.452-43.421c-0.895-5.468-2.67-10.25-4.533-14.048 c-3.042-6.188-6.295-9.842-6.295-9.842c-2.057-4.15-3.569-8.6-4.482-13.203c22.695,2.529,16.632,43.104,26.057,86.371 c10.738,49.257-16.001,65.504,19.739,70.443c35.726,4.942,46.007-49.771,59.14-88.745c13.135-38.994,29.063-40.138,26.11-66.824 c-2.954-26.703-2.323-57.699,29.657-97.921c17.055-21.432,22.836-46.149,24.525-64.574c3.848,5.133,6.75,10.972,8.508,17.211 C726.44,386.023,727.089,392.123,726.651,398.346z"/><path fill="#002300" d="M558.147,854.791l-3.479-0.514c0.18-1.207,18.164-122.379,45.836-266.498l56.975-296.736l3.451,0.663 l-56.973,296.736C576.3,732.484,558.325,853.584,558.147,854.791z"/><rect width="3.515" height="86.451" x="666.539" y="334.95" fill="#002300" transform="matrix(0.6857 0.7278 -0.7278 0.6857 485.2662 -367.5701)"/><rect width="3.513" height="103.917" x="673.202" y="342.551" fill="#002300" transform="matrix(0.6115 0.7912 -0.7912 0.6115 574.3533 -380.7875)"/><rect width="91.967" height="3.516" x="548.126" y="447.66" fill="#002300" transform="matrix(0.6162 0.7876 -0.7876 0.6162 581.9369 -295.4272)"/><rect width="66.851" height="3.517" x="559.746" y="476.055" fill="#002300" transform="matrix(0.7859 0.6183 -0.6183 0.7859 422.4359 -264.4847)"/><rect width="3.518" height="105.582" x="649.929" y="479.519" fill="#002300" transform="matrix(0.5444 0.8388 -0.8388 0.5444 743.4166 -304.1326)"/><rect width="3.512" height="66.561" x="624.93" y="577.402" fill="#002300" transform="matrix(0.357 0.9341 -0.9341 0.357 973.3896 -192.7265)"/><rect width="3.516" height="66.745" x="623.481" y="593.242" fill="#002300" transform="matrix(0.303 0.953 -0.953 0.303 1032.9231 -159.1106)"/><rect width="3.516" height="98.35" x="625.633" y="639.38" fill="#002300" transform="matrix(0.3067 0.9518 -0.9518 0.3067 1090.3658 -119.7649)"/><rect width="90.038" height="3.516" x="504.295" y="646.074" fill="#002300" transform="matrix(0.8074 0.59 -0.59 0.8074 488.0128 -199.3248)"/><polygon fill="#002300" points="582.054 689.925 503.89 642.454 505.716 639.451 583.882 686.922"/><rect width="65.688" height="3.515" x="540.638" y="574.091" fill="#002300" transform="matrix(0.8442 0.5361 -0.5361 0.8442 398.0745 -217.6976)"/><rect width="97.284" height="3.514" x="519.674" y="537.682" fill="#002300" transform="matrix(0.7803 0.6255 -0.6255 0.7803 462.2817 -236.9207)"/><rect width="62.012" height="3.518" x="591.261" y="350.917" fill="#002300" transform="matrix(0.669 0.7433 -0.7433 0.669 468.0956 -345.7705)"/><path fill="#16a34a" d="M537.292,666.624c-5.713,5.487-10.391,19.777-13.027,29.377c-1.37,4.977-2.195,8.684-2.303,9.28 c-0.018,0.074-0.035,0.09-0.035,0.09c-3.781,9.914-11.463,18.282-22.012,22.698c-12.602,5.235-26.351,3.601-37.059-3.219 c-1.195-0.669-2.375-1.301-3.499-1.897c-17.28-9.162-27.846-11.235-33.034-11.607c-2.353-0.141-3.584,0.038-3.867,0.107 c-0.053-0.018-0.07-0.018-0.07-0.018c-24.961-0.123-48.626-14.961-58.857-39.467c-7.597-18.215-6.172-37.938,2.23-54.183 l-0.015-0.017c4.446-26.444-3.482-43.584-13.485-54.415c-4.59-4.957-9.598-8.613-14.045-11.214 c-7.229-4.237-12.993-5.731-12.993-5.731c-11.675-6.786-21.29-17.299-26.898-30.73c-7.755-18.618-6.118-38.799,2.813-55.238 c0,0-0.021-0.037,0-0.037c9.913-43.159-21.801-57.786-24.454-58.945c-0.124-0.052-0.18-0.052-0.18-0.052 c-17.964-5.241-33.469-18.269-41.239-36.902c-10.921-26.16-3.201-55.502,17.087-73.083c0,0,0.018-0.018,0.034-0.035 c0.035-0.016,0.053-0.071,0.105-0.107c0.02,0,0-0.033,0.02-0.033c1.159-1.302,8.121-9.88,9.615-29.78 c-5.379-19.236,4.309-39.874,23.205-47.769c14.1-5.872,29.625-3.13,40.717,5.855c0,0,0.018,0,0.056,0.052 c0.348,0.599,3.407,5.504,9.316,10.848c6.012,5.449,14.94,11.357,26.968,13.572c0,0,0,0,0.018,0c0.806,0.16,1.617,0.28,2.426,0.403 c14.186-1.07,28.199,2.638,39.891,10.232c0.016,0.019,0.016,0.019,0.016,0.019c2.375,1.53,4.66,3.234,6.822,5.097 c5.535,4.747,10.301,10.515,14.012,17.124c1.246,2.182,2.355,4.446,3.341,6.821c6.979,16.737,6.345,34.741-0.319,50.157 c0,0-0.035,0.087-0.104,0.229c-1.371,3.516-16.473,44.337,22.223,63.886l0.035,0.038c17.967,5.22,33.454,18.245,41.224,36.864 c6.979,16.719,6.348,34.721-0.333,50.141c0,0-0.018,0.084-0.087,0.262c-1.353,3.675-15.733,44.83,20.11,67.878 c0.018,0.018,0.035,0,0.056,0.035c19.722,4.325,37.091,17.912,45.46,37.974C568.586,618.523,559.653,649.289,537.292,666.624z"/><path fill="#002300" d="M537.292,666.624c-5.713,5.487-10.391,19.777-13.027,29.377c-1.37,4.977-2.195,8.684-2.303,9.28 c-0.018,0.074-0.035,0.09-0.035,0.09c-3.781,9.914-11.463,18.282-22.012,22.698c-12.602,5.235-26.351,3.601-37.059-3.219 c-1.195-0.669-2.375-1.301-3.499-1.897c24.155-13.664,35.407-36.271,40.013-58.265c5.713-27.282,15.384-51.81-7.117-73.502 c-22.486-21.694-35.514-52.145-41.58-91.403c-6.064-39.237-25.578-71.498-37.375-84.013c-11.813-12.518-6.662-56.029,0-106.134 c3.182-23.979-2.146-42.334-8.563-54.956c2.375,1.53,4.66,3.234,6.822,5.097c5.535,4.747,10.301,10.515,14.012,17.124 c1.246,2.182,2.355,4.446,3.341,6.821c6.979,16.737,6.345,34.741-0.319,50.157c0,0-0.035,0.087-0.104,0.229 c-1.371,3.516-16.473,44.337,22.223,63.886l0.035,0.038c17.967,5.22,33.454,18.245,41.224,36.864 c6.979,16.719,6.348,34.721-0.333,50.141c0,0-0.018,0.084-0.087,0.262c-1.353,3.675-15.733,44.83,20.11,67.878 c0.018,0.018,0.035,0,0.056,0.035c19.722,4.325,37.091,17.912,45.46,37.974C568.586,618.523,559.653,649.289,537.292,666.624z"/><path fill="#002300" d="M557.737,854.685c-0.633-1.341-63.772-136.318-132.51-301.072l-141.526-339.24l3.245-1.353l141.529,339.24 c68.702,164.681,131.816,299.59,132.445,300.934L557.737,854.685z"/><rect width="3.517" height="105.167" x="351.089" y="243.046" fill="#002300" transform="matrix(0.9738 0.2273 -0.2273 0.9738 76.4258 -72.4591)"/><rect width="3.516" height="126.416" x="368.82" y="244.516" fill="#002300" transform="matrix(0.9467 0.3222 -0.3222 0.9467 118.9202 -102.9954)"/><rect width="111.874" height="3.514" x="269.515" y="415.964" fill="#002300" transform="matrix(0.9486 0.3164 -0.3164 0.9486 148.8664 -81.5058)"/><rect width="81.326" height="3.517" x="302.914" y="445.392" fill="#002300" transform="matrix(0.9967 0.0816 -0.0816 0.9967 37.6307 -26.543)"/><rect width="3.515" height="128.446" x="437.776" y="398.894" fill="#002300" transform="matrix(0.9173 0.3981 -0.3981 0.9173 220.7017 -136.6994)"/><rect width="3.517" height="80.974" x="465.06" y="518.915" fill="#002300" transform="matrix(0.8139 0.581 -0.581 0.8139 411.9224 -167.1216)"/><rect width="3.516" height="81.196" x="474.295" y="535.936" fill="#002300" transform="matrix(0.7783 0.6279 -0.6279 0.7783 467.5408 -171.0923)"/><rect width="3.518" height="119.64" x="518.08" y="578.094" fill="#002300" transform="matrix(0.7815 0.6239 -0.6239 0.7815 511.6118 -184.946)"/><rect width="109.531" height="3.517" x="358.529" y="647.292" fill="#002300" transform="matrix(0.9989 0.0461 -0.0461 0.9989 30.3633 -18.3644)"/><rect width="3.515" height="111.249" x="417.351" y="614.169" fill="#002300" transform="matrix(0.0389 0.9992 -0.9992 0.0389 1072.0925 224.9488)"/><polygon fill="#002300" points="349.541 562.332 349.472 558.814 429.364 557.288 429.435 560.805"/><rect width="118.347" height="3.516" x="300.587" y="524.591" fill="#002300" transform="matrix(0.9959 0.0907 -0.0907 0.9959 49.2057 -30.4513)"/><rect width="75.44" height="3.515" x="251.314" y="298.927" fill="#002300" transform="matrix(0.9682 0.2503 -0.2503 0.9682 84.4597 -62.773)"/><path fill="#16a34a" d="M659.644,723.7c-1.621,0.602-19.574,7.569-17.043,26.229c0,0,0.01,0.015,0.006,0.025 c4.201,7.87,4.615,17.608,0.273,26.174c-5.919,11.679-18.819,17.498-31.059,14.95c-3.48-0.339-9.627,2.185-13.605,4.056 c-2.068,0.961-3.555,1.751-3.785,1.886c-0.029,0.015-0.035,0.018-0.035,0.018c-4.422,1.567-9.436,1.386-13.943-0.898 c-5.374-2.726-8.767-7.82-9.547-13.373c-1.932-9.601-4.492-14.185-5.943-16.147c-0.627-0.836-1.043-1.2-1.142-1.279 c-0.015-0.02-0.018-0.02-0.018-0.02c-7.114-8.429-8.917-20.64-3.615-31.101c3.942-7.783,10.974-12.964,18.848-14.793l0.006-0.014 c10.159-6.087,13.646-13.671,14.419-20.142c0.35-2.959,0.142-5.689-0.262-7.932c-0.651-3.646-1.797-6.016-1.797-6.016 c-1.068-5.868-0.291-12.116,2.611-17.848c4.033-7.951,11.283-13.184,19.372-14.902c0,0,0.009-0.013,0.012-0.01 c17.351-9.041,13.17-23.897,12.799-25.12c-0.021-0.061-0.032-0.081-0.032-0.081c-3.392-7.541-3.461-16.49,0.571-24.443 c5.663-11.174,17.732-16.995,29.466-15.221c0,0,0.008,0.003,0.018,0c0.02,0.01,0.037,0,0.072,0.007 c0.002,0.003,0.008-0.01,0.016-0.004c0.77,0.014,5.647-0.107,12.763-5.309c4.925-7.321,14.644-9.992,22.71-5.901 c6.02,3.049,9.551,9.062,9.719,15.366c0,0-0.006,0.007-0.009,0.029c-0.099,0.29-0.872,2.723-0.976,6.243 c-0.107,3.586,0.472,8.282,3.174,12.964c0,0,0,0,0.006,0.003c0.18,0.312,0.369,0.62,0.565,0.93 c5.325,5.364,8.269,12.643,8.239,20.111c-0.009,3.218-0.576,6.469-1.729,9.618c-0.38,1.043-0.825,2.067-1.341,3.08 c-3.621,7.146-9.851,12.095-16.951,14.276c0,0-0.035,0.012-0.104,0.035c-1.574,0.543-19.627,7.178-15.1,25.793v0.016 c3.395,7.535,3.465,16.482-0.564,24.436c-3.619,7.138-9.848,12.091-16.947,14.268C659.761,723.657,659.724,723.677,659.644,723.7z"/><path fill="#002300" d="M556.786,852.944l-3.201-1.455c0.272-0.597,27.533-60.553,63.204-130.93l73.421-144.867l3.138,1.59 L619.923,722.15C584.288,792.46,557.056,852.347,556.786,852.944z"/><rect width="3.515" height="46.468" x="681.854" y="599.448" fill="#002300" transform="matrix(0.459 0.8885 -0.8885 0.459 923.0929 -270.4619)"/><rect width="3.517" height="55.855" x="682.87" y="604.182" fill="#002300" transform="matrix(0.3688 0.9295 -0.9295 0.3688 1019.7299 -237.3654)"/><rect width="49.43" height="3.516" x="610.001" y="646.734" fill="#002300" transform="matrix(0.3752 0.927 -0.927 0.3752 997.7056 -183.1595)"/><rect width="35.933" height="3.516" x="612.057" y="661.269" fill="#002300" transform="matrix(0.5849 0.8111 -0.8111 0.5849 799.2744 -235.7994)"/><rect width="3.518" height="56.752" x="650.422" y="671.479" fill="#002300" transform="matrix(0.2931 0.9561 -0.9561 0.2931 1130.1028 -128.835)"/><rect width="3.516" height="35.778" x="625.889" y="718.755" fill="#002300" transform="matrix(0.0872 0.9962 -0.9962 0.0872 1306.7426 47.1418)"/><rect width="3.517" height="35.877" x="622.78" y="726.721" fill="#002300" transform="matrix(0.0292 0.9996 -0.9996 0.0292 1350.6737 98.6766)"/><rect width="3.515" height="52.861" x="614.707" y="750.552" fill="#002300" transform="matrix(0.0322 0.9995 -0.9995 0.0322 1373.1727 135.7941)"/><rect width="48.397" height="3.516" x="557.965" y="742.61" fill="#002300" transform="matrix(0.6134 0.7898 -0.7898 0.6134 812.9807 -171.9957)"/><rect width="49.155" height="3.518" x="552.282" y="750.511" fill="#002300" transform="matrix(0.6785 0.7346 -0.7346 0.6785 738.1135 -181.9006)"/><rect width="35.308" height="3.515" x="587.664" y="709" fill="#002300" transform="matrix(0.6636 0.7481 -0.7481 0.6636 735.3895 -213.7251)"/><rect width="52.294" height="3.516" x="581.902" y="689.423" fill="#002300" transform="matrix(0.5775 0.8164 -0.8164 0.5775 821.1459 -204.3882)"/><rect width="33.33" height="3.514" x="646.942" y="600.927" fill="#002300" transform="matrix(0.4381 0.8989 -0.8989 0.4381 914.6649 -257.8813)"/><rect width="139.024" height="238.342" x="487.047" y="850.187" fill="#FF7C2B"/><rect width="32.296" height="238.342" x="593.775" y="850.187" fill="#c54d00"/><path fill="#002300" d="M637.195,274.553c-0.15,0-0.304-0.013-0.458-0.041c-1.434-0.252-2.396-1.618-2.144-3.052 c1.579-9.011,6.849-15.48,13.518-23.673c4.462-5.475,9.514-11.681,14.671-20.066c0.762-1.238,2.387-1.627,3.627-0.863 c1.239,0.762,1.627,2.386,0.863,3.628c-5.337,8.678-10.508,15.028-15.07,20.632c-6.43,7.892-11.072,13.596-12.411,21.25 C639.565,273.652,638.452,274.553,637.195,274.553z"/><path fill="#002300" d="M675.271,182.17c-1.225,0-2.323-0.86-2.578-2.109c-3.575-17.428-11.373-33.394-11.453-33.553 c-0.643-1.307-0.104-2.887,1.203-3.529c1.307-0.647,2.889-0.107,3.529,1.203c0.336,0.672,8.178,16.736,11.889,34.819 c0.29,1.427-0.629,2.822-2.055,3.114C675.627,182.151,675.447,182.17,675.271,182.17z"/><path fill="#002300" d="M559.324,601.409c-1.335,0-2.479-1.008-2.619-2.367c-1.457-14.184-12.147-26.603-31.766-36.909 c-1.289-0.679-1.784-2.271-1.109-3.562c0.678-1.291,2.271-1.788,3.561-1.11c21.28,11.181,32.913,24.99,34.562,41.042 c0.147,1.448-0.904,2.743-2.355,2.894C559.507,601.405,559.417,601.409,559.324,601.409z"/><path fill="#002300" d="M500.214,548.154c-0.707,0-1.41-0.284-1.932-0.842c-9.41-10.126-10.74-25.026-11.25-38.195 c-0.264-6.869,0.722-15.128,1.941-24.431c0.188-1.445,1.521-2.47,2.957-2.271c1.446,0.188,2.463,1.514,2.271,2.958 c-1.188,9.061-2.148,17.084-1.9,23.541c0.492,12.785,1.663,26.003,9.844,34.808c0.994,1.069,0.931,2.736-0.136,3.727 C501.5,547.92,500.856,548.154,500.214,548.154z"/><path fill="#002300" d="M494.419,461.374c-0.045,0-0.095,0-0.141-0.003c-1.457-0.081-2.57-1.324-2.492-2.778 c0.367-6.676,0.252-12.437-0.35-17.608c-2.226-19.084-21.303-31.051-41.59-41.143c-1.304-0.65-1.837-2.233-1.186-3.536 c0.649-1.305,2.234-1.837,3.535-1.187c20.58,10.235,41.96,23.619,44.48,45.254c0.637,5.474,0.759,11.527,0.377,18.508 C496.976,460.288,495.813,461.374,494.419,461.374z"/><path fill="#002300" d="M428.299,380.351c-0.971,0-1.906-0.538-2.364-1.466c-5.881-11.847-6.234-24.253-6.246-24.775 c-0.035-1.456,1.115-2.661,2.572-2.697c1.412-0.072,2.663,1.116,2.701,2.573c0.002,0.116,0.354,11.789,5.695,22.556 c0.648,1.303,0.115,2.887-1.188,3.534C429.093,380.263,428.692,380.351,428.299,380.351z"/><path fill="#FFF" d="M512.97,94.295c-0.346,0-0.695-0.05-1.041-0.159c-1.856-0.573-2.894-2.543-2.32-4.396 c7.271-23.499,24.15-34.812,24.868-35.281c1.622-1.066,3.801-0.617,4.867,1.005c1.065,1.621,0.62,3.798-0.999,4.867 c-0.18,0.119-15.528,10.513-22.021,31.484C515.857,93.325,514.47,94.295,512.97,94.295z"/><path fill="#FFF" d="M439.533,165.956c-0.308,0-0.622-0.041-0.936-0.127c-1.872-0.517-2.97-2.451-2.454-4.325 c8.02-29.07,34.41-38.531,35.531-38.921c1.828-0.637,3.836,0.333,4.474,2.17c0.634,1.833-0.33,3.833-2.164,4.471l0,0 c-0.237,0.085-24.048,8.728-31.065,34.151C442.494,164.933,441.077,165.956,439.533,165.956z"/><path fill="#FFF" d="M443.294,225.76c-0.525,0-1.058-0.119-1.563-0.368c-14.096-7.009-15.574-31.9-15.631-32.955 c-0.105-1.938,1.385-3.592,3.322-3.696c1.897-0.102,3.592,1.385,3.699,3.32c0.33,6.061,3.086,22.733,11.742,27.035 c1.738,0.865,2.447,2.976,1.582,4.713C445.831,225.044,444.589,225.76,443.294,225.76z"/><path fill="#FFF" d="M272.382,263.709c-1.772,0-3.297-1.338-3.49-3.142c-2.279-21.332,8.088-31.092,8.529-31.496 c1.434-1.311,3.658-1.209,4.971,0.219c1.304,1.428,1.211,3.637-0.199,4.951c-0.381,0.358-8.185,8.048-6.308,25.579 c0.208,1.931-1.193,3.663-3.123,3.869C272.638,263.703,272.507,263.709,272.382,263.709z"/><path fill="#FFF" d="M241.437,338.11c-1.504,0-2.895-0.971-3.357-2.48c-4.493-14.572,11.113-32.771,11.782-33.539 c1.271-1.463,3.487-1.621,4.954-0.351c1.469,1.272,1.625,3.493,0.355,4.961c-3.826,4.417-13.146,17.858-10.373,26.855 c0.573,1.855-0.467,3.826-2.324,4.396C242.132,338.061,241.778,338.11,241.437,338.11z"/><path fill="#FFF" d="M275.942,389.751c-0.264,0-0.533-0.029-0.797-0.091c-22.353-5.177-36.869-31.946-37.478-33.082 c-0.913-1.715-0.267-3.841,1.445-4.757c1.71-0.918,3.841-0.271,4.757,1.44c0.133,0.252,13.639,25.095,32.861,29.549 c1.891,0.438,3.07,2.326,2.633,4.218C278.987,388.654,277.539,389.751,275.942,389.751z"/><path fill="#FFF" d="M303.044,500.249c-1.645,0-3.111-1.159-3.444-2.833c-2.048-10.302,5.275-26.252,6.116-28.034 c0.828-1.757,2.92-2.512,4.678-1.683c1.756,0.827,2.51,2.923,1.684,4.679c-2.008,4.273-6.933,16.856-5.58,23.668 c0.377,1.906-0.859,3.757-2.764,4.134C303.502,500.227,303.271,500.249,303.044,500.249z"/><path fill="#FFF" d="M364.831,655.092c-0.076,0-0.15-0.001-0.227-0.007c-1.938-0.123-3.408-1.794-3.284-3.734 c1.347-21.06,13.72-40.422,14.245-41.236c1.053-1.631,3.229-2.096,4.857-1.043c1.631,1.051,2.1,3.227,1.049,4.858 c-0.119,0.186-11.906,18.674-13.133,37.873C368.221,653.662,366.671,655.092,364.831,655.092z"/><path fill="#FFF" d="M596.579,346.592c-0.377,0-0.75-0.009-1.129-0.026c-1.941-0.09-3.442-1.734-3.353-3.673 c0.09-1.942,1.744-3.396,3.674-3.352c19.354,0.854,35.655-30.239,35.821-30.552c0.887-1.727,3.01-2.405,4.733-1.515 c1.729,0.889,2.407,3.008,1.515,4.733C637.104,313.633,619.843,346.592,596.579,346.592z"/><path fill="#FFF" d="M568.319,407.723c-1.047,0-2.08-0.465-2.772-1.354c-11.481-14.723-2.347-40.51-1.952-41.602 c0.66-1.824,2.67-2.771,4.498-2.111c1.826,0.659,2.773,2.673,2.115,4.499c-0.081,0.232-8.205,23.234,0.881,34.892 c1.196,1.531,0.922,3.74-0.608,4.934C569.837,407.481,569.075,407.723,568.319,407.723z"/><path fill="#FFF" d="M549.312,497.145c-0.414,0-0.836-0.074-1.248-0.231c-1.813-0.691-2.727-2.719-2.037-4.535 c9.195-24.191,31.633-39.651,32.583-40.299c1.599-1.083,3.79-0.676,4.882,0.931c1.092,1.604,0.678,3.79-0.924,4.884 c-0.215,0.146-21.574,14.904-29.967,36.98C552.064,496.28,550.729,497.145,549.312,497.145z"/><path fill="#002300" d="M907.319,941.396c4.318-6.808,54.654-119.522,106.438-161.69c12.944,8.612,12.944,8.612,12.944,8.612 L907.319,941.396z"/><polygon fill="#002300" points="1013.757 779.706 1036.772 882.807 1026.701 788.318"/><path fill="#002300" d="M906.354,943.864c-2.883-4.549-36.518-79.856-71.111-108.031c-8.652,5.751-8.652,5.751-8.652,5.751 L906.354,943.864z"/><polygon fill="#002300" points="835.243 835.833 819.865 904.718 826.591 841.584"/><path fill="#002300" d="M1016.263,655.743l-15.574,40.943l-34.729,91.346v0.015l-4.875,12.778l-53.758,141.397 c0.951-3.495,3.535-21.612,8.066-47.759c0.014-0.012,0.014-0.024,0.014-0.038c6.728-38.6,17.727-94.704,34.104-147.173 c11.176-35.845,24.867-69.997,41.42-95.719c0.602-0.928,1.201-1.855,1.803-2.755 C1016.263,655.743,1016.263,655.743,1016.263,655.743z"/><path fill="#002300" d="M1016.263,655.743l-15.574,40.943c-2.116-11.626-5.953-31.497-9.758-45.153 c0.602-0.928,1.201-1.855,1.803-2.755C1016.263,655.743,1016.263,655.743,1016.263,655.743z"/><polygon fill="#16a34a" points="992.733 648.774 1075.392 793.632 1016.266 655.749"/><path fill="#002300" d="M965.96,788.031v0.015l-4.875,12.778l-12.139-14.846c0,0-21.85,69.996-33.539,108.446 c6.728-38.6,17.727-94.704,34.104-147.173L965.96,788.031z"/><path fill="#002300" d="M751.496,678.481l-4.248,15.535l-4.11,15.06l-3.857,14.108L707.532,839.36l20.146-130.41l2.757-17.854 c0,0,0,0,3.259-1.94c0.438-0.263,0.939-0.564,1.515-0.915c1.329-0.803,3.031-1.818,5.223-3.132 C743.249,683.418,746.87,681.25,751.496,678.481z"/><path fill="#002300" d="M751.496,699.556l-3.862,15.884l-4.496-6.363l-3.857,14.108l-11.603-14.234l2.757-17.854 c0,0,0,0,3.259-1.94c0.438-0.263,0.939-0.564,1.515-0.915c1.329-0.803,3.031-1.818,5.223-3.132l6.817,8.906L751.496,699.556z"/><path fill="#16a34a" d="M907.327,941.395L747.634,715.44l-4.496-6.363l-12.703-17.979c0,0,0,0,3.259-1.94 c0.438-0.263,0.939-0.564,1.515-0.915c1.329-0.803,3.031-1.818,5.223-3.132c2.818-1.692,6.439-3.86,11.065-6.629 c23.015,20.624,45.39,50.805,65.673,83.427c4.637,7.457,9.16,15.049,13.558,22.666 C872.772,857.453,903.292,934.316,907.327,941.395z"/><path fill="#002300" d="M830.727,784.574l-11.853,14.37c0,0-2.231-22.587-1.705-37.035 C821.806,769.365,826.329,776.957,830.727,784.574z"/><polygon fill="#002300" points="880.289 611.778 869.642 642.939 862.863 662.746 857.886 677.292 821.155 784.738 846.284 655.705 854.767 612.167 858.851 612.105"/><path fill="#002300" d="M873.737,654.678l-8.584,22.35l-2.29-14.281l-4.978,14.546c-3.066-5.889-7.43-14.146-11.602-21.587 l8.482-43.538c0,0,0,0,3.999-0.337l0.085,0.275l10.791,30.834L873.737,654.678z"/><path fill="#16a34a" d="M907.877,943.862l-0.413-2.618l-7.24-45.228l-35.07-218.989l-2.29-14.281l-8.097-50.579 c0,0,0,0,3.999-0.337c3.531-0.288,10.21-0.839,22.813-1.892c13.793,34.177,21.386,79.117,25.346,124.92 c7.969,92.186,1.24,187.881,0.938,206.485C907.841,942.474,907.841,943.324,907.877,943.862z"/><path fill="#002300" d="M907.863,941.344c-0.138-0.025-0.261-0.064-0.399-0.1l-7.24-45.228l6.701-161.158 C914.894,827.045,908.165,922.74,907.863,941.344z"/><path fill="#002300" d="M908.522,942.1c0.715-9.729-11.795-158.75,19.369-233.325c18.732,1.793,20.572,1.793,20.572,1.793 L908.522,942.1z"/><polygon fill="#16a34a" points="927.892 708.775 979.974 825.541 948.464 710.569"/><polygon fill="#FF7C2B" points="954.39 1099.371 858.321 1099.371 844.569 928.587 966.433 928.587"/><circle cx="927.837" cy="986.785" r="9.79" fill="#c54d00"/><circle cx="943.079" cy="1018.312" r="5.452" fill="#c54d00"/><circle cx="901.996" cy="1042.792" r="3.528" fill="#c54d00"/><circle cx="885.832" cy="988.232" r="2.626" fill="#c54d00"/><path fill="#c54d00" d="M907.104,950.096c0,2.387-1.935,4.32-4.316,4.32c-2.385,0-4.32-1.933-4.32-4.32 c0-2.386,1.936-4.318,4.32-4.318C905.17,945.778,907.104,947.71,907.104,950.096z"/><path fill="#c54d00" d="M927.839,950.262c0,2.475-2.01,4.481-4.482,4.481c-2.479,0-4.484-2.006-4.484-4.481 c0-2.476,2.006-4.484,4.484-4.484C925.829,945.778,927.839,947.786,927.839,950.262z"/><circle cx="946.012" cy="960.92" r="2.933" fill="#c54d00"/><circle cx="905.131" cy="1013.82" r="3.136" fill="#c54d00"/><circle cx="864.789" cy="1033.415" r="2.79" fill="#c54d00"/><circle cx="864.478" cy="976.311" r="2.479" fill="#c54d00"/><circle cx="879.897" cy="961.379" r="3.391" fill="#c54d00"/><path fill="#c54d00" d="M879.897,1024.471c0,3.401-2.756,6.159-6.16,6.159c-3.398,0-6.158-2.757-6.158-6.159 c0-3.402,2.76-6.159,6.158-6.159C877.142,1018.312,879.897,1021.069,879.897,1024.471z"/><path fill="#002300" d="M906.925,736.739c-0.988,0-1.82-0.772-1.875-1.77c-0.87-15.087-3.264-32.717-7.105-52.403 c-0.199-1.018,0.465-2.006,1.482-2.206c1.021-0.198,2.01,0.466,2.206,1.485c3.878,19.85,6.286,37.65,7.167,52.906 c0.063,1.035-0.73,1.926-1.767,1.984C906.997,736.738,906.961,736.739,906.925,736.739z"/><path fill="#002300" d="M897.209,671.57c-0.868,0-1.647-0.601-1.837-1.48c-1.946-8.988-4.166-18.318-6.594-27.727 c-0.262-1.007,0.343-2.031,1.35-2.29c1.007-0.26,2.027,0.344,2.287,1.35c2.443,9.458,4.672,18.834,6.63,27.871 c0.219,1.014-0.423,2.014-1.441,2.233C897.47,671.557,897.339,671.57,897.209,671.57z"/><path fill="#002300" d="M886.572,628.795c-0.821,0-1.577-0.543-1.81-1.373c-2.898-10.372-4.954-16.85-4.975-16.914 c-0.313-0.989,0.232-2.045,1.221-2.361c0.988-0.313,2.047,0.232,2.359,1.223c0.023,0.063,2.096,6.6,5.014,17.04 c0.279,1-0.305,2.037-1.303,2.316C886.911,628.772,886.739,628.795,886.572,628.795z"/><path fill="#002300" d="M803.202,742.27c-0.618,0-1.221-0.301-1.582-0.857c-2.68-4.128-6.472-9.299-11.275-15.368 c-0.645-0.813-0.508-1.996,0.308-2.639c0.814-0.646,1.996-0.505,2.641,0.308c4.876,6.161,8.738,11.426,11.479,15.654 c0.566,0.871,0.32,2.035-0.553,2.598C803.905,742.172,803.552,742.27,803.202,742.27z"/><path fill="#002300" d="M783.91,717.043c-0.536,0-1.071-0.231-1.442-0.676c-2.258-2.707-4.551-5.409-6.817-8.047 c-0.677-0.786-0.589-1.973,0.2-2.651c0.785-0.676,1.973-0.586,2.65,0.201c2.281,2.652,4.585,5.368,6.852,8.088 c0.666,0.799,0.558,1.983-0.238,2.648C784.762,716.899,784.335,717.043,783.91,717.043z"/><path fill="#002300" d="M760.618,690.325c-0.512,0-1.023-0.209-1.395-0.62c-5.381-5.955-8.994-9.826-9.092-9.929 c-0.318-0.338-0.518-0.793-0.518-1.294c0-1.037,0.842-1.879,1.882-1.879c0.955,0,0.955,0,10.517,10.583 c0.695,0.771,0.637,1.958-0.133,2.656C761.519,690.165,761.067,690.325,760.618,690.325z"/><path fill="#002300" d="M976.806,679.999c-0.258,0-0.523-0.054-0.775-0.169c-0.945-0.432-1.361-1.546-0.934-2.49 c4.271-9.377,7.393-15.67,9.281-18.704c0.551-0.879,1.709-1.149,2.59-0.601c0.883,0.546,1.15,1.707,0.602,2.588 c-1.799,2.896-4.848,9.043-9.053,18.274C978.204,679.589,977.522,679.999,976.806,679.999z"/><path fill="#002300" d="M958.335,722.757c-0.238,0-0.483-0.046-0.717-0.144c-0.957-0.397-1.416-1.496-1.018-2.456 c0.043-0.1,4.232-10.207,9.389-22.176c0.414-0.954,1.523-1.391,2.472-0.984c0.952,0.413,1.395,1.519,0.983,2.471 c-5.148,11.944-9.329,22.027-9.371,22.129C959.772,722.321,959.075,722.757,958.335,722.757z"/><path fill="#002300" d="M972.683,800.824c-0.826,0-1.581-0.548-1.813-1.383l-15.09-55.062c-0.274-1.001,0.315-2.035,1.316-2.309 c0.999-0.282,2.036,0.314,2.31,1.315l15.094,55.062c0.271,1-0.318,2.035-1.319,2.309 C973.013,800.802,972.851,800.824,972.683,800.824z"/><path fill="#002300" d="M950.995,721.697c-0.824,0-1.584-0.547-1.81-1.382l-2.188-7.988l-19.27-1.679 c-1.033-0.09-1.8-1.001-1.709-2.036c0.094-1.034,0.993-1.8,2.037-1.708l20.57,1.794c0.783,0.068,1.44,0.615,1.648,1.374l2.534,9.25 c0.274,1.001-0.313,2.034-1.315,2.309C951.329,721.676,951.159,721.697,950.995,721.697z"/><polygon fill="#c54d00" points="954.39 1099.371 941.643 1099.371 927.892 928.587 966.433 928.587"/></svg>