<svg xmlns="http://www.w3.org/2000/svg" version="1.0" viewBox="0 0 1133.859 1133.858"><path fill="#f39200" d="M120.427,321.097v13.115h-13.112c-1.683,0-3.047,1.364-3.047,3.05c0,1.682,1.365,3.047,3.047,3.047h13.112 v13.117c0,1.682,1.37,3.047,3.052,3.047c1.684,0,3.05-1.365,3.05-3.047v-13.117h13.114c1.683,0,3.05-1.365,3.05-3.047 c0-1.686-1.367-3.05-3.05-3.05h-13.114v-13.115c0-1.685-1.366-3.05-3.05-3.05C121.797,318.047,120.427,319.413,120.427,321.097z"/><path fill="#f39200" d="M215.062,517.936v13.112h-13.118c-1.677,0-3.046,1.37-3.046,3.048c0,1.687,1.369,3.051,3.046,3.051h13.118 v13.117c0,1.682,1.366,3.047,3.052,3.047c1.682,0,3.047-1.365,3.047-3.047v-13.117h13.117c1.682,0,3.048-1.364,3.048-3.051 c0-1.678-1.366-3.048-3.048-3.048H221.16v-13.112c0-1.683-1.365-3.048-3.047-3.048 C216.427,514.888,215.062,516.253,215.062,517.936z"/><path fill="#f39200" d="M215.916,372.79v13.115h-13.113c-1.682,0-3.051,1.367-3.051,3.049c0,1.684,1.369,3.049,3.051,3.049h13.113 v13.115c0,1.682,1.368,3.05,3.052,3.05c1.682,0,3.046-1.368,3.046-3.05v-13.115h13.118c1.682,0,3.047-1.365,3.047-3.049 c0-1.682-1.366-3.049-3.047-3.049h-13.118V372.79c0-1.682-1.365-3.047-3.046-3.047C217.284,369.743,215.916,371.108,215.916,372.79 z"/><path fill="#f39200" d="M232.807,773.283v-13.115h13.112c1.683,0,3.047-1.364,3.047-3.05c0-1.682-1.365-3.047-3.047-3.047h-13.112 v-13.117c0-1.682-1.37-3.047-3.052-3.047c-1.684,0-3.05,1.365-3.05,3.047v13.117h-13.114c-1.683,0-3.05,1.365-3.05,3.047 c0,1.686,1.367,3.05,3.05,3.05h13.114v13.115c0,1.685,1.366,3.05,3.05,3.05C231.437,776.333,232.807,774.967,232.807,773.283z"/><path fill="#f39200" d="M341.438,627.16v-13.115h13.112c1.683,0,3.047-1.364,3.047-3.05c0-1.682-1.365-3.047-3.047-3.047h-13.112 v-13.117c0-1.682-1.37-3.047-3.052-3.047c-1.684,0-3.05,1.365-3.05,3.047v13.117h-13.114c-1.683,0-3.05,1.365-3.05,3.047 c0,1.686,1.367,3.05,3.05,3.05h13.114v13.115c0,1.685,1.366,3.05,3.05,3.05C340.067,630.209,341.438,628.844,341.438,627.16z"/><path fill="#f39200" d="M918.089,391.36v-13.115h13.112c1.683,0,3.047-1.364,3.047-3.05c0-1.682-1.365-3.047-3.047-3.047h-13.112 v-13.117c0-1.682-1.37-3.047-3.052-3.047c-1.684,0-3.05,1.365-3.05,3.047v13.117h-13.114c-1.683,0-3.05,1.365-3.05,3.047 c0,1.686,1.367,3.05,3.05,3.05h13.114v13.115c0,1.685,1.366,3.05,3.05,3.05C916.719,394.41,918.089,393.044,918.089,391.36z"/><path fill="#f39200" d="M138.172,576.444v-13.112h13.118c1.677,0,3.046-1.37,3.046-3.048c0-1.687-1.369-3.051-3.046-3.051h-13.118 v-13.117c0-1.682-1.366-3.047-3.052-3.047c-1.682,0-3.047,1.365-3.047,3.047v13.117h-13.117c-1.682,0-3.048,1.364-3.048,3.051 c0,1.678,1.366,3.048,3.048,3.048h13.117v13.112c0,1.683,1.365,3.048,3.047,3.048C136.806,579.492,138.172,578.126,138.172,576.444 z"/><path fill="#f39200" d="M137.317,721.59v-13.115h13.113c1.682,0,3.051-1.367,3.051-3.049c0-1.684-1.369-3.049-3.051-3.049h-13.113 v-13.115c0-1.682-1.368-3.05-3.052-3.05c-1.682,0-3.046,1.368-3.046,3.05v13.115h-13.118c-1.682,0-3.047,1.365-3.047,3.049 c0,1.682,1.366,3.049,3.047,3.049h13.118v13.115c0,1.682,1.365,3.047,3.046,3.047C135.95,724.637,137.317,723.272,137.317,721.59z"/><path fill="#f39200" d="M972.793,467.259v-13.115h13.113c1.682,0,3.051-1.367,3.051-3.049c0-1.684-1.369-3.049-3.051-3.049h-13.113 v-13.115c0-1.682-1.368-3.05-3.052-3.05c-1.682,0-3.046,1.368-3.046,3.05v13.115h-13.118c-1.682,0-3.047,1.365-3.047,3.049 c0,1.682,1.366,3.049,3.047,3.049h13.118v13.115c0,1.682,1.365,3.047,3.046,3.047C971.425,470.306,972.793,468.941,972.793,467.259 z"/><path fill="#ac0d1a" d="M799.576,331.177c-8.636-1.393-19.385,0.02-28.021,3.552c-14.422,5.898-55.062,34.088-59.642,43.257 c-4.589,9.179-3.897,93.075-3.897,93.075s-59.642-10.141-89.879-12.543h-0.009c-8.197-0.664-14.235-0.748-16.338,0.093 c0,0-2.328,2.627-5.879,6.992c-5.486-3.253-13.029-7.833-19.853-12.329v-0.009c17.843-61.643,33.19-135.669,42.145-146.866 c13.169-16.46,44.378-31.863,58.735-25.667c-23.685,48.78,24.881,42.434,42.874,26.471c4.917-4.366,12.356-14.189,17.722-21.647 c0.019,0.309,0.028,0.477,0.028,0.477s28.321,2.785,46.604,11.011c-1.449,0.009-2.263-0.038-2.263-0.038 S790.622,309.044,799.576,331.177z"/><path fill="#001b47" d="M683.2,243.383l-4.122,32.331c-8.169,1.393-18.638-1.168-19.011-15.815 c-0.356-14.011,9.926-17.17,18.245-17.441C681.265,243.178,683.2,243.383,683.2,243.383z"/><path fill="#3e98d4" d="M407.732,332.902v179.196l-37.306-55.999V281.383C370.426,292.583,407.732,332.902,407.732,332.902z"/><path fill="#001b47" d="M597.567,281.383v51.519H407.732c0,0-37.306-40.319-37.306-51.519H597.567z"/><polygon fill="#001b47" points="653.925 433.778 653.925 512.098 407.732 512.098 407.732 332.902 432.17 422.5 597.567 430.91"/><polygon fill="#3e98d4" points="696.484 435.94 653.925 433.778 424.887 435.94 407.732 332.902 653.925 332.902"/><polygon fill="#001b47" points="370.426 281.383 370.426 358.661 317.933 358.661"/><polygon fill="#001b47" points="653.925 332.902 597.567 332.902 597.567 281.383"/><path fill="#ebeff0" d="M727.653,230.466c6.786,6.505,9.581,50.042,9.879,55.09c-5.365,7.458-12.805,17.282-17.722,21.647 c-17.992,15.963-66.558,22.31-42.874-26.471c0.486,0.206,0.962,0.439,1.412,0.701l0.729-5.72l4.122-32.331 c0,0-1.936-0.205-4.889-0.925c-9.823-2.392-30.91-10.459-29.059-35.415c2.318-24.03,15.871-33.826,16.861-34.508 c-0.103,1.392-0.038,2.719,0.262,3.87c1.504,5.701,12.917,20.422,30.04,8.403c0.598,17.73,22.825,25.236,31.237,19.525 c8.412-5.701,15.618-0.598,15.917,4.206C743.87,213.342,746.272,225.662,727.653,230.466z"/><path fill="#001b47" d="M784.164,297.043c-18.283-8.226-46.604-11.011-46.604-11.011s-0.009-0.168-0.028-0.477 c-0.299-5.047-3.094-48.585-9.879-55.09c18.619-4.804,16.216-17.124,15.917-21.928c-0.299-4.804-7.505-9.907-15.917-4.206 c-8.412,5.711-30.639-1.794-31.237-19.525c-17.123,12.019-28.536-2.702-30.04-8.403c-0.3-1.15-0.365-2.478-0.262-3.87 c0.038-0.028,0.056-0.038,0.056-0.038s-0.019-0.01-0.046-0.019c-1.43-0.598-35.079-15.076-21.077-45.938 c20.685-45.594,82.906-24.929,82.906,9.608c15.618-19.825,30.629-0.009,19.507,16.133c1.168-0.627,79.392-42.911,101.057,52.846 C868.247,292.36,797.838,296.958,784.164,297.043z"/><path fill="#001b47" d="M799.707,614.001c0,0-1.065,18.105-7.87,36.265c-0.299,0.786-0.72,1.917-1.29,3.365 c-4.748,12.226-19.067,47.267-43.173,91.963v0.009c-10.562,19.592-23.002,41.023-37.34,63.213 c-28.414-1.16-55.464-8.936-80.373-20.367c-63.063-28.91-112.385-81.168-135.229-108.404 c20.198-27.639,34.116-46.688,34.116-46.688s-10.375-56.089,14.478-98.701c6.169-0.383,11.814-1.309,16.666-2.823 c-0.047,1.196,0.009,2.356,0.149,3.468c0.739,5.786,10.403,12.384,25.647,18.348c46.22,18.086,143.818,30.349,200.264-3.319 C790.463,556.229,804.007,576.792,799.707,614.001z"/><path fill="#f39200" d="M385.16,1078.414c-36.266,12.777-52.949,11.048-52.949,11.048s-31.77,40.854-79.438,34.041 c-47.659-6.805-113.488-69.223-99.87-131.64c16.581-21.162,86.251,31.779,89.654,34.041c1.673,1.112,22.619-27.639,45.304-59.698 C297.459,1000.639,322.219,1054.449,385.16,1078.414z"/><path fill="#ebeff0" d="M710.035,808.816c-13.721,21.226-29.181,43.135-46.388,64.764 c-31.274,39.284-68.334,77.634-111.273,109.208c-76.634,56.352-131.443,83.036-167.213,95.626 c-62.941-23.965-87.701-77.774-97.3-112.208c0-0.009,0-0.009,0-0.009c23.703-33.489,49.304-70.578,56.837-81.008 c10.515-14.572,99.534-136.425,149.735-205.143c22.844,27.236,72.167,79.494,135.229,108.404 C654.57,799.88,681.621,807.657,710.035,808.816z"/><path fill="#001b47" d="M807.437,699.169c-9.805,14.459-28.255,35.266-60.063,46.425c24.105-44.696,38.425-79.737,43.173-91.963 C794.913,666.81,800.511,682.373,807.437,699.169z"/><path fill="#ebeff0" d="M981.091,896.068c-5.076,25.61-18.759,88.215-37.229,123.807c-6.542-1.458-12.711-2.561-17.338-3.851 c-16.497-4.607-187.169-40.602-262.877-142.444c17.207-21.629,32.667-43.538,46.388-64.764 c14.337-22.19,26.778-43.622,37.34-63.213v-0.009c31.807-11.16,50.258-31.966,60.063-46.425 c26.339,63.895,71.849,145.52,141.323,180.86C960.658,886.086,971.398,891.385,981.091,896.068z"/><path fill="#f39200" d="M1006.738,1130.934c-54.819,6.318-50.604-3.169-25.302-71.69c6.375-27.059-17.413-34.892-37.574-39.369 c18.469-35.592,32.153-98.197,37.229-123.807h0.009c89.973,43.491,90.252,33.91,93.113,76.736 C1077.372,1020.239,1061.557,1124.605,1006.738,1130.934z"/><path fill="#e54c42" d="M784.201,548.536c0,0,0.589,0.589,1.551,1.794c-56.445,33.668-154.044,21.405-200.264,3.319 c-5.514-28.302,21.488-76.7,32.639-95.131h0.009c30.237,2.402,89.879,12.543,89.879,12.543s-0.691-83.896,3.897-93.075 c4.58-9.168,45.22-37.358,59.642-43.257c8.637-3.532,19.386-4.944,28.021-3.552c12.132,29.938,24.704,78.336,16.778,140.407 C805.082,530.581,784.201,548.536,784.201,548.536z"/><path fill="#ac0d1a" d="M585.489,553.649c-15.245-5.964-24.909-12.562-25.647-18.348c-0.14-1.112-0.196-2.271-0.149-3.468 c0.551-20.169,24.769-52.192,36.218-66.23c3.552-4.365,5.879-6.992,5.879-6.992c2.103-0.84,8.141-0.756,16.338-0.093 C606.977,476.95,579.975,525.347,585.489,553.649z"/><ellipse cx="375.184" cy="407.318" fill="#ebeff0" rx="7.21" ry="23.597" transform="matrix(0.69 -0.7238 0.7238 0.69 -178.514 397.8373)"/><ellipse cx="370.61" cy="423.419" fill="#ebeff0" rx="8.425" ry="27.575" transform="matrix(0.69 -0.7238 0.7238 0.69 -191.5869 399.5368)"/><ellipse cx="357.389" cy="436.008" fill="#ebeff0" rx="6.15" ry="20.128" transform="matrix(0.9255 -0.3788 0.3788 0.9255 -138.5358 167.8883)"/><path fill="#ebeff0" d="M595.91,465.603c-11.449,14.038-35.667,46.061-36.218,66.23c-4.851,1.514-10.497,2.44-16.666,2.823 c-20.89,1.299-47.687-3.617-69.596-12.59c-13.086-13.03-2.627-4.384,20.161-5.262c-13.543-0.636-25.18-4.038-33.247-7.768 c-14.029-6.477-9.823-13.422-1.224-11.516c13.085,2.907,27.601,4.02,39.583,4.375c-19.656-1.655-39.481-6.618-45.724-9.637 c-7.74-3.739-7.786-16.945,4.486-11.973c12.272,4.963,70.605,3.794,70.605,3.794s-20.75-8.468-51.136-9.347 c-30.377-0.878-18.105-14.609-13.142-15.777c4.963-1.168,66.025,5.842,71.288,6.132c5.262,0.298,23.956-0.29,21.619-5.842 c-2.337-5.552-22.208-19.572-15.777-26.125c6.431-6.542,18.75,7.141,18.75,7.141c1.786,2.851,8.608,7.879,16.385,13.002v0.009 C582.881,457.771,590.424,462.35,595.91,465.603z"/><path fill="#001b47" d="M385.16,1080.414c-0.824,0-1.596-0.513-1.886-1.335c-0.368-1.042,0.178-2.184,1.22-2.551 c0.345-0.122,35.022-12.481,82.546-39.25c43.833-24.69,107.874-67.042,164.039-128.591c0.056-0.061,0.115-0.118,0.178-0.172 c45.101-38.561,82.004-107.203,114.563-167.763c8.072-15.014,15.696-29.196,23.037-42.127c0.545-0.961,1.766-1.298,2.727-0.752 c0.96,0.545,1.297,1.766,0.752,2.727c-7.318,12.892-14.932,27.053-22.993,42.046c-32.703,60.829-69.764,129.767-115.392,168.829 c-56.53,61.921-120.943,104.509-165.034,129.337c-47.807,26.92-82.745,39.366-83.092,39.488 C385.605,1080.377,385.38,1080.414,385.16,1080.414z"/><path fill="#001b47" d="M726.084,223.659c-1.088,0-1.98-0.873-1.999-1.965c-0.09-5.135,1.344-9.16,4.264-11.965 c4.464-4.288,10.711-3.979,10.976-3.963c1.103,0.063,1.945,1.009,1.881,2.112c-0.064,1.101-1.011,1.943-2.104,1.882l0,0 c-0.049-0.005-4.825-0.204-8.007,2.878c-2.068,2.002-3.081,5.026-3.012,8.987c0.02,1.104-0.86,2.016-1.964,2.035 C726.108,223.659,726.096,223.659,726.084,223.659z"/><path fill="#001b47" d="M660.058,214.137c-1.354,0-10.865-1.521-10.865-7.662c0-4.707,10.113-21.214,12.14-24.475 c0.583-0.938,1.816-1.226,2.754-0.643s1.226,1.816,0.643,2.754c-5.671,9.124-11.537,19.984-11.537,22.364 c0,2.06,5.205,3.546,6.929,3.664c1.105,0,1.968,0.895,1.968,2S661.163,214.137,660.058,214.137z"/><path fill="#001b47" d="M687.382,245.62c-21.777,0-32.25-13.791-32.389-13.98c-0.654-0.89-0.463-2.142,0.427-2.796 c0.889-0.652,2.139-0.464,2.794,0.424c0.71,0.954,17.401,22.605,54.464,6.514c1.011-0.442,2.191,0.024,2.631,1.038 c0.44,1.013-0.025,2.191-1.038,2.631C703.913,243.948,694.961,245.62,687.382,245.62z"/><path fill="#001b47" d="M242.556,1027.904c-0.153,0-0.307-0.018-0.459-0.053c-0.518-0.122-0.966-0.446-1.245-0.899 c-0.916-1.489-22.217-36.833-3.117-68.666c2.966-4.944,5.348-7.149,7.723-7.149c0.773,0,1.906,0.244,2.91,1.404 c6.719,7.768-0.767,61.94-2.336,72.721c-0.085,0.583-0.422,1.099-0.923,1.41l-1.497,0.931 C243.293,1027.801,242.926,1027.904,242.556,1027.904z M245.365,955.169c-0.347,0.15-1.668,0.956-4.2,5.174 c-14.657,24.428-3.319,51.972,1.338,61.261c0.763-5.593,2.375-18.008,3.477-30.646 C248.637,960.504,245.996,955.834,245.365,955.169z"/><path fill="#001b47" d="M253.915,1075.002c-0.001,0-0.001,0-0.003,0c-5.926,0-12.124-1.692-17.921-4.891 c-4.247-2.343-6.884-5.801-7.839-10.279c-2.802-13.136,10.208-30.573,10.763-31.309c0.617-0.818,1.754-1.037,2.632-0.507 c3.034,1.835,29.7,18.286,31.658,30.686c0.574,3.637-0.404,7.06-2.829,9.897C266.899,1072.668,260.898,1075.002,253.915,1075.002z M241.059,1032.417c-2.954,4.332-10.994,17.228-8.994,26.585c0.713,3.337,2.629,5.825,5.859,7.607 c5.208,2.873,10.736,4.392,15.989,4.393c0,0,0.001,0,0.002,0c5.727,0,10.744-1.87,13.42-5.001c1.642-1.921,2.305-4.229,1.918-6.675 C267.926,1050.919,249.743,1037.891,241.059,1032.417z"/><path fill="#001b47" d="M237.376,1031.923c-1.053,0-2.111-0.069-3.179-0.213c-23.417-3.165-42.063-20.353-42.845-21.083 c-0.807-0.753-0.851-2.018-0.098-2.826c0.753-0.808,2.02-0.851,2.826-0.099c0.183,0.17,18.523,17.053,40.653,20.044 c21.48,2.903,41.42-31.079,41.619-31.422c0.553-0.956,1.776-1.283,2.733-0.729c0.956,0.554,1.282,1.777,0.729,2.733 C278.985,999.758,260.09,1031.923,237.376,1031.923z"/><path fill="#001b47" d="M974.128,1034.346c-0.347,0-0.693-0.09-1.003-0.27c-0.597-0.346-0.973-0.976-0.996-1.666 c-0.06-1.858-1.347-45.619,8.944-56.247c1.697-1.752,3.646-2.641,5.792-2.641c3.266,0,6.711,2.047,10.531,6.259 c6.129,6.758,8.568,14.005,7.249,21.538c-3.267,18.654-28.507,32.225-29.58,32.793 C974.772,1034.269,974.45,1034.346,974.128,1034.346z M986.865,977.523c-1.036,0-1.99,0.465-2.917,1.423 c-6.952,7.178-8.061,35.881-7.892,49.957c6.57-4.053,22.334-15.029,24.65-28.281c1.093-6.251-1.018-12.359-6.273-18.153 C991.499,979.234,988.881,977.523,986.865,977.523z"/><path fill="#001b47" d="M926.88,1060.522c-0.001,0,0,0-0.002,0c-3.767,0-7.127-1.001-9.989-2.975 c-3.798-2.619-4.121-5.262-3.723-7.017c0.745-3.282,4.628-8.374,29.653-14.679c13.297-3.35,26.479-5.459,26.61-5.48 c0.849-0.133,1.679,0.283,2.08,1.037s0.278,1.68-0.305,2.304C970.183,1034.806,945.94,1060.522,926.88,1060.522z M963.825,1035.385 c-20.431,3.714-45.484,10.415-46.758,16.029c-0.226,0.998,1.013,2.095,2.092,2.839c2.182,1.504,4.779,2.268,7.719,2.268 C939.692,1056.523,956.068,1042.693,963.825,1035.385z"/><path fill="#001b47" d="M988.522,1069.74c-0.258,0-0.52-0.05-0.773-0.156c-1.019-0.427-1.498-1.6-1.07-2.618 c2.676-6.379,2.754-12.688,0.232-18.75c-6.889-16.556-30.763-26.39-31.003-26.487c-1.023-0.415-1.518-1.581-1.103-2.604 c0.415-1.024,1.579-1.519,2.603-1.104c1.044,0.422,25.65,10.542,33.192,28.647c2.953,7.089,2.875,14.439-0.232,21.846 C990.046,1069.279,989.304,1069.74,988.522,1069.74z"/><path fill="#001b47" d="M719.889,491.661c-1.721,0-3.483-0.52-5.111-1.553c-2.927-1.857-7-6.375-8.629-17.313l-54.072-8.328 c-1.091-0.168-1.84-1.189-1.672-2.281c0.168-1.091,1.182-1.843,2.281-1.672l52.996,8.163c-0.387-4.812-0.351-10.639,0.316-17.701 c0.543-25.026,1.255-38.388,1.726-47.231c0.452-8.497,0.679-12.762,0.314-19.212c-0.063-1.103,0.781-2.047,1.884-2.109 c1.092-0.066,2.047,0.781,2.109,1.884c0.377,6.669,0.146,11.007-0.313,19.65c-0.47,8.828-1.18,22.168-1.722,47.179 c-0.001,0.048-0.004,0.097-0.008,0.146c-0.705,7.42-0.678,13.322-0.219,18.012c4.475,0.756,17.678,3.821,18.309,13.685 c0.197,3.08-1.319,5.963-3.955,7.524C722.816,491.276,721.368,491.66,719.889,491.661z M710.342,473.498 c1.652,9.194,5.125,12.31,6.579,13.232c1.756,1.114,3.638,1.234,5.164,0.331c1.355-0.802,2.103-2.233,2.001-3.827 C723.692,477.097,714.826,474.448,710.342,473.498z"/><path fill="#001b47" d="M781.561,299.043c-0.397,0-0.798-0.118-1.148-0.364c-6.841-4.808-33.489-9.676-43.18-11.146 c-1.092-0.166-1.843-1.186-1.678-2.277s1.184-1.842,2.277-1.678c1.461,0.222,35.875,5.499,44.88,11.829 c0.904,0.635,1.122,1.883,0.486,2.786C782.81,298.748,782.19,299.043,781.561,299.043z"/><path fill="#FFF" d="M718.425,793.754c-48.119,0-102.99-35.014-140.724-64.563c-41.198-32.262-71.41-65.135-71.71-65.463 c-0.56-0.611-0.517-1.56,0.094-2.119c0.612-0.56,1.561-0.517,2.119,0.094c0.299,0.327,30.371,33.042,71.382,65.153 c37.349,29.244,91.585,63.898,138.833,63.898c0.487,0,0.971-0.004,1.456-0.011c0.823,0.035,1.51,0.649,1.523,1.477 c0.012,0.829-0.649,1.51-1.477,1.523C719.422,793.75,718.923,793.754,718.425,793.754z"/><path fill="#FFF" d="M747.373,747.095c-0.242,0-0.487-0.059-0.714-0.182c-0.729-0.395-0.998-1.306-0.603-2.034 c2.911-5.362,42.729-91.015,43.131-91.879c0.35-0.751,1.242-1.078,1.993-0.728c0.751,0.349,1.077,1.241,0.728,1.993 c-1.643,3.534-40.26,86.603-43.215,92.046C748.421,746.811,747.905,747.095,747.373,747.095z"/><path fill="#FFF" d="M618.127,776.758c-0.321,0-0.644-0.102-0.917-0.313c-0.655-0.507-0.775-1.449-0.269-2.104 c38.033-49.165,53.892-100.161,60.498-134.284c7.164-37.001,5.298-62.701,5.279-62.956c-0.063-0.826,0.554-1.547,1.38-1.611 c0.833-0.069,1.547,0.554,1.611,1.38c0.02,0.258,1.918,26.277-5.304,63.648c-6.662,34.471-22.668,85.988-61.091,135.658 C619.019,776.558,618.575,776.758,618.127,776.758z"/><path fill="#FFF" d="M649.731,666.07c-15.167,0-27.262-4.966-36-14.793c-23.78-26.742-14.729-79.641-14.333-81.88 c0.145-0.816,0.921-1.362,1.739-1.215c0.815,0.145,1.36,0.923,1.215,1.739c-0.095,0.534-9.191,53.717,13.625,79.368 c8.904,10.011,21.64,14.611,37.861,13.66c0.834-0.035,1.537,0.583,1.585,1.41s-0.583,1.537-1.41,1.585 C652.56,666.027,651.131,666.07,649.731,666.07z"/><path fill="#FFF" d="M567.905,652.208c-0.351,0-0.703-0.122-0.987-0.371c-10.607-9.281-38.484-16.956-38.764-17.032 c-0.572-0.156-0.999-0.635-1.088-1.222c-0.089-0.586,0.176-1.17,0.676-1.49c1.216-0.776,29.938-18.99,43.194-16.452 c0.813,0.156,1.347,0.942,1.191,1.755c-0.156,0.813-0.943,1.35-1.755,1.191c-9.819-1.884-30.53,9.735-38.137,14.275 c7.877,2.366,27.67,8.851,36.66,16.716c0.624,0.545,0.687,1.493,0.141,2.117C568.738,652.035,568.323,652.208,567.905,652.208z"/><path fill="#3e98d4" d="M361.896,90.426c38.81,25.425,65.801,52.429,84.431,78.837c59.705,84.71,33.181,163.266,33.181,163.266 S372.153,299.48,354.962,188.461C350.671,160.837,351.969,128.395,361.896,90.426z"/><path fill="#001b47" d="M446.326,169.263c59.705,84.71,33.181,163.266,33.181,163.266S372.153,299.48,354.962,188.461 c68.493,38.833,36.422-12.409,47.752-18.048C414.509,164.543,421.763,159.72,446.326,169.263z"/><path fill="#001b47" d="M480.435,331.792l-1.859,1.463c-0.09-0.116-9.171-11.697-22.086-30.471 c-31.567-45.877-85.983-134.448-95.768-212.209l2.346-0.295c9.722,77.263,63.925,165.465,95.37,211.165 C471.309,320.15,480.345,331.677,480.435,331.792z"/><rect width="70.349" height="2.364" x="417.549" y="238.422" fill="#001b47" transform="matrix(0.4445 -0.8958 0.8958 0.4445 36.8605 538.6467)"/><polygon fill="#001b47" points="461.351 192.063 432.607 262.542 430.415 261.649 459.164 191.171"/><rect width="2.365" height="59.833" x="382.734" y="182.937" fill="#001b47" transform="matrix(0.4398 -0.8981 0.8981 0.4398 23.9169 464.0478)"/><path fill="#001b47" d="M394.35,190.467l-2.152,0.98l1.076-0.49l-1.074,0.496c-1.175-2.267-21.179-13.206-39.838-22.473 l1.054-2.122C359.927,170.096,392.521,186.442,394.35,190.467z"/><rect width="47.268" height="2.364" x="371.382" y="144.488" fill="#001b47" transform="matrix(0.5313 -0.8472 0.8472 0.5313 61.746 402.941)"/><rect width="2.365" height="53.351" x="424.364" y="260.172" fill="#001b47" transform="matrix(0.2397 -0.9708 0.9708 0.2397 45.0521 631.2245)"/><rect width="76.377" height="2.364" x="395.793" y="205.944" fill="#001b47" transform="matrix(0.3652 -0.9309 0.9309 0.3652 82.6769 535.495)"/><path fill="#3e98d4" d="M381.879,207.429c89.201,45.277,102.903,124.161,102.903,124.161s-60.793,12.26-119.383-18.594 c-38.986-20.537-77-60.143-95.495-135.128C316.469,181.704,353.105,192.815,381.879,207.429z"/><path fill="#001b47" d="M381.879,207.429c89.201,45.277,102.903,124.161,102.903,124.161s-60.793,12.26-119.383-18.594 c23.323,3.317,25.369-14.668,36.125-20.563C415.394,284.833,375.602,271.915,381.879,207.429z"/><path fill="#001b47" d="M485.249,330.509l-0.934,2.174c-0.135-0.057-13.391-5.792-33.334-15.937 c-48.723-24.785-137.16-75.692-182.034-138.183l1.92-1.38c44.581,62.082,132.655,112.768,181.187,137.455 C471.924,324.745,485.118,330.455,485.249,330.509z"/><rect width="2.363" height="69.049" x="416.963" y="229.469" fill="#001b47" transform="matrix(0.9993 -0.0364 0.0364 0.9993 -9.3247 15.3824)"/><rect width="2.364" height="74.714" x="405.092" y="218.844" fill="#001b47" transform="matrix(0.9939 -0.1107 0.1107 0.9939 -25.8652 46.5508)"/><rect width="58.73" height="2.365" x="316.896" y="271.974" fill="#001b47" transform="matrix(0.9991 -0.0423 0.0423 0.9991 -11.2429 14.889)"/><path fill="#001b47" d="M344.787,248.942l-1.425,1.888l0.713-0.942l-0.708,0.946c-2.091-1.401-24.46-1.468-44.878-0.715 l-0.086-2.364C308.427,247.386,341.403,246.386,344.787,248.942z"/><rect width="2.363" height="46.398" x="323.178" y="186.805" fill="#001b47" transform="matrix(0.998 0.063 -0.063 0.998 13.8826 -20.0282)"/><rect width="52.372" height="2.366" x="390.653" y="316.293" fill="#001b47" transform="matrix(0.9676 -0.2524 0.2524 0.9676 -66.6413 115.5039)"/><polygon fill="#001b47" points="392.563 281.81 390.218 282.106 380.961 207.708 383.307 207.415"/><path fill="#3e98d4" d="M485.727,332.847c0,0-121.22-37.315-85.149-175.277C518.781,234.979,485.727,332.847,485.727,332.847z"/><path fill="#001b47" d="M486.657,332.116l-1.859,1.459c-0.066-0.081-6.646-8.473-16.005-22.077 c-22.87-33.239-62.296-97.42-69.388-153.781l2.346-0.296c7.03,55.864,46.242,119.674,68.991,152.738 C480.056,323.695,486.589,332.036,486.657,332.116z"/><rect width="50.933" height="2.364" x="440.87" y="264.391" fill="#001b47" transform="matrix(0.4445 -0.8958 0.8958 0.4445 21.1699 565.2811)"/><rect width="55.107" height="2.363" x="433.833" y="255.161" fill="#001b47" transform="matrix(0.3777 -0.9259 0.9259 0.3777 49.7758 586.7448)"/><rect width="2.365" height="43.32" x="415.338" y="224.545" fill="#001b47" transform="matrix(0.4404 -0.8978 0.8978 0.4404 12.0334 511.7163)"/><path fill="#001b47" d="M424.374,229.865l-2.154,0.977l0.015,0.032c-1.065-1.709-15.429-9.55-28.703-16.144l1.052-2.115 C403.106,216.847,423.072,227,424.374,229.865z"/><rect width="34.222" height="2.365" x="407.447" y="196.381" fill="#001b47" transform="matrix(0.5313 -0.8472 0.8472 0.5313 31.6192 452.2789)"/><rect width="2.367" height="38.629" x="445.478" y="280.461" fill="#001b47" transform="matrix(0.2387 -0.9711 0.9711 0.2387 48.9331 661.97)"/><polygon fill="#001b47" points="463.965 216.752 443.772 268.226 441.572 267.367 461.764 215.886"/><path fill="#FFF" d="M306.635,191.673c-0.01,0.107-0.029,0.214-0.055,0.317c-0.306,1.27-1.582,2.053-2.852,1.746 c-4.55-1.091-8.913-2.111-12.298-2.592c-1.294-0.185-2.205-1.357-2.011-2.672c0.184-1.294,1.38-2.195,2.671-2.011 c3.595,0.508,8.08,1.556,12.744,2.678C305.999,189.42,306.753,190.518,306.635,191.673z"/><path fill="#FFF" d="M298.183,229.218c-0.073,0.723-0.472,1.398-1.145,1.8c-1.119,0.665-2.573,0.298-3.239-0.825 c-4.122-6.928-7.546-13.565-10.175-19.727c-1.602-3.748-2.756-6.851-3.531-9.48c-0.372-1.252,0.345-2.57,1.602-2.938 c1.251-0.368,2.566,0.35,2.933,1.604c0.722,2.451,1.816,5.381,3.343,8.957c2.549,5.967,5.879,12.417,9.891,19.166 C298.13,228.226,298.232,228.733,298.183,229.218z"/><path fill="#FFF" d="M321.514,261.442c-0.047,0.456-0.223,0.898-0.54,1.278c-0.835,1-2.328,1.135-3.329,0.294 c-1.954-1.633-7.946-8.961-14.224-17.946c-0.747-1.072-0.486-2.547,0.586-3.293c1.068-0.748,2.543-0.486,3.292,0.583 c6.982,10,12.328,16.147,13.379,17.032C321.303,259.913,321.589,260.69,321.514,261.442z"/><path fill="#FFF" d="M364.838,158.37c-0.117,1.158-1.077,2.08-2.271,2.123c-1.306,0.045-2.401-0.977-2.447-2.281 c-0.105-3.031-0.179-6.037-0.218-8.928c-0.015-1.306,1.028-2.379,2.332-2.396c1.306-0.019,2.38,1.027,2.397,2.333 c0.04,2.857,0.113,5.825,0.216,8.826C364.852,158.158,364.848,158.266,364.838,158.37z"/><path fill="#FFF" d="M403.146,204.32c-0.113,1.115-1.013,2.026-2.172,2.117c-1.3,0.101-2.436-0.875-2.537-2.18 c-0.251-3.26-0.428-6.546-0.522-9.778c-0.022-1.306,0.99-2.393,2.295-2.432c1.306-0.04,2.394,0.99,2.433,2.294 c0.092,3.154,0.266,6.369,0.509,9.557C403.161,204.039,403.16,204.182,403.146,204.32z"/><path fill="#FFF" d="M407.386,232.696c-0.1,0.983-0.816,1.838-1.834,2.067c-1.276,0.286-2.539-0.515-2.826-1.789 c-0.264-1.168-0.518-2.356-0.763-3.556c-0.258-1.281,0.564-2.529,1.846-2.79c1.28-0.262,2.528,0.566,2.789,1.847 c0.239,1.17,0.488,2.323,0.746,3.463C407.398,232.192,407.412,232.447,407.386,232.696z"/><path fill="#FFF" d="M424.633,279.379c-0.075,0.747-0.507,1.445-1.213,1.835c-1.149,0.629-2.583,0.213-3.211-0.934 c-0.522-0.947-1.083-1.991-1.675-3.135c-0.6-1.16-0.145-2.584,1.015-3.184c1.163-0.599,2.586-0.144,3.187,1.016 c0.572,1.104,1.112,2.112,1.614,3.026C424.592,278.44,424.68,278.922,424.633,279.379z"/><path fill="#FFF" d="M428.38,285.713c-0.072,0.704-0.463,1.371-1.113,1.775c-1.109,0.685-2.568,0.341-3.251-0.772l-0.185-0.288 c-0.556-0.879-1.856-2.933-3.622-6.145c-0.629-1.144-0.213-2.583,0.93-3.215c1.145-0.629,2.583-0.209,3.211,0.935 c1.695,3.083,2.946,5.054,3.477,5.897l0.209,0.331C428.321,284.693,428.429,285.212,428.38,285.713z"/><path fill="#001b47" d="M289.157,227.917c-0.063,0.618-0.45,1.185-1.061,1.448c-0.898,0.39-1.943-0.024-2.331-0.922 c-8.078-18.704-12.254-31.165-12.299-31.287c-0.306-0.932,0.197-1.936,1.123-2.246c0.93-0.309,1.935,0.194,2.246,1.122 c0.038,0.123,4.173,12.455,12.187,31.002C289.146,227.323,289.187,227.626,289.157,227.917z"/><path fill="#001b47" d="M318.005,275.129c-0.043,0.434-0.247,0.854-0.603,1.161c-0.738,0.64-1.859,0.564-2.501-0.179 c-4.359-5.024-8.46-10.376-12.192-15.898c-0.55-0.814-0.334-1.915,0.477-2.462c0.81-0.548,1.913-0.337,2.461,0.477 c3.652,5.404,7.667,10.642,11.934,15.561C317.916,274.172,318.054,274.663,318.005,275.129z"/><path fill="#001b47" d="M338.375,294.878c-0.033,0.335-0.162,0.66-0.389,0.938c-0.618,0.762-1.734,0.876-2.493,0.259 c-4.612-3.749-9.082-7.813-13.291-12.074c-0.689-0.697-0.681-1.817,0.017-2.506c0.697-0.69,1.821-0.682,2.509,0.015 c4.119,4.171,8.493,8.144,13.002,11.812C338.212,293.713,338.434,294.303,338.375,294.878z"/><path fill="#001b47" d="M367.163,313.176c-0.017,0.166-0.058,0.331-0.126,0.496c-0.372,0.906-1.409,1.334-2.314,0.963 c-0.268-0.111-6.667-2.778-16.122-8.965c-0.817-0.536-1.046-1.637-0.514-2.454c0.538-0.819,1.636-1.048,2.457-0.515 c9.147,5.988,15.469,8.629,15.532,8.654C366.816,311.662,367.241,312.413,367.163,313.176z"/><path fill="#001b47" d="M398.02,227.595c-0.078,0.775-0.664,1.432-1.468,1.568c-0.965,0.164-1.882-0.488-2.044-1.452 c-1.585-9.374-2.331-19.178-2.224-29.143c0.021-0.976,0.813-1.765,1.793-1.755c0.981,0.013,1.765,0.815,1.755,1.795 c-0.109,9.754,0.624,19.349,2.174,28.512C398.031,227.28,398.037,227.439,398.02,227.595z"/><path fill="#001b47" d="M417.799,279.49c-0.052,0.519-0.332,1.012-0.807,1.314c-0.826,0.528-1.923,0.289-2.452-0.538 c-5.64-8.804-10.289-18.371-13.826-28.428c-0.325-0.927,0.159-1.939,1.083-2.262c0.927-0.324,1.941,0.16,2.263,1.083 c3.447,9.801,7.976,19.118,13.465,27.693C417.75,278.706,417.837,279.105,417.799,279.49z"/><path fill="#001b47" d="M442.69,307.53c-0.029,0.294-0.133,0.585-0.317,0.842c-0.564,0.799-1.672,0.989-2.471,0.423 c-0.313-0.221-7.726-5.534-16.715-16.572c-0.619-0.761-0.509-1.877,0.253-2.495c0.76-0.621,1.875-0.505,2.495,0.254 c8.688,10.669,15.946,15.866,16.018,15.917C442.495,306.283,442.753,306.915,442.69,307.53z"/><path fill="#ebeff0" d="M601.735,77.565c-0.304-0.279-0.531-0.648-0.631-1.081c-3.13-13.135-6.032-21.014-6.062-21.093 c-0.411-1.108,0.152-2.34,1.262-2.753c1.108-0.412,2.343,0.153,2.754,1.262c0.121,0.327,3.016,8.176,6.212,21.591 c0.275,1.152-0.439,2.306-1.587,2.581C602.964,78.243,602.244,78.031,601.735,77.565z"/><path fill="#3e98d4" d="M557.503,69.658c11.618-13.005,25.466-25.941,41.881-38.653c60.271,173.202-24.602,262.974-52.349,286.633 c-5.085,4.347-8.251,6.459-8.251,6.459s-57.333-80.974-27.22-176.089l0.008-0.009C519.65,122.469,534.031,95.927,557.503,69.658"/><path fill="#001b47" d="M547.036,317.638c-5.085,4.347-8.251,6.459-8.251,6.459s-57.333-80.974-27.22-176.089l0.008-0.009 c0,0,47.857,90.131,50.358,115.073C563.43,277.994,554.48,301.308,547.036,317.638z"/><path fill="#001b47" d="M538.063,324.89c-0.433-0.397-0.468-0.429-0.258-12.096c0.12-6.616,0.412-17.277,1.119-30.5 c3.308-61.813,15.438-176.722,59.534-251.83l1.847,1.086c-43.868,74.714-55.945,189.241-59.241,250.858 c-1.372,25.588-1.209,41.522-1.207,41.673l-1.068,0.015L538.063,324.89z"/><rect width="2.137" height="78.221" x="577.151" y="184.949" fill="#001b47" transform="matrix(0.4385 0.8987 -0.8987 0.4385 526.0329 -393.8538)"/><rect width="2.142" height="84.637" x="579.771" y="165.871" fill="#001b47" transform="matrix(0.503 0.8643 -0.8643 0.503 468.5993 -398.5408)"/><rect width="66.536" height="2.144" x="502.471" y="152.743" fill="#001b47" transform="matrix(0.4434 0.8963 -0.8963 0.4434 436.0448 -394.5792)"/><path fill="#001b47" d="M557.792,140.626c0.64-2.73-9.761-26.246-19.874-46.98l1.927-0.94c3.538,7.258,21.14,43.702,20.033,48.41 L557.792,140.626z"/><rect width="2.139" height="52.562" x="590.023" y="75.866" fill="#001b47" transform="matrix(0.3475 0.9377 -0.9377 0.3475 481.4738 -487.6054)"/><rect width="59.327" height="2.141" x="492.564" y="246.181" fill="#001b47" transform="matrix(0.6228 0.7824 -0.7824 0.6228 390.4371 -315.3197)"/><polygon fill="#001b47" points="547.884 205.512 546.785 203.678 619.588 159.948 620.693 161.783"/><path fill="#3e98d4" d="M490.263,214.156c2.259-9.854,5.941-20.382,11.385-31.602c76.27,74.8,37.356,142.518,37.356,142.518 S472.991,289.479,490.263,214.156"/><path fill="#001b47" d="M538.049,325.556c-0.037-0.072-3.684-7.266-8.625-18.738c-12.074-28.029-31.881-81.458-28.845-124.339 l2.136,0.149c-3.005,42.431,16.679,95.49,28.676,123.341c4.916,11.409,8.532,18.546,8.569,18.616L538.049,325.556z"/><rect width="38.509" height="2.139" x="515.27" y="271.257" fill="#001b47" transform="matrix(-0.6103 0.7922 -0.7922 -0.6103 1076.4727 15.0908)"/><rect width="41.664" height="2.141" x="511.378" y="263.682" fill="#001b47" transform="matrix(-0.5506 0.8347 -0.8347 -0.5506 1046.2687 -33.7187)"/><rect width="2.143" height="32.752" x="499.356" y="234.256" fill="#001b47" transform="matrix(-0.6065 0.7951 -0.7951 -0.6065 1003.2007 4.7384)"/><path fill="#001b47" d="M487.902,224.05l1.306-1.696c5.714,4.404,19.062,14.908,19.62,17.275l-2.087,0.488l0.018,0.051 C506.139,238.697,496.683,230.819,487.902,224.05z"/><rect width="2.142" height="25.874" x="512.475" y="202.805" fill="#001b47" transform="matrix(0.728 0.6856 -0.6856 0.728 287.6029 -293.3985)"/><rect width="2.142" height="29.206" x="513.827" y="280.196" fill="#001b47" transform="matrix(-0.4239 0.9057 -0.9057 -0.4239 1000.1684 -46.5798)"/><rect width="41.807" height="2.143" x="507.016" y="251.82" fill="#001b47" transform="matrix(-0.5394 0.8421 -0.8421 -0.5394 1025.6177 -55.249)"/><path fill="#ebeff0" d="M596.943,225.835c-0.61-0.559-0.866-1.444-0.58-2.28c1.817-5.264,3.463-10.705,4.896-16.171 c0.301-1.144,1.47-1.828,2.615-1.53c1.144,0.301,1.829,1.47,1.528,2.616c-1.458,5.572-3.137,11.117-4.991,16.484 c-0.383,1.12-1.605,1.712-2.722,1.326C597.404,226.18,597.153,226.028,596.943,225.835z"/><path fill="#ebeff0" d="M605.247,194.711c-0.53-0.486-0.805-1.229-0.658-1.99c1.181-6.112,2.144-12.405,2.861-18.7 c0.134-1.177,1.194-2.021,2.369-1.888c1.173,0.134,2.019,1.195,1.888,2.37c-0.731,6.409-1.708,12.812-2.913,19.034 c-0.225,1.161-1.349,1.922-2.508,1.697C605.884,195.156,605.528,194.968,605.247,194.711z"/><path fill="#ebeff0" d="M609.27,162.961c-0.461-0.423-0.735-1.044-0.693-1.716c1.333-21.066,0.177-42.842-3.445-64.728 c-0.195-1.167,0.596-2.271,1.763-2.463c1.169-0.191,2.27,0.598,2.464,1.763c3.672,22.207,4.848,44.31,3.495,65.699 c-0.075,1.181-1.092,2.078-2.272,2.003C610.072,163.486,609.616,163.279,609.27,162.961z"/><path fill="#ebeff0" d="M543.989,281.564c-0.379-0.347-0.635-0.829-0.687-1.377c-0.812-8.542-3.528-19.374-8.068-32.19 c-0.397-1.114,0.186-2.34,1.303-2.736c1.114-0.395,2.336,0.19,2.736,1.306c4.656,13.148,7.447,24.325,8.291,33.215 c0.114,1.177-0.749,2.223-1.928,2.334C545.01,282.177,544.42,281.958,543.989,281.564z"/><path fill="#ebeff0" d="M529.876,239.785c-0.191-0.173-0.35-0.385-0.47-0.627c-4.091-8.215-8.875-16.974-14.22-26.035 c-0.601-1.021-0.261-2.333,0.756-2.933c1.021-0.603,2.334-0.265,2.935,0.757c5.393,9.147,10.227,17.994,14.364,26.299 c0.526,1.059,0.095,2.345-0.962,2.875C531.462,240.527,530.509,240.365,529.876,239.785z"/><path fill="#ebeff0" d="M510.708,205.526c-0.141-0.13-0.27-0.286-0.375-0.459c-3.466-5.627-5.775-9.115-5.798-9.148 c-0.656-0.986-0.385-2.316,0.599-2.969c0.985-0.654,2.318-0.39,2.969,0.602c0.025,0.034,2.369,3.576,5.879,9.271 c0.619,1.005,0.305,2.326-0.703,2.946C512.448,206.282,511.398,206.157,510.708,205.526z"/><path fill="#001b47" d="M508.392,156.321c-0.353-0.323-0.559-0.8-0.518-1.313c0.501-6.283,2.734-13.825,6.636-22.412 c0.369-0.808,1.321-1.164,2.127-0.798c0.809,0.363,1.165,1.32,0.799,2.127c-3.747,8.247-5.889,15.427-6.36,21.34 c-0.069,0.883-0.845,1.543-1.728,1.474C508.977,156.709,508.647,156.556,508.392,156.321z"/><path fill="#001b47" d="M523.152,118.764c-0.546-0.5-0.69-1.333-0.297-1.999c6.517-11.044,15.134-23.463,25.609-36.914 c0.544-0.701,1.554-0.827,2.256-0.279c0.683,0.55,0.822,1.551,0.279,2.254c-10.392,13.341-18.929,25.645-25.376,36.57 c-0.451,0.763-1.436,1.019-2.201,0.569C523.322,118.904,523.235,118.839,523.152,118.764z"/><path fill="#001b47" d="M561.182,66.511c-0.632-0.579-0.702-1.554-0.147-2.214c12.672-15.161,22.814-25.822,22.912-25.929 c0.605-0.633,1.604-0.665,2.249-0.076c0,0,0.014,0.014,0.022,0.021c0.643,0.611,0.667,1.628,0.056,2.271 c-0.101,0.105-10.174,10.698-22.775,25.773c-0.569,0.68-1.582,0.771-2.262,0.2C561.217,66.542,561.198,66.525,561.182,66.511z"/><path fill="#001b47" d="M494.62,278.207c-0.159-0.144-0.289-0.322-0.38-0.529c-2.214-4.952-3.985-10.22-5.264-15.661 c-0.203-0.862,0.335-1.727,1.197-1.931c0.863-0.2,1.73,0.332,1.934,1.198c1.232,5.242,2.934,10.314,5.064,15.083 c0.362,0.809,0,1.759-0.81,2.122C495.759,278.756,495.078,278.626,494.62,278.207z"/><path fill="#001b47" d="M486.932,241.889c-0.313-0.287-0.513-0.697-0.519-1.159c-0.448-27.196,9.031-48.859,9.434-49.769 c0.362-0.811,1.311-1.176,2.121-0.817c0.808,0.361,1.176,1.31,0.818,2.119c-0.098,0.218-9.597,21.955-9.163,48.414 c0.016,0.886-0.691,1.617-1.579,1.634C487.617,242.318,487.226,242.158,486.932,241.889z"/></svg>