<svg xmlns="http://www.w3.org/2000/svg" version="1.0" viewBox="0 0 1133.858 1133.858"><path fill="#EFECE2" fill-rule="evenodd" d="M414.916,809.177c-0.642-0.976-0.584-2.492-0.622-3.769	c-0.056-1.891,0.047-3.79,0.157-5.681c0.284-4.928-1.779-8.735-5.505-11.784c-6.126-5.013-13.112-7.426-21.105-7.429	c-4.451,0.627-8.938,1.063-13.345,1.919c-14.066,2.73-26.758,8.945-39.045,16.005c-22.066,12.677-42.354,27.857-61.697,44.342	c-10.768,9.178-21.422,18.477-30.886,29.038c-6.069,6.772-11.21,14.163-14.906,22.515c-1.682,3.802-2.518,7.741-2.246,11.905	c0.289,4.426,2.5,6.853,6.8,7.871c2.069,0.49,4.197,1.157,6.012,2.229c12.795,7.563,25.511,15.26,38.261,22.9	c5.153,3.088,5.944,3.025,10.22-1.09c21.429-20.625,42.849-41.262,64.257-61.91c16.37-15.79,32.721-31.599,49.075-47.406	c4.403-4.255,8.762-8.556,13.187-12.788C415.615,814.045,416.823,812.075,414.916,809.177z" clip-rule="evenodd"/><path fill="#002300" fill-rule="evenodd" d="M1045.984,498.549c-2.688-2.02-6.18-1.899-8.814,0.517	c-1.277,1.17-2.321,2.612-3.383,3.998C969.453,586.98,905.135,670.91,840.782,754.813c-4.431,5.776-9.478,11.107-13.612,17.078	c-8.683,12.542-20.26,21.214-34.21,26.917c-7.093,2.9-14.531,4.922-22.18,3.655c-4.992-0.827-9.84-0.444-14.766-0.385	c-29.9,0.362-59.8,0.694-89.7,1.017c-58.634,0.632-117.267,1.272-175.901,1.869c-43.757,0.445-87.514,0.817-131.271,1.267	c-2.16,0.022-4.399,0.182-6.453,0.784c-2.855,0.837-4.467,3.437-4.482,6.323c-0.015,2.857,1.631,5.492,4.406,6.407	c1.623,0.536,3.426,0.724,5.148,0.726c4.812,0.005,9.319-0.214,14.132-0.263c62.864-0.635,126.288-1.255,188.288-1.879	c0,0.015,0,0.031,0,0.046c26-0.325,52.229-0.697,78.191-0.964c40.111-0.412,80.375-0.759,120.485-1.108	c3.05-0.026,6.225-0.168,9.217,0.29c5.442,0.833,10.829,0.351,16.131-0.647c15.284-2.873,28.477-10.048,40.295-19.985	c6.878-5.783,12.293-12.881,17.692-19.912c67.87-88.373,135.637-176.828,203.417-265.27c0.883-1.152,1.801-2.328,2.422-3.626	C1049.539,504.001,1048.649,500.551,1045.984,498.549z" clip-rule="evenodd"/><path fill="#16a34a" fill-rule="evenodd" d="M504.354,818.808c14.587,0,29.173,0.036,43.759-0.038	c2.301-0.012,4.598-0.532,6.898-0.798c0.709-0.083,1.43-0.183,2.137-0.135c3.028,0.202,6.057,0.688,9.08,0.654	c38.8-0.43,77.6-0.941,116.4-1.402c4.652-0.055,9.31,0.165,13.961,0.064c2.303-0.05,4.59-0.712,6.896-0.805	c28.566-1.15,57.135-2.229,85.701-3.384c2.603-0.105,5.273-0.31,7.755-1.02c1.756-0.503,3.101-0.385,4.498,0.556	c3.376,2.273,6.639,4.57,9.242,7.877c36.261,46.08,72.612,92.088,108.942,138.113c3.197,4.05,2.617,8.237-1.66,11.663	c-2.792,2.236-6.092,2.702-9.507,2.489c-6.202-0.387-11.556-2.852-16.143-6.985c-1.623-1.461-3.147-3.036-4.659-4.616	c-2.98-3.116-6.677-4.092-10.787-3.441c-6.035,0.954-7.744,3.793-7.573,9.858c0.331,11.713-6.648,20.441-16.487,21.071	c-2.985,0.191-6.12-0.312-9.04-1.063c-6.21-1.598-10.96-5.107-15.216-10.203c-30.202-36.162-60.72-72.059-91.139-108.039	c-9.794-11.585-19.592-23.167-29.387-34.752c-0.659-0.779-1.498-1.479-1.923-2.373c-2.846-5.984-8.37-7.042-13.962-7.001	c-22.75,0.161-45.497,0.645-68.245,0.974c-21.296,0.308-42.592,0.65-63.889,0.768c-3.091,0.017-4.769,1.584-6.625,3.463	c-42.744,43.281-85.504,86.546-128.259,129.817c-3.383,3.424-6.706,6.91-10.148,10.274c-3.521,3.442-7.759,5.629-12.59,6.608	c-5.114,1.036-9.45-0.671-12.219-4.849c-5.52-8.331-14.738-10.748-24.565-5.492c-2.414,1.292-4.819,2.885-6.694,4.849	c-5.636,5.899-12.7,7.218-20.333,6.886c-1.706-0.074-3.471-0.568-5.062-1.225c-7.321-3.025-10.286-10.631-6.676-17.69	c1.439-2.813,3.533-5.344,5.594-7.781c32.864-38.88,65.871-77.639,98.574-116.652c5.986-7.14,13.007-11.973,21.818-14.428	c1.806-0.503,3.727-0.824,5.597-0.831c15.311-0.065,30.624-0.037,45.935-0.037C504.355,819.437,504.355,819.123,504.354,818.808z M711.514,824.309c1.709,2.742,2.703,4.873,4.166,6.606c40.167,47.595,80.397,95.138,120.566,142.731	c3.633,4.304,8.279,6.39,13.658,6.901c6.915,0.658,11.971-5.064,10.839-11.975c-1.239-7.568,1.694-13.493,8.491-16.969	c7.363-3.766,18.701-3.807,26.397,5.751c2.888,3.588,6.553,5.776,10.888,6.845c1.991,0.492,4.236,1.028,6.349-0.966	c-1.038-1.371-1.966-2.646-2.942-3.883c-29.177-36.986-58.357-73.969-87.54-110.951c-5.782-7.328-11.593-14.632-17.352-21.979	c-3.017-3.848-6.46-5.95-11.801-5.686c-25.492,1.259-51.003,2.122-76.507,3.14C715.295,823.934,713.868,824.109,711.514,824.309z M544.079,827.955c-0.145-0.292-0.289-0.584-0.434-0.875c-1.428,0-2.856-0.02-4.283,0.003c-10.646,0.172-21.291,0.385-31.937,0.523	c-15.75,0.206-31.502,0.549-47.251,0.453c-7.371-0.044-13.262,2.986-18.571,7.441c-2.634,2.21-4.668,5.146-6.917,7.803	c-32.045,37.84-64.082,75.688-96.109,113.543c-1.223,1.446-2.433,2.918-3.488,4.487c-2.982,4.434-1.604,7.874,3.641,8.92	c1.533,0.306,3.318,0.469,4.74-0.021c2.845-0.981,5.659-2.227,8.23-3.786c4.099-2.485,7.747-5.804,12.011-7.906	c11.564-5.7,23.155-3,31.474,6.811c0.47,0.555,0.933,1.118,1.428,1.65c1.919,2.061,4.165,2.623,6.689,1.25	c1.653-0.898,3.358-1.792,4.79-2.987c2.345-1.957,4.553-4.091,6.703-6.266c42.147-42.626,84.278-85.266,126.407-127.91	C542.199,830.081,543.122,829.001,544.079,827.955z" clip-rule="evenodd"/><path fill="#16a34a" fill-rule="evenodd" d="M835.088,797.858c-3.649,0.031-5.597-2.883-4.398-5.621	c0.687-1.569,1.87-2.94,2.928-4.325c34.414-45.074,68.84-90.139,103.266-135.203c14.425-18.883,28.853-37.765,43.289-56.64	c0.883-1.155,1.74-2.366,2.806-3.335c1.63-1.483,3.671-1.502,5.18-0.291c1.534,1.232,1.953,3.131,0.929,5.121	c-0.595,1.155-1.428,2.198-2.223,3.239c-46.457,60.823-92.921,121.642-139.385,182.459c-3.009,3.938-5.954,7.929-9.077,11.775	C837.363,796.318,835.858,797.218,835.088,797.858z" clip-rule="evenodd"/><path fill="#EFECE2" fill-rule="evenodd" d="M705.173,801.477c-1.404-0.07-2.809-0.216-4.213-0.199	c-30.334,0.375-60.669,0.756-91.004,1.163c-11.371,0.152-22.742,0.405-34.113,0.55c-32.23,0.413-64.462,0.79-96.692,1.189	c-15.747,0.195-31.495,0.411-47.244,0.618c-23.333,0.305-46.665,0.644-69.999,0.876c-3.083,0.031-5.543,0.871-7.927,2.918	c-30.418,26.147-60.901,52.219-91.38,78.295c-36.021,30.817-72.063,61.611-108.065,92.449c-2.071,1.774-3.953,2.125-6.74,1.462	c-39.036-9.295-68.911-32.391-94.157-62.392c-3.63-4.314-6.528-9.311-9.327-14.239c-1.698-2.99-3.489-5.646-6.392-7.546	c-1.579-1.033-3.047-2.263-4.443-3.538c-1.2-1.095-2.317-2.398-1.357-4.196c0.881-1.649,2.27-2.141,4.066-1.47	c0.357,0.133,0.806,0.019,1.213,0.019c0.267-0.316,0.534-0.63,0.802-0.946c-0.837-0.459-1.732-0.836-2.499-1.393	c-4.163-3.02-4.189-3.703-0.233-7.319c-0.152-0.98-0.447-2.098-0.452-3.215c-0.002-0.661,0.467-1.906,0.702-1.9	c4.441,0.101,2.466-6.347,6.619-6.424c0.668-0.012,1.335-0.001,2.463-0.001c-0.685-1.629-1.268-2.764-1.64-3.963	c-0.505-1.633-0.461-3.454,1.161-4.269c1.129-0.566,2.75-0.514,4.055-0.255c1.07,0.213,2.071,1.047,2.978,1.765	c2.056,1.626,4.069,3.313,6.039,5.043c3.84,3.374,7.787,6.112,13.1,7.242c12.232,2.602,23.279,8.306,34.01,14.59	c0.629,0.369,1.329,0.662,1.864,1.139c4.391,3.912,8.809,2.984,13.081-0.065c3.075-2.195,6.115-4.494,8.877-7.063	c9.637-8.962,18.057-19.046,26.39-29.196c13.235-16.121,26.676-32.08,39.601-48.446c12.381-15.677,24.197-31.799,36.297-47.698	c11.921-15.666,23.881-31.302,35.833-46.943c9.837-12.873,21.848-23.363,34.996-32.76c28.087-20.075,58.681-35.199,90.973-47.128	c26.985-9.968,54.801-16.949,82.878-22.886c10.367-2.192,20.958-3.47,31.505-4.637c20.177-2.233,40.458-2.064,60.718-1.729	c3.878,0.064,6.425-1.128,8.928-4.072c23.071-27.128,52.328-43.601,87.217-50.375c13.263-2.575,26.661-3.336,40.031-2.364	c25.967,1.888,50.269,9.532,72.667,22.956c6.165,3.696,6.097,3.626,11.848-0.793c27.026-20.767,56.831-35.958,89.901-44.522	c8.668-2.246,17.454-3.083,26.417-2.128c1.747,0.186,3.806-0.354,5.39-1.186c11.931-6.271,21.88-14.899,29.993-25.668	c1.361-1.806,1.446-3.668,1.08-5.778c-4.901-28.282,4.844-51.245,25.784-69.951c5.934-5.3,12.973-8.881,20.761-10.814	c1.123-0.279,2.274-0.531,3.424-0.603c4.694-0.293,6.283,1.231,6.403,6.027c0.014,0.583-0.084,1.178,0.004,1.746	c0.504,3.221,2.974,4.569,5.688,2.765c1.885-1.254,3.457-3.07,4.915-4.843c0.899-1.094,1.351-2.566,1.958-3.891	c2.278-4.966,4.422-6.383,9.607-5.072c3.006,0.76,5.033-0.332,7.285-1.727c3.579-2.218,7.094-4.583,10.852-6.452	c3.854-1.918,5.692-0.664,6.104,3.593c0.042,0.435,0.089,0.876,0.06,1.311c-0.58,8.775,3.068,15.308,9.972,20.66	c7.94,6.155,15.605,12.635,21.873,20.685c17.253,22.162,7.441,54.109-21.093,61.899c-3.65,0.996-7.359,1.493-11.053-0.509	c-1.008-0.547-2.87-0.133-4.079,0.415c-4.886,2.215-8.651,5.827-11.913,10.042c-5.615,7.258-11.22,14.526-16.983,21.667	c-6.777,8.396-14,16.447-20.54,25.021c-25.027,32.819-49.961,65.711-74.732,98.725c-22.23,29.63-44.107,59.526-66.336,89.159	c-7.347,9.793-15.224,19.195-23.006,28.654c-6.239,7.583-13.683,13.943-21.375,19.992c-2.584,2.031-4.587,4.295-5.799,7.433	c-4.201,10.874-8.524,21.702-12.896,32.508c-10.423,25.76-24.875,49.099-42.327,70.672c-9.923,12.266-20.706,23.7-31.765,34.938	c-9.085,9.232-18.791,18.002-25.933,28.962c-2.442,3.75-4.285,7.922-6.104,12.033c-1.348,3.046-1.25,6.204,0.47,9.259	c1.477,2.625,1.851,5.192-1.002,7.384c-0.744,0.57-0.851,1.981-1.598,2.531c-0.932,0.685-2.668,1.558-3.287,1.158	c-2.28-1.475-4.42-0.788-6.678-0.366c-4.346,0.812-5.406,0.459-7.274-3.456c-4.542-9.516-8.056-19.41-8.985-29.979	c-0.624-7.098-1.101-14.266-0.824-21.37c0.248-6.368,1.542-12.704,2.504-19.033c2.126-13.983,4.697-27.876,9.614-41.203	c7.268-19.705,14.704-39.367,25.49-57.484c4.24-7.122,9.378-13.709,14.138-20.519c1.063-1.52,2.253-2.949,3.385-4.42	C705.524,802.223,705.349,801.85,705.173,801.477z M368.351,798.212c-0.005,0.156-0.01,0.313-0.015,0.47c1.942,0,3.884,0,5.825,0	c0.004-0.157,0.009-0.313,0.013-0.47C372.233,798.212,370.292,798.212,368.351,798.212z M402.246,797.408	c0.004,0.12,0.009,0.24,0.013,0.36c1.647,0,3.295,0,4.942,0c-0.003-0.12-0.006-0.24-0.008-0.36	C405.544,797.408,403.895,797.408,402.246,797.408z M693.818,549.275c-0.001-0.14-0.002-0.28-0.004-0.419c-1.141,0-2.282,0-3.423,0	c0.001,0.14,0.002,0.28,0.003,0.419C691.536,549.275,692.677,549.275,693.818,549.275z M657.775,951.203	c-0.144,0.001-0.287,0.002-0.43,0.004c0,0.927,0,1.854,0,2.78c0.144-0.004,0.287-0.008,0.43-0.011	C657.775,953.051,657.775,952.127,657.775,951.203z" clip-rule="evenodd"/><path fill="#FF7C2B" fill-rule="evenodd" d="M573.425,594.78c-0.98,12.727-5.642,23.699-8.647,35.083	c-7.587,28.746-12.216,57.913-12.506,87.665c-0.233,23.886,2.033,47.485,10.111,70.203c1.073,3.018,2.337,5.971,3.578,8.927	c2.249,5.36,1.067,7.372-4.618,7.511c-15.604,0.382-31.209,0.719-46.813,1.059c-40.106,0.873-80.212,1.739-120.319,2.602	c-1.75,0.038-3.508,0.126-5.249-0.002c-3.168-0.233-4.136-1.297-4.213-4.369c-0.131-5.247-0.237-10.493-0.372-15.74	c-0.704-27.561-1.354-55.124-2.138-82.683c-0.797-27.995-1.683-55.987-2.658-83.976c-0.117-3.373,0.944-5.418,3.956-6.97	c9.008-4.64,18.616-7.56,28.325-10.179c18.316-4.942,36.947-8.255,55.755-10.701c22.886-2.976,45.839-4.696,68.926-4.126	c10.063,0.248,20.103,0.959,29.916,3.429C568.822,593.107,571.106,594.016,573.425,594.78z" clip-rule="evenodd"/><path fill="#16a34a" fill-rule="evenodd" d="M598.301,561.23c-3.322-0.522-6-2.221-7.595-5.548	c-1.004-2.093-2.054-4.183-3.285-6.148c-28.496-45.466-57.021-90.913-85.529-136.371c-0.927-1.479-1.9-2.965-2.556-4.569	c-1.33-3.251-0.135-6.656,2.728-8.37c2.802-1.678,5.974-1.277,8.341,1.291c1.172,1.272,2.078,2.807,3.007,4.285	c28.452,45.321,56.921,90.632,85.269,136.018c1.988,3.183,3.954,4.624,7.939,4.401c23.003-1.283,46.022-2.257,69.037-3.311	c14.858-0.681,29.719-1.306,44.579-1.978c17.479-0.791,34.959-1.61,52.438-2.406c1.601-0.072,3.22-0.215,4.807-0.063	c4.08,0.392,6.623,3.066,6.631,6.772c0.009,3.724-2.501,6.414-6.584,6.783c-3.774,0.342-7.564,0.524-11.352,0.69	c-29.719,1.299-59.439,2.548-89.157,3.874c-23.744,1.06-47.485,2.179-71.224,3.356C603.357,560.06,600.949,560.759,598.301,561.23z" clip-rule="evenodd"/><path fill="#002300" fill-rule="evenodd" d="M647.68,941.179c0.248-20.163,4.469-39.565,10.79-58.647	c5.032-15.19,12.565-29.167,20.111-43.132c4.843-8.963,10.158-17.704,15.746-26.226c21.904-33.404,43.984-66.694,66.037-100.001	c5.915-8.933,10.131-18.694,14.148-28.549c7.973-19.564,15.529-39.306,23.863-58.714c7.208-16.788,17.078-32.162,27.233-47.315	c0.646-0.964,1.412-1.862,2.206-2.71c2.392-2.553,3.957-3,5.553-1.669c1.636,1.364,1.421,2.969-0.579,5.725	c-1.711,2.355-3.393,4.741-4.937,7.208c-14.579,23.303-26.768,47.75-36.145,73.642c-4.758,13.14-10.27,26.031-15.973,38.796	c-3.075,6.883-6.894,13.512-11.032,19.827c-15.342,23.413-31.288,46.435-46.356,70.021c-11.059,17.31-23.301,33.879-32.923,52.111	c-9.26,17.545-18.404,35.086-23.665,54.396c-4.474,16.42-7.283,32.991-6.727,50.06c0.505,15.498,4.45,30.207,10.101,44.528	c1.016,2.573,2.264,5.057,3.247,7.641c0.973,2.554,0.369,4.419-1.46,5.255c-1.847,0.845-3.805,0.117-4.933-2.352	c-2.117-4.634-4.233-9.299-5.889-14.109C650.993,972.142,647.507,956.992,647.68,941.179z" clip-rule="evenodd"/><path fill="#002300" fill-rule="evenodd" d="M992.933,590.416c1.295-2.884,2.558-5.783,3.904-8.643	c0.431-0.914,1.045-1.754,1.648-2.574c1.816-2.468,3.368-3.218,5.009-2.349c2.098,1.111,1.98,3.054,1.619,4.974	c-1.019,5.421-1.661,10.903-5.417,15.485c-0.9,1.099-0.613,3.733-0.047,5.377c3.827,11.131,9.74,16.694,22.563,15.223	c8.888-1.02,16.338-4.915,22.457-11.943c-0.8-1.577-1.533-3.122-2.352-4.619c-2.574-4.706-3.902-9.702-3.758-15.09	c0.08-3.007,0.972-5.568,4.004-6.623c2.881-1.001,5.446-0.066,7.584,2.061c2.616,2.605,3.725,5.905,4.058,9.448	c0.37,3.938,0.413,7.935-1.286,11.611c-1.086,2.351-0.243,3.765,1.446,5.273c7.285,6.509,15.827,8.503,25.228,6.781	c8.062-1.477,13.298-6.297,15.235-14.391c1.511-6.313,1.659-12.611-0.743-18.851c-0.08,1.824,0.052,3.695-0.327,5.454	c-0.2,0.928-1.159,2.14-2.015,2.381c-1.484,0.418-2.551-0.817-2.699-2.196c-0.341-3.178-0.705-6.267-1.996-9.291	c-0.751-1.76,1.521-3.301,3.339-2.337c1.12,0.594,2.013,1.619,2.926,2.382c-1.681-12.427-16.417-29.91-28.729-33.757	c-1.724,1.326-3.485,2.854-5.42,4.118c-1.812,1.184-3.715,2.352-5.742,3.055c-3.229,1.121-5.62-0.432-5.822-3.759	c-0.121-1.992,0.124-4.099,0.682-6.016c1.037-3.562,3.101-4.932,6.766-5.018c0.582-0.014,1.22-0.115,1.739,0.077	c4.852,1.795,7.726-0.784,10.677-4.218c7.071-8.227,13.387-16.954,18.183-26.673c7.556-15.316,8.243-31.064,2.052-47.011	c-2.522-6.499-7.063-11.681-11.581-16.85c-1.242-1.423-2.485-2.869-3.515-4.444c-0.906-1.385-1.433-3.081,0.211-4.302	c1.787-1.328,2.888,0.062,3.961,1.347c3.267,3.911,6.594,7.773,9.849,11.693c5.957,7.17,9.246,15.6,10.339,24.687	c1.523,12.655,0.167,25.024-5.699,36.627c-5.094,10.076-11.385,19.33-18.783,27.846c-0.859,0.989-1.695,2-2.504,3.03	c-0.161,0.206-0.151,0.545-0.28,1.063c0.777,0.468,1.587,1.03,2.46,1.47c6.531,3.295,11.679,8.117,15.864,14.075	c6.167,8.777,11.529,17.898,13.114,28.761c0.871,5.976,0.854,11.922-0.607,17.802c-2.865,11.525-11.475,18.627-23.451,19.464	c-9.733,0.68-18.505-1.622-25.932-8.212c-0.754-0.669-1.581-1.259-2.531-2.009c-0.938,0.778-1.85,1.473-2.692,2.244	c-8.372,7.669-18.232,11.338-29.565,10.779c-7.259-0.359-13.388-3.308-17.299-9.542c-2.292-3.653-3.791-7.819-5.476-11.827	c-0.501-1.192-0.465-2.545-1.989-3.101c-2.954-1.079-4.264-3.616-4.661-6.4c-0.448-3.138-0.518-6.375-0.325-9.544	c0.144-2.347,1.684-3.499,3.376-3.137c1.965,0.419,2.352,1.889,2.31,3.654c-0.05,2.159-0.012,4.32-0.012,6.48	C992.499,590.414,992.715,590.415,992.933,590.416z M1045.031,584.964c-1.338,5.241,0.191,10.805,3.377,12.895	C1048.641,593.277,1049.178,588.87,1045.031,584.964z M1053.564,543.673c0.161,0.25,0.322,0.499,0.483,0.748	c0.648-0.422,1.298-0.844,1.946-1.266c-0.16-0.249-0.32-0.497-0.481-0.745C1054.863,542.832,1054.213,543.252,1053.564,543.673z" clip-rule="evenodd"/><path fill="#002300" fill-rule="evenodd" d="M151.809,985.503c-3.648-0.117-5.146-2.71-3.781-5.073	c0.634-1.098,1.7-1.986,2.682-2.841c69.846-60.779,139.703-121.546,209.565-182.307c0.875-0.761,1.749-1.604,2.774-2.096	c1.539-0.74,3.187-0.743,4.365,0.748c1.132,1.435,1.057,3.04-0.093,4.413c-0.928,1.108-2.053,2.063-3.151,3.018	c-41.688,36.275-83.385,72.54-125.076,108.811c-27.721,24.118-55.428,48.25-83.166,72.348	C154.446,983.811,152.738,984.837,151.809,985.503z" clip-rule="evenodd"/><path fill="#002300" fill-rule="evenodd" d="M548.204,727.083c0.465-28.744,3.903-52.901,10.358-76.679	c3.854-14.198,7.1-28.563,10.504-42.879c0.773-3.25,1.066-6.615,1.582-9.926c0.448-2.867,1.726-4.313,3.581-4.054	c1.836,0.257,3.223,2.183,2.826,4.754c-1.133,7.339-2.155,14.721-3.82,21.948c-3.827,16.612-8.224,33.092-11.977,49.719	c-2.664,11.802-4.428,23.793-4.993,35.91c-0.38,8.152-0.914,16.323-0.716,24.469c0.331,13.75,2.68,27.254,6.375,40.503	c2.743,9.832,5.634,19.619,10.432,28.714c0.458,0.869,0.884,1.994,0.72,2.888c-0.187,1.021-0.853,2.418-1.672,2.745	c-1.011,0.402-2.803,0.315-3.529-0.353c-1.342-1.234-2.348-2.951-3.155-4.629c-5.798-12.027-9.344-24.817-12.242-37.771	C549.572,749.46,548.095,736.278,548.204,727.083z" clip-rule="evenodd"/><path fill="#002300" fill-rule="evenodd" d="M1014.235,509.995c-8.495-0.681-16.468-4.916-21.24-14.248	c-1.859-3.636-2.244-7.521-1.409-11.489c0.231-1.102,0.656-2.335,1.408-3.098c0.578-0.587,1.931-0.906,2.715-0.653	c0.752,0.243,1.394,1.303,1.749,2.146c0.25,0.592,0.034,1.443-0.136,2.14c-1.378,5.608,0.866,10.012,4.743,13.729	c4.192,4.02,9.289,5.949,15.13,5.586c9.282-0.576,13.759-8.764,9.246-16.91c-0.698-1.262-1.663-2.383-2.56-3.527	c-1.843-2.351-2.07-3.665-0.785-4.96c1.387-1.399,3.16-1.121,5.196,1.246c4.955,5.757,7.465,12.187,4.49,19.744	C1030.296,506.01,1023.731,509.936,1014.235,509.995z" clip-rule="evenodd"/><path fill="#002300" fill-rule="evenodd" d="M671.776,988.918c1.46,2.957,2.916,5.917,4.384,8.871	c0.454,0.912,1.217,1.771,1.333,2.718c0.105,0.866-0.208,2.169-0.822,2.629c-0.635,0.472-1.987,0.457-2.784,0.105	c-0.854-0.376-1.688-1.275-2.08-2.149c-2.499-5.572-4.884-11.196-7.269-16.818c-0.218-0.514-0.263-1.148-0.227-1.716	c0.136-2.082,1.914-3.124,3.711-2.083c0.708,0.41,1.161,1.264,1.912,2.125c0.22-0.652,0.298-1.218,0.578-1.656	c1.464-2.284,3.358-2.319,4.672-0.096c3.252,5.504,6.464,11.034,9.742,16.523c0.833,1.395,1.362,2.919-0.222,3.796	c-0.884,0.489-2.625,0.327-3.49-0.262c-1.263-0.861-2.209-2.288-3.069-3.618c-1.891-2.922-3.643-5.935-5.451-8.91	C672.388,988.558,672.082,988.738,671.776,988.918z" clip-rule="evenodd"/><path fill="#002300" fill-rule="evenodd" d="M39.359,888.634c1.109-9.612,4.945-17.673,12.333-23.883	c0.547-0.46,1.201-0.816,1.85-1.127c1.522-0.731,2.872-0.316,3.908,0.903c1.074,1.263,1.012,2.704,0.088,4.02	c-0.491,0.7-1.175,1.281-1.83,1.848c-5.383,4.653-8.638,10.484-9.757,17.509c-0.092,0.573-0.129,1.165-0.298,1.715	c-0.675,2.194-1.999,3.242-3.719,2.867C39.802,892.021,39.385,890.374,39.359,888.634z" clip-rule="evenodd"/><path fill="#002300" fill-rule="evenodd" d="M281.666,708.102c1.727-5.81,3.444-11.622,5.2-17.421	c0.163-0.537,0.526-1.037,0.877-1.492c1.445-1.875,2.953-2.371,4.448-1.428c1.852,1.168,1.766,2.807,0.997,4.57	c-2.4,5.5-3.673,11.272-4.108,17.237c-0.249,3.415-1.118,4.903-3.043,5.013c-2.082,0.119-3.538-1.821-3.736-4.993	c-0.027-0.434-0.004-0.87-0.004-1.304C282.087,708.223,281.877,708.162,281.666,708.102z" clip-rule="evenodd"/><path fill="#002300" fill-rule="evenodd" d="M792.044,788.031c5.463-0.042,10.841-2.496,15.352-6.98	c0.611-0.607,0.951-1.616,1.652-1.973c0.915-0.465,2.315-0.93,3.048-0.538c0.787,0.419,1.517,1.89,1.41,2.8	c-0.138,1.169-0.936,2.43-1.795,3.315c-5.051,5.203-11.322,7.97-18.482,8.655c-1.539,0.147-3.162-0.261-4.707-0.599	c-1.555-0.34-2.7-1.343-2.464-3.056c0.25-1.827,1.699-2.135,3.289-1.969C789.923,787.747,790.497,787.833,792.044,788.031z" clip-rule="evenodd"/><path fill="#002300" fill-rule="evenodd" d="M811.505,589.02c-0.289,1.887-0.807,3.358-2.571,3.993	c-1.614,0.582-3.208,0.4-4.419-0.946c-0.774-0.86-1.665-1.767-2.029-2.817c-1.235-3.562-2.471-7.149-3.291-10.819	c-0.567-2.536,0.618-4.505,2.314-5.147c1.957-0.74,4.296,0.053,5.367,2.597C808.677,580.151,809.989,584.629,811.505,589.02z" clip-rule="evenodd"/><path fill="#002300" fill-rule="evenodd" d="M1020.467,494.504c0,0.002,0.153,0.891-0.218,1.399	c-0.609,0.835-1.547,1.952-2.367,1.969c-0.832,0.018-2.396-1.12-2.427-1.807c-0.278-5.985-4.151-8.542-9.147-10.202	c-1.321-0.438-2.405-1.241-2.161-2.824c0.244-1.587,1.522-2.03,2.915-2.023C1012.229,481.042,1020.748,487.706,1020.467,494.504z" clip-rule="evenodd"/><path fill="#002300" fill-rule="evenodd" d="M1067.347,488.454c-1.04,4.189-2.042,8.389-3.152,12.56	c-0.255,0.954-0.703,2.003-1.396,2.65c-0.641,0.596-1.991,1.212-2.56,0.917c-0.829-0.431-1.613-1.626-1.723-2.576	c-0.123-1.061,0.589-2.198,0.833-3.324c0.827-3.802,1.614-7.613,2.396-11.425c0.086-0.42,0.021-0.87,0.079-1.299	c0.333-2.48,1.42-3.843,2.943-3.537c2.061,0.415,2.072,2.127,2.143,3.739c0.031,0.722,0.005,1.447,0.005,2.17	C1067.06,488.371,1067.204,488.412,1067.347,488.454z" clip-rule="evenodd"/><path fill="#002300" fill-rule="evenodd" d="M1069.092,515.526c-0.862-1.259-1.848-2.134-2.043-3.16	c-0.159-0.835,0.576-1.875,1.001-2.783c1.84-3.938,3.791-7.826,5.532-11.806c0.696-1.587,1.309-3.108,3.346-2.547	c2.004,0.553,2.255,2.374,1.604,3.898c-1.987,4.652-4.153,9.234-6.417,13.759C1071.652,513.812,1070.458,514.369,1069.092,515.526z" clip-rule="evenodd"/><path fill="#002300" fill-rule="evenodd" d="M1049.664,506.131c1.459-4.38,2.724-8.527,4.292-12.555	c0.276-0.71,2.008-1.474,2.729-1.227c0.816,0.281,1.927,1.855,1.739,2.552c-1.162,4.312-2.553,8.575-4.137,12.752	c-0.258,0.679-2.035,1.373-2.783,1.115C1050.703,508.491,1050.287,507.097,1049.664,506.131z" clip-rule="evenodd"/><path fill="#002300" fill-rule="evenodd" d="M1084.322,609.633c-1.892-0.06-3-1.838-2.118-3.497	c1.365-2.565,2.843-5.097,4.562-7.43c0.505-0.685,2.014-0.915,3.015-0.826c0.499,0.043,1.178,1.242,1.277,1.984	c0.292,2.173-3.647,8.539-5.679,9.443C1084.99,609.481,1084.559,609.562,1084.322,609.633z" clip-rule="evenodd"/><path fill="#002300" fill-rule="evenodd" d="M1084.317,481.862c0.362,0.662,1.301,1.638,1.372,2.672	c0.131,1.902-2.115,3.98-3.559,3.389c-0.847-0.348-1.764-1.496-1.902-2.398C1079.953,483.728,1082.049,481.673,1084.317,481.862z" clip-rule="evenodd"/><path fill="#FFF" d="M411.919,781.23c3.954,1.916,7.998,1.288,12.321,1.614c0.11-1.849,0.283-3.266,0.263-4.679	c-0.401-29.167-0.817-58.335-1.244-87.502c-0.243-16.625-0.503-33.249-0.774-49.873c-0.186-11.373-0.41-22.746-0.602-34.12	c-0.022-1.311-0.076-2.643,0.114-3.931c0.411-2.78,2.263-4.556,4.847-4.858c2.898-0.339,5.102,0.948,6.099,3.821	c0.418,1.206,0.547,2.559,0.569,3.85c0.328,19.686,0.627,39.373,0.91,59.06c0.415,28.876,0.798,57.751,1.222,86.627	c0.145,9.915,0.371,19.829,0.56,29.743c0.089,4.63,0.174,4.742,4.673,5.848c3.994,0.982,8.014,1.513,12.114,0.682	c3.802-0.771,3.642-0.805,4.647-4.579c0.585-2.196,1.502-4.433,2.809-6.266c1.04-1.459,2.774-2.587,4.425-3.413	c2.74-1.371,5.271-0.703,7.075,1.438c1.623,1.924,1.933,5.105,0.107,7.284c-1.644,1.962-3.806,3.532-5.894,5.064	c-1.252,0.919-2.8,1.435-4.439,2.242c1.116,3.458,3.817,4.59,6.509,5.493c4.523,1.516,9.235,1.246,13.868,0.688	c6.385-0.769,12.524-2.543,18.505-4.957c8.797-3.551,17.822-6.3,27.289-7.505c5.428-0.691,10.763-0.138,16.086,0.721	c1.332,0.215,2.88,0.753,2.891,3.174c-1.101,0.09-2.208,0.404-3.23,0.228c-9.358-1.606-18.578-1.07-27.626,1.769	c-4.996,1.568-10.001,3.158-14.863,5.09c-9.506,3.78-19.278,5.468-29.502,4.798c-5.105-0.335-9.324-2.168-12.418-6.279	c-0.929-1.233-1.75-2.091-3.543-1.91c-5.665,0.574-11.341,0.781-16.943-0.683c-0.519-0.135-1.126,0.072-2.231,0.167	c-0.057,2.475-0.126,4.895-0.163,7.315c-0.03,1.896,0.095,3.8-0.05,5.685c-0.26,3.389-2.092,5.291-5.081,5.506	c-3.253,0.235-5.534-1.493-5.973-4.989c-0.417-3.317-0.449-6.685-0.618-10.031c-0.08-1.602,0.101-3.244-0.201-4.795	c-0.159-0.815-1.015-1.994-1.715-2.119c-3.379-0.604-6.813-0.908-10.826-1.39c-0.075,3.267-0.16,5.834-0.186,8.403	c-0.027,2.625,0.104,5.255-0.013,7.875c-0.172,3.84-2.184,5.991-5.478,6.097c-3.198,0.103-5.7-2.034-6.027-5.67	c-0.3-3.331-0.1-6.704-0.181-10.057c-0.045-1.841-0.216-3.68-0.36-6.025c-2.596,0.468-4.676,0.843-6.768,1.22	c-1.245-1.078-0.902-2.041,0.266-2.805c0.588-0.386,1.325-0.566,2.014-0.773c4.791-1.442,4.827-1.437,4.755-6.563	c-0.365-25.813-0.749-51.626-1.126-77.439c-0.275-18.813-0.535-37.625-0.832-56.437c-0.151-9.624-0.374-19.246-0.546-28.869	c-0.023-1.311-0.088-2.649,0.133-3.929c0.51-2.951,2.544-4.669,5.398-4.777c2.917-0.111,5.029,1.349,5.775,4.292	c0.351,1.386,0.326,2.884,0.346,4.334c0.4,28.875,0.774,57.752,1.169,86.628c0.255,18.666,0.512,37.333,0.821,55.998	c0.121,7.29,0.375,14.578,0.59,21.865C411.659,779.482,411.817,780.334,411.919,781.23z M461.123,784.997	c3.648-0.465,6.333-2.04,8.1-4.866c0.477-0.764,0.495-2.416-0.023-3.037c-0.54-0.646-2.098-0.946-3.01-0.688	C463.081,777.289,461.103,780.656,461.123,784.997z"/><path fill="#FFF" d="M663.278,928.808c1.898-8.368,3.433-16.227,5.478-23.951c6.636-25.054,16.333-48.871,30.154-70.841	c4.633-7.364,10.267-14.104,15.521-21.071c0.95-1.259,2.166-2.407,3.481-3.265c0.661-0.433,2.333-0.468,2.644-0.035	c0.551,0.768,0.539,2.035,0.502,3.083c-0.017,0.469-0.635,0.942-1.028,1.368c-16.481,17.83-27.394,38.985-36.36,61.258	c-6.7,16.642-11.832,33.76-14.717,51.507c-0.14,0.859-0.409,1.696-0.617,2.543c-0.347,1.411-1.184,2.737-2.649,2.17	C664.644,931.171,664.012,929.703,663.278,928.808z"/><path fill="#FFF" d="M796.332,672.476c0.218-1.399,0.257-2.137,0.451-2.833c9.202-33.009,23.87-63.15,46.811-88.921	c5.153-5.789,10.894-10.952,17.346-15.281c1.206-0.809,2.44-1.687,3.794-2.119c0.769-0.245,2.196,0.066,2.617,0.644	c0.448,0.615,0.251,1.904-0.033,2.778c-0.193,0.594-0.973,1.058-1.574,1.45c-15.238,9.936-26.311,23.766-36.008,38.809	c-12.48,19.358-21.731,40.188-27.776,62.429c-0.305,1.124-0.415,2.402-1.047,3.308c-0.656,0.941-1.837,1.516-2.789,2.251	C797.435,674.025,796.748,673.061,796.332,672.476z"/><path fill="#FFF" d="M885.124,530.218c-0.411,1.91-1.844,2.257-3.588,2.322c-3.334,0.125-6.711,0.071-9.988,0.601	c-17.673,2.858-33.562,10.125-48.354,19.99c-1.935,1.291-3.774,2.724-5.667,4.078c-1.26,0.902-2.765,1.564-3.914,0.223	c-1.325-1.548-0.406-3.118,0.985-4.105c4.506-3.192,8.935-6.54,13.688-9.324c12.621-7.392,25.992-13.029,40.482-15.54	c4.529-0.785,9.127-1.989,13.813-0.79C883.911,528.013,885.126,528.441,885.124,530.218z"/><path fill="#FFF" d="M528.265,693.325c-2.452,0.865-3.413-0.874-4.303-2.238c-5.144-7.892-7.177-16.453-5.306-25.814	c1.726-8.634,5.592-16.245,11.295-22.855c4.659-5.4,9.706-10.465,14.491-15.761c3.681-4.075,7.22-8.277,10.953-12.572	c1.64,1.341,0.891,2.876,0.052,4.129c-1.453,2.17-3.022,4.29-4.764,6.234c-5.736,6.401-11.655,12.639-17.34,19.082	c-5.07,5.744-8.648,12.324-10.871,19.726c-2.813,9.367-0.842,17.813,4.096,25.869c0.602,0.982,1.225,1.953,1.78,2.961	C528.463,692.295,528.321,692.645,528.265,693.325z"/><path fill="#FFF" d="M535.926,703.237c1.95,0.556,1.678,1.754,1.563,2.924c-1.885,19.086,0.759,37.404,9.275,54.731	c0.705,1.435,1.422,2.883,1.91,4.397c0.366,1.135,0.374,2.385,0.541,3.584c-0.33,0.172-0.66,0.344-0.99,0.515	c-0.719-0.716-1.721-1.304-2.112-2.169c-5.466-12.051-11.272-24.028-11.512-37.657c-0.129-7.398-0.012-14.802,0.033-22.204	c0.005-1.01,0.171-2.032,0.388-3.02C535.101,703.972,535.542,703.686,535.926,703.237z"/><path fill="#FFF" d="M948.427,454.568c-1.01-1.337-1.931-2.019-2-2.776c-0.098-1.092,0.328-2.272,0.694-3.36	c4.183-12.39,11.736-22.308,22.218-30.035c1.022-0.753,2.236-1.392,3.456-1.675c0.641-0.149,1.804,0.4,2.151,0.981	c0.339,0.566,0.189,1.726-0.193,2.352c-0.506,0.829-1.396,1.464-2.208,2.061c-9.999,7.333-17.462,16.574-21.633,28.362	C950.468,451.73,949.518,452.804,948.427,454.568z"/><path fill="#FFF" d="M317.722,677.928c-2.538-1.03-2.994-2.313-1.736-3.993c0.691-0.922,1.548-1.744,2.427-2.497	c8.639-7.397,18.806-12.15,29.05-16.778c1.403-0.634,2.545-0.684,3.381,0.723c0.842,1.417,0.163,2.538-0.961,3.404	c-0.683,0.526-1.47,0.951-2.266,1.292C336.869,664.678,326.366,669.688,317.722,677.928z"/><path fill="#FFF" d="M140.594,884.77c-0.61-0.747-1.58-1.423-1.501-1.939c0.206-1.349,0.638-2.793,1.418-3.887	c0.817-1.145,2.22-1.851,3.235-2.878c4.683-4.737,9.323-9.515,13.97-14.286c1.009-1.037,1.835-2.347,3.025-3.076	c0.78-0.478,2.203-0.441,3.054-0.036c0.421,0.2,0.49,1.857,0.195,2.666c-0.382,1.047-1.182,2.004-1.98,2.828	c-4.437,4.573-8.897,9.123-13.413,13.617c-1.946,1.937-4.033,3.731-6.077,5.566C142.006,883.802,141.41,884.169,140.594,884.77z"/><path fill="#FFF" d="M75.297,881.085c5.463,2.101,10.617,3.624,14.727,7.265c1.012,0.896,1.931,2.194,0.65,3.301	c-0.626,0.542-2.226,0.526-3.088,0.126c-4.178-1.941-8.256-4.099-12.369-6.179c-0.258-0.13-0.619-0.178-0.766-0.383	c-0.546-0.767-1.605-1.831-1.395-2.326C73.402,882.072,74.586,881.609,75.297,881.085z"/><path fill="#FFF" d="M597.307,589.434c-0.122,0.577-0.119,0.892-0.251,1.132c-1.315,2.387-2.578,4.809-4.036,7.106	c-0.363,0.573-1.707,1.206-2.028,0.984c-0.707-0.488-1.568-1.594-1.448-2.289c0.547-3.166,1.784-6.103,4.461-8.104	c0.565-0.422,1.634-0.507,2.333-0.294C596.821,588.116,597.067,589.042,597.307,589.434z"/><path fill="#FFF" d="M897.751,550.491c0.727,0.581,1.739,1.026,2.057,1.769c0.229,0.537-0.261,1.909-0.78,2.149	c-2.191,1.013-4.49,1.818-6.807,2.503c-0.448,0.132-1.614-0.569-1.65-0.959c-0.081-0.883,0.05-2.323,0.602-2.631	C893.143,552.218,895.325,551.493,897.751,550.491z"/><path fill="#FFF" d="M795.578,776.942c-0.029,0.473-0.011,0.622-0.05,0.754c-0.53,1.783-1.94,2.433-3.592,2.603	c-1.751,0.178-3.648,1.81-5.204-0.103c-0.422-0.518-0.188-2.447,0.135-2.554c2.398-0.796,4.882-1.369,7.374-1.817	C794.649,775.751,795.23,776.636,795.578,776.942z"/><path fill="#FFF" d="M998.743,423.866c-0.595,1.872-0.956,3.419-1.607,4.833c-0.224,0.483-1.315,1.007-1.763,0.842	c-0.688-0.253-1.697-1.152-1.634-1.661c0.243-1.966,0.765-3.918,1.406-5.8c0.143-0.418,1.534-0.913,1.759-0.712	C997.666,422.047,998.162,423.026,998.743,423.866z"/><path fill="#FFF" d="M729.396,797.818c-1.183,1.339-1.915,2.937-2.931,3.143c-1.63,0.333-1.915-1.307-1.809-2.669	c0.118-1.515,0.664-3.022,2.394-2.937C727.755,795.39,728.397,796.718,729.396,797.818z"/><path fill="#FFF" d="M172.546,853.012c-0.969-1.524-1.715-2.223-1.864-3.031c-0.271-1.485,1.132-3.227,2.375-2.928	c0.739,0.178,1.888,1.379,1.771,1.858C174.536,850.118,173.631,851.176,172.546,853.012z"/><path fill="#FFF" d="M992.803,436.143c0.387,0.939,1.01,1.855,1.107,2.823c0.136,1.357-0.374,2.833-2.058,2.469	c-0.735-0.159-1.695-1.578-1.665-2.392c0.038-1.013,0.994-1.992,1.553-2.985C992.094,436.085,992.449,436.114,992.803,436.143z"/><path fill="#FFF" d="M895.452,525.361c1.199,1.546,2.111,2.393,2.533,3.438c0.157,0.389-0.727,1.647-1.321,1.803	c-1.523,0.398-2.586-0.622-2.728-2.035C893.859,527.809,894.655,526.962,895.452,525.361z"/><path fill="#FFF" d="M1036.354,402.594c-1.222,0.912-1.978,1.785-2.889,2.003c-0.361,0.086-1.407-1.225-1.543-2.004	c-0.215-1.22,0.421-2.477,1.89-2.216C1034.581,400.514,1035.193,401.537,1036.354,402.594z"/><path fill="#FFF" d="M186.791,837.603c-1.383,0.829-2.244,1.741-3.045,1.691c-0.564-0.035-1.618-1.584-1.436-2.087	c0.297-0.819,1.351-1.597,2.241-1.854C184.936,835.242,185.708,836.473,186.791,837.603z"/><path fill="#FFF" d="M102.591,895.185c0.95,1.139,1.741,1.67,1.88,2.337c0.315,1.502-0.488,2.617-2.039,2.64	c-0.588,0.008-1.763-1.045-1.682-1.348C101.047,897.711,101.762,896.72,102.591,895.185z"/><path fill="#FFF" d="M1014.354,480.533c3.912-1.038,4.307-0.751,4.442,2.762C1016.705,483.647,1015.864,482.105,1014.354,480.533	z"/><path fill="#FFF" d="M878.198,562.013c-0.758-1.157-1.664-1.999-1.499-2.404c0.305-0.749,1.238-1.242,1.91-1.841	c0.493,0.576,1.455,1.231,1.373,1.708C879.85,560.248,879.033,560.901,878.198,562.013z"/><path fill="#FFF" d="M1019.375,489.614c0.845-0.549,1.284-1.059,1.628-1.001c0.407,0.068,0.733,0.625,1.094,0.969	c-0.278,0.284-0.561,0.802-0.834,0.798C1020.799,490.371,1020.342,490.033,1019.375,489.614z"/></svg>