<?xml version="1.0" standalone="no"?>
<!DOCTYPE svg PUBLIC "-//W3C//DTD SVG 20010904//EN"
 "http://www.w3.org/TR/2001/REC-SVG-20010904/DTD/svg10.dtd">
<svg version="1.0" xmlns="http://www.w3.org/2000/svg"
 width="512.000000pt" height="512.000000pt" viewBox="0 0 512.000000 512.000000"
 preserveAspectRatio="xMidYMid meet">

<g transform="translate(0.000000,512.000000) scale(0.100000,-0.100000)"
fill="#000000" stroke="none">
<path d="M3856 5109 c-69 -10 -176 -39 -176 -48 0 -3 45 -44 101 -91 284 -239
500 -584 593 -945 23 -91 59 -295 53 -301 -1 -2 -30 39 -65 90 -143 216 -365
474 -554 644 -195 174 -445 359 -472 349 -26 -10 -143 -168 -188 -254 -78
-150 -108 -270 -108 -432 0 -166 53 -357 137 -500 97 -164 215 -266 517 -452
302 -186 407 -268 517 -407 139 -173 212 -344 263 -615 l22 -119 63 81 c145
188 306 474 396 705 230 586 218 1131 -35 1651 -84 172 -167 291 -280 398
-213 201 -491 289 -784 246z"/>
<path d="M1778 4859 c-462 -27 -870 -175 -1183 -429 -97 -79 -257 -247 -337
-355 -72 -97 -166 -268 -199 -362 -98 -286 -68 -577 86 -832 55 -90 153 -203
161 -184 3 7 39 79 79 160 179 359 388 649 677 936 82 81 153 147 159 147 5 0
-13 -30 -40 -67 -166 -230 -329 -573 -415 -868 -40 -142 -83 -348 -92 -444
l-7 -68 79 -21 c350 -95 686 0 931 261 187 200 253 390 283 817 14 205 35 359
65 476 29 113 105 279 172 373 68 95 203 231 310 313 51 39 91 73 89 76 -16
15 -292 59 -426 67 -194 11 -258 12 -392 4z"/>
<path d="M2895 1936 c-151 -40 -219 -72 -490 -231 -372 -219 -539 -272 -820
-262 -168 6 -248 21 -412 76 l-112 38 16 -41 c34 -89 143 -306 203 -406 274
-454 625 -782 1022 -957 341 -150 782 -193 1087 -107 256 73 466 243 585 474
41 80 85 204 100 279 5 29 4 32 -12 26 -51 -20 -305 -78 -427 -97 -200 -31
-588 -31 -785 -1 -164 26 -330 63 -330 75 0 4 24 8 53 8 72 0 279 26 407 51
230 44 484 120 683 203 76 31 344 161 356 172 3 2 -4 30 -13 62 -81 257 -257
464 -487 571 -134 63 -222 83 -389 87 -129 4 -155 2 -235 -20z"/>
</g>
</svg>
